<?xml version="1.0" encoding="UTF-8" standalone="no"?>
<!DOCTYPE svg PUBLIC "-//W3C//DTD SVG 1.1//EN" "http://www.w3.org/Graphics/SVG/1.1/DTD/svg11.dtd">
<!-- Generated by Microsoft Visio, SVG Export Fig 1 AIP.svg Page-1 -->
<svg xmlns="http://www.w3.org/2000/svg" xmlns:xlink="http://www.w3.org/1999/xlink" xmlns:ev="http://www.w3.org/2001/xml-events"
		xmlns:v="http://schemas.microsoft.com/visio/2003/SVGExtensions/" width="6.39451in" height="4.24212in"
		viewBox="0 0 460.405 305.432" xml:space="preserve" color-interpolation-filters="sRGB" class="st6">
	<v:documentProperties v:langID="2057" v:metric="true" v:viewMarkup="false"/>

	<style type="text/css">
	<![CDATA[
		.st1 {stroke:#000000;stroke-linecap:round;stroke-linejoin:round;stroke-width:2.25}
		.st2 {visibility:visible}
		.st3 {fill:#000000;fill-opacity:0.4;filter:url(#filter_2.6666667461395);stroke:#000000;stroke-linecap:round;stroke-linejoin:round;stroke-opacity:0.4}
		.st4 {fill:#c6d8f0;stroke:#000000;stroke-linecap:round;stroke-linejoin:round;stroke-width:0.24}
		.st5 {fill:#000000;font-family:Arial;font-size:1.00001em;font-weight:bold}
		.st6 {fill:none;fill-rule:evenodd;font-size:12px;overflow:visible;stroke-linecap:square;stroke-miterlimit:3}
	]]>
	</style>

	<defs id="Filters">
		<filter id="filter_2.6666667461395">
			<feGaussianBlur stdDeviation="2.6666667461395"/>
		</filter>
	</defs>
	<g v:mID="0" v:index="1" v:groupContext="foregroundPage">
		<title>Page-1</title>
		<v:pageProperties v:drawingScale="0.0393701" v:pageScale="0.0393701" v:drawingUnits="24" v:shadowOffsetX="8.50394"
				v:shadowOffsetY="-8.50394"/>
		<g id="shape1-1" v:mID="1" v:groupContext="shape" transform="translate(72.1922,-239.26)">
			<title>Sheet.1</title>
			<path d="M0 305.43 L233.98 305.43" class="st1"/>
		</g>
		<g id="shape2-4" v:mID="2" v:groupContext="shape" transform="translate(-78.347,172.977) rotate(-90)">
			<title>Sheet.2</title>
			<path d="M0 305.43 L15.6 305.43" class="st1"/>
		</g>
		<g id="shape3-7" v:mID="3" v:groupContext="shape" transform="translate(-108.452,63.4689) rotate(-90)">
			<title>Sheet.3</title>
			<path d="M0 305.43 L28.49 305.43" class="st1"/>
		</g>
		<g id="shape4-10" v:mID="4" v:groupContext="shape" transform="translate(1.99868,-176.725)">
			<title>Rectangle.2369</title>
			<desc>metadata</desc>
			<v:userDefs>
				<v:ud v:nameU="visVersion" v:val="VT0(11):26"/>
			</v:userDefs>
			<v:textBlock v:margins="rect(4,4,4,4)" v:tabSpace="42.5197"/>
			<v:textRect cx="70.1936" cy="289.764" width="140.39" height="31.3376"/>
			<g id="shadow4-11" v:groupContext="shadow" v:shadowOffsetX="2.12132" v:shadowOffsetY="-2.12132" v:shadowType="1"
					transform="matrix(1,0,0,1,2.12132,2.12132)" class="st2">
				<rect x="0" y="274.095" width="140.387" height="31.3376" class="st3"/>
			</g>
			<rect x="0" y="274.095" width="140.387" height="31.3376" class="st4"/>
			<text x="43.85" y="293.36" class="st5" v:langID="2057"><v:paragraph v:horizAlign="1"/><v:tabList/>metadata</text>		</g>
		<g id="shape5-16" v:mID="5" v:groupContext="shape" transform="translate(1.16418,157.459) rotate(-90)">
			<title>Sheet.5</title>
			<path d="M0 305.43 L31.2 305.43" class="st1"/>
		</g>
		<g id="shape6-19" v:mID="6" v:groupContext="shape" transform="translate(-233.24,97.3698) rotate(-90)">
			<title>Sheet.6</title>
			<path d="M0 305.43 L31.2 305.43" class="st1"/>
		</g>
		<g id="shape7-22" v:mID="7" v:groupContext="shape" transform="translate(156.892,-100.19)">
			<title>Rectangle.2372</title>
			<desc>rep-001</desc>
			<v:userDefs>
				<v:ud v:nameU="visVersion" v:val="VT0(11):26"/>
			</v:userDefs>
			<v:textBlock v:margins="rect(4,4,4,4)" v:tabSpace="42.5197"/>
			<v:textRect cx="70.1936" cy="289.3" width="140.39" height="32.2656"/>
			<g id="shadow7-23" v:groupContext="shadow" v:shadowOffsetX="2.12132" v:shadowOffsetY="-2.12132" v:shadowType="1"
					transform="matrix(1,0,0,1,2.12132,2.12132)" class="st2">
				<rect x="0" y="273.167" width="140.387" height="32.2656" class="st3"/>
			</g>
			<rect x="0" y="273.167" width="140.387" height="32.2656" class="st4"/>
			<text x="48.85" y="292.9" class="st5" v:langID="2057"><v:paragraph v:horizAlign="1"/><v:tabList/>rep-001</text>		</g>
		<g id="shape8-28" v:mID="8" v:groupContext="shape" transform="translate(235.977,-176.725)">
			<title>Rectangle.2373</title>
			<desc>representations</desc>
			<v:userDefs>
				<v:ud v:nameU="visVersion" v:val="VT0(11):26"/>
			</v:userDefs>
			<v:textBlock v:margins="rect(4,4,4,4)" v:tabSpace="42.5197"/>
			<v:textRect cx="70.1936" cy="289.764" width="140.39" height="31.3376"/>
			<g id="shadow8-29" v:groupContext="shadow" v:shadowOffsetX="2.12132" v:shadowOffsetY="-2.12132" v:shadowType="1"
					transform="matrix(1,0,0,1,2.12132,2.12132)" class="st2">
				<rect x="0" y="274.095" width="140.387" height="31.3376" class="st3"/>
			</g>
			<rect x="0" y="274.095" width="140.387" height="31.3376" class="st4"/>
			<text x="25.18" y="293.36" class="st5" v:langID="2057"><v:paragraph v:horizAlign="1"/><v:tabList/>representations</text>		</g>
		<g id="shape9-34" v:mID="9" v:groupContext="shape" transform="translate(196.787,-53.037)">
			<title>Rectangle.2374</title>
			<desc>data</desc>
			<v:userDefs>
				<v:ud v:nameU="visVersion" v:val="VT0(11):26"/>
			</v:userDefs>
			<v:textBlock v:margins="rect(4,4,4,4)" v:tabSpace="42.5197"/>
			<v:textRect cx="50.6954" cy="289.834" width="101.4" height="31.1971"/>
			<g id="shadow9-35" v:groupContext="shadow" v:shadowOffsetX="2.12132" v:shadowOffsetY="-2.12132" v:shadowType="1"
					transform="matrix(1,0,0,1,2.12132,2.12132)" class="st2">
				<rect x="0" y="274.235" width="101.391" height="31.1971" class="st3"/>
			</g>
			<rect x="0" y="274.235" width="101.391" height="31.1971" class="st4"/>
			<text x="38.36" y="293.43" class="st5" v:langID="2057"><v:paragraph v:horizAlign="1"/><v:tabList/>data</text>		</g>
		<g id="shape10-40" v:mID="10" v:groupContext="shape" transform="translate(196.787,-6.24132)">
			<title>Rectangle.2375</title>
			<desc>metadata</desc>
			<v:userDefs>
				<v:ud v:nameU="visVersion" v:val="VT0(11):26"/>
			</v:userDefs>
			<v:textBlock v:margins="rect(4,4,4,4)" v:tabSpace="42.5197"/>
			<v:textRect cx="50.6954" cy="289.834" width="101.4" height="31.1971"/>
			<g id="shadow10-41" v:groupContext="shadow" v:shadowOffsetX="2.12132" v:shadowOffsetY="-2.12132" v:shadowType="1"
					transform="matrix(1,0,0,1,2.12132,2.12132)" class="st2">
				<rect x="0" y="274.235" width="101.391" height="31.1971" class="st3"/>
			</g>
			<rect x="0" y="274.235" width="101.391" height="31.1971" class="st4"/>
			<text x="24.35" y="293.43" class="st5" v:langID="2057"><v:paragraph v:horizAlign="1"/><v:tabList/>metadata</text>		</g>
		<g id="shape11-46" v:mID="11" v:groupContext="shape" transform="translate(-124.244,283.592) rotate(-90)">
			<title>Sheet.11</title>
			<path d="M0 305.43 L77.99 305.43" class="st1"/>
		</g>
		<g id="shape12-49" v:mID="12" v:groupContext="shape" transform="translate(382.375,462.962) rotate(-179.944)">
			<title>Sheet.12</title>
			<path d="M0 305.43 L155.59 305.43" class="st1"/>
		</g>
		<g id="shape13-52" v:mID="13" v:groupContext="shape" transform="translate(0.738431,97.3698) rotate(-90)">
			<title>Sheet.13</title>
			<path d="M0 305.43 L31.2 305.43" class="st1"/>
		</g>
		<g id="shape14-55" v:mID="14" v:groupContext="shape" transform="translate(196.787,589.025) rotate(180)">
			<title>Sheet.14</title>
			<path d="M0 305.43 L15.6 305.43" class="st1"/>
		</g>
		<g id="shape15-58" v:mID="15" v:groupContext="shape" transform="translate(196.787,542.229) rotate(180)">
			<title>Sheet.15</title>
			<path d="M0 305.43 L15.6 305.43" class="st1"/>
		</g>
		<g id="shape16-61" v:mID="16" v:groupContext="shape" transform="translate(312.878,-100.19)">
			<title>Rectangle.2381</title>
			<desc>rep-002</desc>
			<v:userDefs>
				<v:ud v:nameU="visVersion" v:val="VT0(11):26"/>
			</v:userDefs>
			<v:textBlock v:margins="rect(4,4,4,4)" v:tabSpace="42.5197"/>
			<v:textRect cx="70.1936" cy="289.3" width="140.39" height="32.2656"/>
			<g id="shadow16-62" v:groupContext="shadow" v:shadowOffsetX="2.12132" v:shadowOffsetY="-2.12132" v:shadowType="1"
					transform="matrix(1,0,0,1,2.12132,2.12132)" class="st2">
				<rect x="0" y="273.167" width="140.387" height="32.2656" class="st3"/>
			</g>
			<rect x="0" y="273.167" width="140.387" height="32.2656" class="st4"/>
			<text x="48.85" y="292.9" class="st5" v:langID="2057"><v:paragraph v:horizAlign="1"/><v:tabList/>rep-002</text>		</g>
		<g id="shape17-67" v:mID="17" v:groupContext="shape" transform="translate(352.773,-53.037)">
			<title>Rectangle.2382</title>
			<desc>data</desc>
			<v:userDefs>
				<v:ud v:nameU="visVersion" v:val="VT0(11):26"/>
			</v:userDefs>
			<v:textBlock v:margins="rect(4,4,4,4)" v:tabSpace="42.5197"/>
			<v:textRect cx="50.6954" cy="289.834" width="101.4" height="31.1971"/>
			<g id="shadow17-68" v:groupContext="shadow" v:shadowOffsetX="2.12132" v:shadowOffsetY="-2.12132" v:shadowType="1"
					transform="matrix(1,0,0,1,2.12132,2.12132)" class="st2">
				<rect x="0" y="274.235" width="101.391" height="31.1971" class="st3"/>
			</g>
			<rect x="0" y="274.235" width="101.391" height="31.1971" class="st4"/>
			<text x="38.36" y="293.43" class="st5" v:langID="2057"><v:paragraph v:horizAlign="1"/><v:tabList/>data</text>		</g>
		<g id="shape18-73" v:mID="18" v:groupContext="shape" transform="translate(352.773,-6.24132)">
			<title>Rectangle.2383</title>
			<desc>metadata</desc>
			<v:userDefs>
				<v:ud v:nameU="visVersion" v:val="VT0(11):26"/>
			</v:userDefs>
			<v:textBlock v:margins="rect(4,4,4,4)" v:tabSpace="42.5197"/>
			<v:textRect cx="50.6954" cy="289.834" width="101.4" height="31.1971"/>
			<g id="shadow18-74" v:groupContext="shadow" v:shadowOffsetX="2.12132" v:shadowOffsetY="-2.12132" v:shadowType="1"
					transform="matrix(1,0,0,1,2.12132,2.12132)" class="st2">
				<rect x="0" y="274.235" width="101.391" height="31.1971" class="st3"/>
			</g>
			<rect x="0" y="274.235" width="101.391" height="31.1971" class="st4"/>
			<text x="24.35" y="293.43" class="st5" v:langID="2057"><v:paragraph v:horizAlign="1"/><v:tabList/>metadata</text>		</g>
		<g id="shape19-79" v:mID="19" v:groupContext="shape" transform="translate(31.7421,283.592) rotate(-90)">
			<title>Sheet.19</title>
			<path d="M0 305.43 L77.99 305.43" class="st1"/>
		</g>
		<g id="shape20-82" v:mID="20" v:groupContext="shape" transform="translate(352.773,589.025) rotate(180)">
			<title>Sheet.20</title>
			<path d="M0 305.43 L15.6 305.43" class="st1"/>
		</g>
		<g id="shape21-85" v:mID="21" v:groupContext="shape" transform="translate(352.773,542.229) rotate(180)">
			<title>Sheet.21</title>
			<path d="M0 305.43 L15.6 305.43" class="st1"/>
		</g>
		<g id="shape22-88" v:mID="22" v:groupContext="shape" transform="translate(77.6566,169.672) rotate(-89.3799)">
			<title>Sheet.22</title>
			<path d="M0 305.43 L15.45 305.43" class="st1"/>
		</g>
		<g id="shape23-91" v:mID="23" v:groupContext="shape" transform="translate(136.644,-273.103)">
			<title>Rectangle.2388</title>
			<desc>IP</desc>
			<v:userDefs>
				<v:ud v:nameU="visVersion" v:val="VT0(11):26"/>
			</v:userDefs>
			<v:textBlock v:margins="rect(4,4,4,4)" v:tabSpace="42.5197"/>
			<v:textRect cx="63.7795" cy="290.267" width="127.56" height="30.3307"/>
			<g id="shadow23-92" v:groupContext="shadow" v:shadowOffsetX="2.12132" v:shadowOffsetY="-2.12132" v:shadowType="1"
					transform="matrix(1,0,0,1,2.12132,2.12132)" class="st2">
				<rect x="0" y="275.102" width="127.559" height="30.3307" class="st3"/>
			</g>
			<rect x="0" y="275.102" width="127.559" height="30.3307" class="st4"/>
			<text x="58.11" y="293.87" class="st5" v:langID="2057"><v:paragraph v:horizAlign="1"/><v:tabList/>IP</text>		</g>
	</g>
</svg>
