<?xml version="1.0" encoding="UTF-8" standalone="no"?>
<!DOCTYPE svg PUBLIC "-//W3C//DTD SVG 1.1//EN" "http://www.w3.org/Graphics/SVG/1.1/DTD/svg11.dtd">
<!-- Generated by Microsoft Visio, SVG Export Fig9 AIPd.svg Page-1 -->
<svg xmlns="http://www.w3.org/2000/svg" xmlns:xlink="http://www.w3.org/1999/xlink" xmlns:ev="http://www.w3.org/2001/xml-events"
		xmlns:v="http://schemas.microsoft.com/visio/2003/SVGExtensions/" width="12.3543in" height="3.39991in"
		viewBox="0 0 889.506 244.793" xml:space="preserve" color-interpolation-filters="sRGB" class="st8">
	<v:documentProperties v:langID="2057" v:metric="true" v:viewMarkup="false"/>

	<style type="text/css">
	<![CDATA[
		.st1 {stroke:#000000;stroke-linecap:round;stroke-linejoin:round;stroke-width:2.25}
		.st2 {visibility:visible}
		.st3 {fill:#000000;fill-opacity:0.4;filter:url(#filter_2.6666667461395);stroke:#000000;stroke-linecap:round;stroke-linejoin:round;stroke-opacity:0.4}
		.st4 {fill:#c6d8f0;stroke:#000000;stroke-linecap:round;stroke-linejoin:round;stroke-width:0.24}
		.st5 {fill:#000000;font-family:Arial;font-size:1.00001em;font-weight:bold}
		.st6 {fill:#c6d8f0;stroke:#000000;stroke-linecap:round;stroke-linejoin:round;stroke-opacity:0;stroke-width:0.24}
		.st7 {fill:#000000;font-family:Arial;font-size:1.00001em;font-style:italic;font-weight:bold}
		.st8 {fill:none;fill-rule:evenodd;font-size:12px;overflow:visible;stroke-linecap:square;stroke-miterlimit:3}
	]]>
	</style>

	<defs id="Filters">
		<filter id="filter_2.6666667461395">
			<feGaussianBlur stdDeviation="2.6666667461395"/>
		</filter>
	</defs>
	<g v:mID="0" v:index="1" v:groupContext="foregroundPage">
		<title>Page-1</title>
		<v:pageProperties v:drawingScale="0.0393701" v:pageScale="0.0393701" v:drawingUnits="24" v:shadowOffsetX="8.50394"
				v:shadowOffsetY="-8.50394"/>
		<g id="shape1-1" v:mID="1" v:groupContext="shape" transform="translate(-69.0569,172.02) rotate(-90.124)">
			<title>Sheet.1</title>
			<path d="M0 244.79 L85.85 244.79" class="st1"/>
		</g>
		<g id="shape2-4" v:mID="2" v:groupContext="shape" transform="translate(428.862,115.783) rotate(-90.357)">
			<title>Sheet.2</title>
			<path d="M0 244.79 L71.84 244.79" class="st1"/>
		</g>
		<g id="shape3-7" v:mID="3" v:groupContext="shape" transform="translate(218.684,-214.448)">
			<title>Rectangle.2393</title>
			<desc>AIP</desc>
			<v:userDefs>
				<v:ud v:nameU="visVersion" v:val="VT0(11):26"/>
			</v:userDefs>
			<v:textBlock v:margins="rect(4,4,4,4)" v:tabSpace="42.5197"/>
			<v:textRect cx="63.7795" cy="230.62" width="127.56" height="28.3465"/>
			<g id="shadow3-8" v:groupContext="shadow" v:shadowOffsetX="2.12132" v:shadowOffsetY="-2.12132" v:shadowType="1"
					transform="matrix(1,0,0,1,2.12132,2.12132)" class="st2">
				<rect x="0" y="216.447" width="127.559" height="28.3465" class="st3"/>
			</g>
			<rect x="0" y="216.447" width="127.559" height="28.3465" class="st4"/>
			<text x="53.78" y="234.22" class="st5" v:langID="2057"><v:paragraph v:horizAlign="1"/><v:tabList/>AIP</text>		</g>
		<g id="shape4-13" v:mID="4" v:groupContext="shape" transform="translate(65.5245,-203.249) rotate(0.0827189)">
			<title>Sheet.4</title>
			<path d="M0 244.79 L608.03 244.79" class="st1"/>
		</g>
		<g id="shape5-16" v:mID="5" v:groupContext="shape" transform="translate(-178.802,77.4798) rotate(-91.4291)">
			<title>Sheet.5</title>
			<path d="M0 244.79 L29.84 244.79" class="st1"/>
		</g>
		<g id="shape6-19" v:mID="6" v:groupContext="shape" transform="translate(4.11999,-132.447)">
			<title>Rectangle.2396</title>
			<v:userDefs>
				<v:ud v:nameU="visVersion" v:val="VT0(11):26"/>
			</v:userDefs>
			<v:textBlock v:margins="rect(4,4,4,4)" v:tabSpace="42.5197"/>
			<g id="shadow6-20" v:groupContext="shadow" v:shadowOffsetX="2.12132" v:shadowOffsetY="-2.12132" v:shadowType="1"
					transform="matrix(1,0,0,1,2.12132,2.12132)" class="st2">
				<rect x="0" y="190.788" width="123.591" height="54.0055" class="st3"/>
			</g>
			<rect x="0" y="190.788" width="123.591" height="54.0055" class="st4"/>
		</g>
		<g id="shape7-24" v:mID="7" v:groupContext="shape" transform="translate(149.36,-158.78)">
			<title>Rectangle.2397</title>
			<desc>metadata</desc>
			<v:userDefs>
				<v:ud v:nameU="visVersion" v:val="VT0(11):26"/>
			</v:userDefs>
			<v:textBlock v:margins="rect(4,4,4,4)" v:tabSpace="42.5197"/>
			<v:textRect cx="63.7795" cy="230.62" width="127.56" height="28.3465"/>
			<g id="shadow7-25" v:groupContext="shadow" v:shadowOffsetX="2.12132" v:shadowOffsetY="-2.12132" v:shadowType="1"
					transform="matrix(1,0,0,1,2.12132,2.12132)" class="st2">
				<rect x="0" y="216.447" width="127.559" height="28.3465" class="st3"/>
			</g>
			<rect x="0" y="216.447" width="127.559" height="28.3465" class="st4"/>
			<text x="37.44" y="234.22" class="st5" v:langID="2057"><v:paragraph v:horizAlign="1"/><v:tabList/>metadata</text>		</g>
		<g id="shape8-30" v:mID="8" v:groupContext="shape" transform="translate(-31.6536,57.6664) rotate(-90)">
			<title>Sheet.8</title>
			<path d="M0 244.79 L14.17 244.79" class="st1"/>
		</g>
		<g id="shape9-33" v:mID="9" v:groupContext="shape" transform="translate(37.6152,41.1535) rotate(-89.7213)">
			<title>Sheet.9</title>
			<path d="M0 244.79 L12 244.79" class="st1"/>
		</g>
		<g id="shape10-36" v:mID="10" v:groupContext="shape" transform="translate(201.674,351.653) rotate(179.9)">
			<title>Sheet.10</title>
			<path d="M0 244.79 L25.7 244.79" class="st1"/>
		</g>
		<g id="shape11-39" v:mID="11" v:groupContext="shape" transform="translate(199.124,383.392) rotate(179.502)">
			<title>Sheet.11</title>
			<path d="M0 244.79 L21.45 244.79" class="st1"/>
		</g>
		<g id="shape12-42" v:mID="12" v:groupContext="shape" transform="translate(192.967,417.343) rotate(180)">
			<title>Sheet.12</title>
			<path d="M0 244.79 L17.74 244.79" class="st1"/>
		</g>
		<g id="shape13-45" v:mID="13" v:groupContext="shape" transform="translate(189.723,-127.258)">
			<title>Rectangle.2404</title>
			<desc>descriptive</desc>
			<v:userDefs>
				<v:ud v:nameU="visVersion" v:val="VT0(11):26"/>
			</v:userDefs>
			<v:textBlock v:margins="rect(4,4,4,4)" v:tabSpace="42.5197"/>
			<v:textRect cx="42.5197" cy="234.163" width="85.04" height="21.2598"/>
			<g id="shadow13-46" v:groupContext="shadow" v:shadowOffsetX="2.12132" v:shadowOffsetY="-2.12132" v:shadowType="1"
					transform="matrix(1,0,0,1,2.12132,2.12132)" class="st2">
				<rect x="0" y="223.533" width="85.0394" height="21.2598" class="st3"/>
			</g>
			<rect x="0" y="223.533" width="85.0394" height="21.2598" class="st4"/>
			<text x="10.84" y="237.76" class="st5" v:langID="2057"><v:paragraph v:horizAlign="1"/><v:tabList/>descriptive</text>		</g>
		<g id="shape14-51" v:mID="14" v:groupContext="shape" transform="translate(189.723,-95.3686)">
			<title>Rectangle.2405</title>
			<desc>preservation</desc>
			<v:userDefs>
				<v:ud v:nameU="visVersion" v:val="VT0(11):26"/>
			</v:userDefs>
			<v:textBlock v:margins="rect(4,4,4,4)" v:tabSpace="42.5197"/>
			<v:textRect cx="42.5197" cy="234.163" width="85.04" height="21.2598"/>
			<g id="shadow14-52" v:groupContext="shadow" v:shadowOffsetX="2.12132" v:shadowOffsetY="-2.12132" v:shadowType="1"
					transform="matrix(1,0,0,1,2.12132,2.12132)" class="st2">
				<rect x="0" y="223.533" width="85.0394" height="21.2598" class="st3"/>
			</g>
			<rect x="0" y="223.533" width="85.0394" height="21.2598" class="st4"/>
			<text x="6.5" y="237.76" class="st5" v:langID="2057"><v:paragraph v:horizAlign="1"/><v:tabList/>preservation</text>		</g>
		<g id="shape15-57" v:mID="15" v:groupContext="shape" transform="translate(190.73,-61.8004)">
			<title>Rectangle.2406</title>
			<desc>other</desc>
			<v:userDefs>
				<v:ud v:nameU="visVersion" v:val="VT0(11):26"/>
			</v:userDefs>
			<v:textBlock v:margins="rect(4,4,4,4)" v:tabSpace="42.5197"/>
			<v:textRect cx="42.5197" cy="234.163" width="85.04" height="21.2598"/>
			<g id="shadow15-58" v:groupContext="shadow" v:shadowOffsetX="2.12132" v:shadowOffsetY="-2.12132" v:shadowType="1"
					transform="matrix(1,0,0,1,2.12132,2.12132)" class="st2">
				<rect x="0" y="223.533" width="85.0394" height="21.2598" class="st3"/>
			</g>
			<rect x="0" y="223.533" width="85.0394" height="21.2598" class="st4"/>
			<text x="27.52" y="237.76" class="st5" v:langID="2057"><v:paragraph v:horizAlign="1"/><v:tabList/>other</text>		</g>
		<g id="shape16-63" v:mID="16" v:groupContext="shape" transform="translate(4.11999,-160.385)">
			<title>Rectangle.2407</title>
			<desc>METS.xml</desc>
			<v:userDefs>
				<v:ud v:nameU="visVersion" v:val="VT0(11):26"/>
			</v:userDefs>
			<v:textBlock v:margins="rect(4,4,4,4)" v:tabSpace="42.5197"/>
			<v:textRect cx="61.7953" cy="231.76" width="123.6" height="26.0673"/>
			<g id="shadow16-64" v:groupContext="shadow" v:shadowOffsetX="1.83697E-16" v:shadowOffsetY="-3" v:shadowType="1"
					transform="matrix(1,0,0,1,0,3)" class="st2">
				<rect x="0" y="218.726" width="123.591" height="26.0673" class="st3"/>
			</g>
			<rect x="0" y="218.726" width="123.591" height="26.0673" class="st6"/>
			<text x="33.12" y="235.36" class="st5" v:langID="2057"><v:paragraph v:horizAlign="1"/><v:tabList/>METS.xml</text>		</g>
		<g id="shape17-69" v:mID="17" v:groupContext="shape" transform="translate(663.64,407.212) rotate(179.9)">
			<title>Sheet.17</title>
			<path d="M0 244.79 L25.7 244.79" class="st1"/>
		</g>
		<g id="shape18-72" v:mID="18" v:groupContext="shape" transform="translate(661.09,438.951) rotate(179.502)">
			<title>Sheet.18</title>
			<path d="M0 244.79 L21.45 244.79" class="st1"/>
		</g>
		<g id="shape19-75" v:mID="19" v:groupContext="shape" transform="translate(392.909,227.579) rotate(-90.124)">
			<title>Sheet.19</title>
			<path d="M0 244.79 L85.85 244.79" class="st1"/>
		</g>
		<g id="shape20-78" v:mID="20" v:groupContext="shape" transform="translate(654.934,472.902) rotate(180)">
			<title>Sheet.20</title>
			<path d="M0 244.79 L17.74 244.79" class="st1"/>
		</g>
		<g id="shape21-81" v:mID="21" v:groupContext="shape" transform="translate(651.689,-71.6993)">
			<title>Rectangle.2427</title>
			<desc>descriptive</desc>
			<v:userDefs>
				<v:ud v:nameU="visVersion" v:val="VT0(11):26"/>
			</v:userDefs>
			<v:textBlock v:margins="rect(4,4,4,4)" v:tabSpace="42.5197"/>
			<v:textRect cx="42.5197" cy="234.163" width="85.04" height="21.2598"/>
			<g id="shadow21-82" v:groupContext="shadow" v:shadowOffsetX="2.12132" v:shadowOffsetY="-2.12132" v:shadowType="1"
					transform="matrix(1,0,0,1,2.12132,2.12132)" class="st2">
				<rect x="0" y="223.533" width="85.0394" height="21.2598" class="st3"/>
			</g>
			<rect x="0" y="223.533" width="85.0394" height="21.2598" class="st4"/>
			<text x="10.84" y="237.76" class="st7" v:langID="2057"><v:paragraph v:horizAlign="1"/><v:tabList/>descriptive</text>		</g>
		<g id="shape22-87" v:mID="22" v:groupContext="shape" transform="translate(651.689,-39.8095)">
			<title>Rectangle.2428</title>
			<desc>preservation</desc>
			<v:userDefs>
				<v:ud v:nameU="visVersion" v:val="VT0(11):26"/>
			</v:userDefs>
			<v:textBlock v:margins="rect(4,4,4,4)" v:tabSpace="42.5197"/>
			<v:textRect cx="42.5197" cy="234.163" width="85.04" height="21.2598"/>
			<g id="shadow22-88" v:groupContext="shadow" v:shadowOffsetX="2.12132" v:shadowOffsetY="-2.12132" v:shadowType="1"
					transform="matrix(1,0,0,1,2.12132,2.12132)" class="st2">
				<rect x="0" y="223.533" width="85.0394" height="21.2598" class="st3"/>
			</g>
			<rect x="0" y="223.533" width="85.0394" height="21.2598" class="st4"/>
			<text x="6.5" y="237.76" class="st7" v:langID="2057"><v:paragraph v:horizAlign="1"/><v:tabList/>preservation</text>		</g>
		<g id="shape23-93" v:mID="23" v:groupContext="shape" transform="translate(652.696,-6.24133)">
			<title>Rectangle.2429</title>
			<desc>other</desc>
			<v:userDefs>
				<v:ud v:nameU="visVersion" v:val="VT0(11):26"/>
			</v:userDefs>
			<v:textBlock v:margins="rect(4,4,4,4)" v:tabSpace="42.5197"/>
			<v:textRect cx="42.5197" cy="234.163" width="85.04" height="21.2598"/>
			<g id="shadow23-94" v:groupContext="shadow" v:shadowOffsetX="2.12132" v:shadowOffsetY="-2.12132" v:shadowType="1"
					transform="matrix(1,0,0,1,2.12132,2.12132)" class="st2">
				<rect x="0" y="223.533" width="85.0394" height="21.2598" class="st3"/>
			</g>
			<rect x="0" y="223.533" width="85.0394" height="21.2598" class="st4"/>
			<text x="27.52" y="237.76" class="st7" v:langID="2057"><v:paragraph v:horizAlign="1"/><v:tabList/>other</text>		</g>
		<g id="shape24-99" v:mID="24" v:groupContext="shape" transform="translate(611.541,47.3324) rotate(91.0167)">
			<title>Sheet.24</title>
			<path d="M0 244.79 L96.37 244.79" class="st1"/>
		</g>
		<g id="shape25-102" v:mID="25" v:groupContext="shape" transform="translate(301.864,-102.619)">
			<title>Rectangle.2458</title>
			<desc>Rep-002.1</desc>
			<v:userDefs>
				<v:ud v:nameU="visVersion" v:val="VT0(11):26"/>
			</v:userDefs>
			<v:textBlock v:margins="rect(4,4,4,4)" v:tabSpace="42.5197"/>
			<v:textRect cx="63.7795" cy="230.62" width="127.56" height="28.3465"/>
			<g id="shadow25-103" v:groupContext="shadow" v:shadowOffsetX="2.12132" v:shadowOffsetY="-2.12132" v:shadowType="1"
					transform="matrix(1,0,0,1,2.12132,2.12132)" class="st2">
				<rect x="0" y="216.447" width="127.559" height="28.3465" class="st3"/>
			</g>
			<rect x="0" y="216.447" width="127.559" height="28.3465" class="st4"/>
			<text x="35.43" y="234.22" class="st5" v:langID="2057"><v:paragraph v:horizAlign="1"/><v:tabList/>Rep-002.1</text>		</g>
		<g id="shape26-108" v:mID="26" v:groupContext="shape" transform="translate(302.876,-156.275)">
			<title>Rectangle.2478</title>
			<desc>Representations</desc>
			<v:userDefs>
				<v:ud v:nameU="visVersion" v:val="VT0(11):26"/>
			</v:userDefs>
			<v:textBlock v:margins="rect(4,4,4,4)" v:tabSpace="42.5197"/>
			<v:textRect cx="63.7795" cy="230.62" width="127.56" height="28.3465"/>
			<g id="shadow26-109" v:groupContext="shadow" v:shadowOffsetX="2.12132" v:shadowOffsetY="-2.12132" v:shadowType="1"
					transform="matrix(1,0,0,1,2.12132,2.12132)" class="st2">
				<rect x="0" y="216.447" width="127.559" height="28.3465" class="st3"/>
			</g>
			<rect x="0" y="216.447" width="127.559" height="28.3465" class="st4"/>
			<text x="16.77" y="234.22" class="st5" v:langID="2057"><v:paragraph v:horizAlign="1"/><v:tabList/>Representations</text>		</g>
		<g id="shape27-114" v:mID="27" v:groupContext="shape" transform="translate(257.74,123.783) rotate(-90.0706)">
			<title>Sheet.27</title>
			<path d="M0 244.79 L23.8 244.79" class="st1"/>
		</g>
		<g id="shape28-117" v:mID="28" v:groupContext="shape" transform="translate(570.55,142.05) rotate(-91.8953)">
			<title>Sheet.28</title>
			<path d="M0 244.79 L34.01 244.79" class="st1"/>
		</g>
		<g id="shape29-120" v:mID="29" v:groupContext="shape" transform="translate(613.675,-156.275)">
			<title>Rectangle.2481</title>
			<desc>submission</desc>
			<v:userDefs>
				<v:ud v:nameU="visVersion" v:val="VT0(11):26"/>
			</v:userDefs>
			<v:textBlock v:margins="rect(4,4,4,4)" v:tabSpace="42.5197"/>
			<v:textRect cx="63.7795" cy="230.62" width="127.56" height="28.3465"/>
			<g id="shadow29-121" v:groupContext="shadow" v:shadowOffsetX="2.12132" v:shadowOffsetY="-2.12132" v:shadowType="1"
					transform="matrix(1,0,0,1,2.12132,2.12132)" class="st2">
				<rect x="0" y="216.447" width="127.559" height="28.3465" class="st3"/>
			</g>
			<rect x="0" y="216.447" width="127.559" height="28.3465" class="st4"/>
			<text x="30.44" y="234.22" class="st5" v:langID="2057"><v:paragraph v:horizAlign="1"/><v:tabList/>submission</text>		</g>
		<g id="shape30-126" v:mID="30" v:groupContext="shape" transform="translate(812.942,344.758) rotate(-179.998)">
			<title>Sheet.30</title>
			<path d="M0 244.79 L308.6 244.79" class="st1"/>
		</g>
		<g id="shape31-129" v:mID="31" v:groupContext="shape" transform="translate(460.604,-76.824)">
			<title>Rectangle.2483</title>
			<v:userDefs>
				<v:ud v:nameU="visVersion" v:val="VT0(11):26"/>
			</v:userDefs>
			<v:textBlock v:margins="rect(4,4,4,4)" v:tabSpace="42.5197"/>
			<g id="shadow31-130" v:groupContext="shadow" v:shadowOffsetX="2.12132" v:shadowOffsetY="-2.12132" v:shadowType="1"
					transform="matrix(1,0,0,1,2.12132,2.12132)" class="st2">
				<rect x="0" y="188.556" width="130.394" height="56.237" class="st3"/>
			</g>
			<rect x="0" y="188.556" width="130.394" height="56.237" class="st4"/>
		</g>
		<g id="shape32-134" v:mID="32" v:groupContext="shape" transform="translate(462.296,-104.588)">
			<title>Rectangle.2484</title>
			<desc>METS.xml</desc>
			<v:userDefs>
				<v:ud v:nameU="visVersion" v:val="VT0(11):26"/>
			</v:userDefs>
			<v:textBlock v:margins="rect(4,4,4,4)" v:tabSpace="42.5197"/>
			<v:textRect cx="63.7795" cy="231.76" width="127.56" height="26.0673"/>
			<g id="shadow32-135" v:groupContext="shadow" v:shadowOffsetX="1.83697E-16" v:shadowOffsetY="-3" v:shadowType="1"
					transform="matrix(1,0,0,1,0,3)" class="st2">
				<rect x="0" y="218.726" width="127.559" height="26.0673" class="st3"/>
			</g>
			<rect x="0" y="218.726" width="127.559" height="26.0673" class="st6"/>
			<text x="35.11" y="235.36" class="st5" v:langID="2057"><v:paragraph v:horizAlign="1"/><v:tabList/>METS.xml</text>		</g>
		<g id="shape33-140" v:mID="33" v:groupContext="shape" transform="translate(755.706,-102.935)">
			<title>Rectangle.2485</title>
			<desc>representations</desc>
			<v:userDefs>
				<v:ud v:nameU="visVersion" v:val="VT0(11):26"/>
			</v:userDefs>
			<v:textBlock v:margins="rect(4,4,4,4)" v:tabSpace="42.5197"/>
			<v:textRect cx="63.7795" cy="230.62" width="127.56" height="28.3465"/>
			<g id="shadow33-141" v:groupContext="shadow" v:shadowOffsetX="2.12132" v:shadowOffsetY="-2.12132" v:shadowType="1"
					transform="matrix(1,0,0,1,2.12132,2.12132)" class="st2">
				<rect x="0" y="216.447" width="127.559" height="28.3465" class="st3"/>
			</g>
			<rect x="0" y="216.447" width="127.559" height="28.3465" class="st4"/>
			<text x="18.76" y="234.22" class="st5" v:langID="2057"><v:paragraph v:horizAlign="1"/><v:tabList/>representations</text>		</g>
		<g id="shape34-146" v:mID="34" v:groupContext="shape" transform="translate(610.84,-102.749)">
			<title>Rectangle.2487</title>
			<desc>metadata</desc>
			<v:userDefs>
				<v:ud v:nameU="visVersion" v:val="VT0(11):26"/>
			</v:userDefs>
			<v:textBlock v:margins="rect(4,4,4,4)" v:tabSpace="42.5197"/>
			<v:textRect cx="62.7874" cy="230.62" width="125.58" height="28.3465"/>
			<g id="shadow34-147" v:groupContext="shadow" v:shadowOffsetX="2.12132" v:shadowOffsetY="-2.12132" v:shadowType="1"
					transform="matrix(1,0,0,1,2.12132,2.12132)" class="st2">
				<rect x="0" y="216.447" width="125.575" height="28.3465" class="st3"/>
			</g>
			<rect x="0" y="216.447" width="125.575" height="28.3465" class="st4"/>
			<text x="36.44" y="234.22" class="st5" v:langID="2057"><v:paragraph v:horizAlign="1"/><v:tabList/>metadata</text>		</g>
		<g id="shape35-152" v:mID="35" v:groupContext="shape" transform="translate(808.774,409.48) rotate(179.9)">
			<title>Sheet.35</title>
			<path d="M0 244.79 L25.7 244.79" class="st1"/>
		</g>
		<g id="shape36-155" v:mID="36" v:groupContext="shape" transform="translate(806.224,441.219) rotate(179.502)">
			<title>Sheet.36</title>
			<path d="M0 244.79 L21.45 244.79" class="st1"/>
		</g>
		<g id="shape37-158" v:mID="37" v:groupContext="shape" transform="translate(538.397,198.76) rotate(-90.5721)">
			<title>Sheet.37</title>
			<path d="M0 244.79 L52.85 244.79" class="st1"/>
		</g>
		<g id="shape38-161" v:mID="38" v:groupContext="shape" transform="translate(796.823,-69.4316)">
			<title>Rectangle.2494</title>
			<desc>rep-001</desc>
			<v:userDefs>
				<v:ud v:nameU="visVersion" v:val="VT0(11):26"/>
			</v:userDefs>
			<v:textBlock v:margins="rect(4,4,4,4)" v:tabSpace="42.5197"/>
			<v:textRect cx="42.5197" cy="234.163" width="85.04" height="21.2598"/>
			<g id="shadow38-162" v:groupContext="shadow" v:shadowOffsetX="2.12132" v:shadowOffsetY="-2.12132" v:shadowType="1"
					transform="matrix(1,0,0,1,2.12132,2.12132)" class="st2">
				<rect x="0" y="223.533" width="85.0394" height="21.2598" class="st3"/>
			</g>
			<rect x="0" y="223.533" width="85.0394" height="21.2598" class="st4"/>
			<text x="21.17" y="237.76" class="st5" v:langID="2057"><v:paragraph v:horizAlign="1"/><v:tabList/>rep-001</text>		</g>
		<g id="shape39-167" v:mID="39" v:groupContext="shape" transform="translate(796.823,-37.5418)">
			<title>Rectangle.2495</title>
			<desc>rep-002</desc>
			<v:userDefs>
				<v:ud v:nameU="visVersion" v:val="VT0(11):26"/>
			</v:userDefs>
			<v:textBlock v:margins="rect(4,4,4,4)" v:tabSpace="42.5197"/>
			<v:textRect cx="42.5197" cy="234.163" width="85.04" height="21.2598"/>
			<g id="shadow39-168" v:groupContext="shadow" v:shadowOffsetX="2.12132" v:shadowOffsetY="-2.12132" v:shadowType="1"
					transform="matrix(1,0,0,1,2.12132,2.12132)" class="st2">
				<rect x="0" y="223.533" width="85.0394" height="21.2598" class="st3"/>
			</g>
			<rect x="0" y="223.533" width="85.0394" height="21.2598" class="st4"/>
			<text x="21.17" y="237.76" class="st5" v:langID="2057"><v:paragraph v:horizAlign="1"/><v:tabList/>rep-002</text>		</g>
	</g>
</svg>
