<?xml version="1.0" encoding="UTF-8" standalone="no"?>
<!DOCTYPE svg PUBLIC "-//W3C//DTD SVG 1.1//EN" "http://www.w3.org/Graphics/SVG/1.1/DTD/svg11.dtd">
<!-- Generated by Microsoft Visio, SVG Export Fig3 AIPb.svg Page-1 -->
<svg xmlns="http://www.w3.org/2000/svg" xmlns:xlink="http://www.w3.org/1999/xlink" xmlns:ev="http://www.w3.org/2001/xml-events"
		xmlns:v="http://schemas.microsoft.com/visio/2003/SVGExtensions/" width="23.8031in" height="11.6929in"
		viewBox="0 0 1713.83 841.89" xml:space="preserve" color-interpolation-filters="sRGB" class="st9">
	<v:documentProperties v:langID="2057" v:metric="true" v:viewMarkup="false">
		<v:userDefs>
			<v:ud v:nameU="msvNoAutoConnect" v:val="VT0(1):26"/>
		</v:userDefs>
	</v:documentProperties>

	<style type="text/css">
	<![CDATA[
		.st1 {stroke:#000000;stroke-linecap:round;stroke-linejoin:round;stroke-width:2.25}
		.st2 {visibility:visible}
		.st3 {fill:#000000;fill-opacity:0.4;filter:url(#filter_2.6666667461395);stroke:#000000;stroke-linecap:round;stroke-linejoin:round;stroke-opacity:0.4}
		.st4 {fill:#c6d8f0;stroke:#000000;stroke-linecap:round;stroke-linejoin:round;stroke-width:0.24}
		.st5 {fill:#000000;font-family:Arial;font-size:1.00001em;font-weight:bold}
		.st6 {font-size:1em}
		.st7 {fill:#000000;font-family:Arial;font-size:1.00001em;font-style:italic;font-weight:bold}
		.st8 {fill:#c6d8f0;stroke:#000000;stroke-linecap:round;stroke-linejoin:round;stroke-opacity:0;stroke-width:0.24}
		.st9 {fill:none;fill-rule:evenodd;font-size:12px;overflow:visible;stroke-linecap:square;stroke-miterlimit:3}
	]]>
	</style>

	<defs id="Filters">
		<filter id="filter_2.6666667461395">
			<feGaussianBlur stdDeviation="2.6666667461395"/>
		</filter>
	</defs>
	<g v:mID="0" v:index="1" v:groupContext="foregroundPage">
		<title>Page-1</title>
		<v:pageProperties v:drawingScale="0.0393701" v:pageScale="0.0393701" v:drawingUnits="24" v:shadowOffsetX="8.50394"
				v:shadowOffsetY="-8.50394"/>
		<g id="shape1-1" v:mID="1" v:groupContext="shape" transform="translate(252.572,453.398) rotate(-90.4553)">
			<title>Sheet.1</title>
			<path d="M0 841.89 L72.34 841.89" class="st1"/>
		</g>
		<g id="shape2-4" v:mID="2" v:groupContext="shape" transform="translate(73.2383,439.372) rotate(-90)">
			<title>Sheet.2</title>
			<path d="M0 841.89 L65.48 841.89" class="st1"/>
		</g>
		<g id="shape3-7" v:mID="3" v:groupContext="shape" transform="translate(921.032,1324.18) rotate(179.9)">
			<title>Sheet.3</title>
			<path d="M0 841.89 L25.7 841.89" class="st1"/>
		</g>
		<g id="shape4-10" v:mID="4" v:groupContext="shape" transform="translate(922.635,1355.9) rotate(179.502)">
			<title>Sheet.4</title>
			<path d="M0 841.89 L21.45 841.89" class="st1"/>
		</g>
		<g id="shape5-13" v:mID="5" v:groupContext="shape" transform="translate(814.472,-539.837)">
			<title>Rectangle.678</title>
			<desc>IP</desc>
			<v:userDefs>
				<v:ud v:nameU="visVersion" v:val="VT0(11):26"/>
			</v:userDefs>
			<v:textBlock v:margins="rect(4,4,4,4)" v:tabSpace="42.5197"/>
			<v:textRect cx="63.7795" cy="827.717" width="127.56" height="28.3465"/>
			<g id="shadow5-14" v:groupContext="shadow" v:shadowOffsetX="2.12132" v:shadowOffsetY="-2.12132" v:shadowType="1"
					transform="matrix(1,0,0,1,2.12132,2.12132)" class="st2">
				<rect x="0" y="813.543" width="127.559" height="28.3465" class="st3"/>
			</g>
			<rect x="0" y="813.543" width="127.559" height="28.3465" class="st4"/>
			<text x="58.11" y="831.32" class="st5" v:langID="2057"><v:paragraph v:horizAlign="1"/><v:tabList/>IP</text>		</g>
		<g id="shape6-19" v:mID="6" v:groupContext="shape" transform="translate(605.093,-524.047) rotate(0.137872)">
			<title>Sheet.6</title>
			<path d="M0 841.89 L405.19 841.89" class="st1"/>
		</g>
		<g id="shape7-22" v:mID="7" v:groupContext="shape" transform="translate(52.1662,548.746) rotate(-90.124)">
			<title>Sheet.7</title>
			<path d="M0 841.89 L85.85 841.89" class="st1"/>
		</g>
		<g id="shape8-25" v:mID="8" v:groupContext="shape" transform="translate(-238.823,332.014) rotate(-90)">
			<title>Sheet.8</title>
			<path d="M0 841.89 L14.17 841.89" class="st1"/>
		</g>
		<g id="shape9-28" v:mID="9" v:groupContext="shape" transform="translate(944.475,-481.977)">
			<title>Rectangle.686</title>
			<desc>representations</desc>
			<v:userDefs>
				<v:ud v:nameU="visVersion" v:val="VT0(11):26"/>
			</v:userDefs>
			<v:textBlock v:margins="rect(4,4,4,4)" v:tabSpace="42.5197"/>
			<v:textRect cx="63.7795" cy="827.717" width="127.56" height="28.3465"/>
			<g id="shadow9-29" v:groupContext="shadow" v:shadowOffsetX="2.12132" v:shadowOffsetY="-2.12132" v:shadowType="1"
					transform="matrix(1,0,0,1,2.12132,2.12132)" class="st2">
				<rect x="0" y="813.543" width="127.559" height="28.3465" class="st3"/>
			</g>
			<rect x="0" y="813.543" width="127.559" height="28.3465" class="st4"/>
			<text x="18.76" y="831.32" class="st5" v:langID="2057"><v:paragraph v:horizAlign="1"/><v:tabList/>representations</text>		</g>
		<g id="shape10-34" v:mID="10" v:groupContext="shape" transform="translate(166.365,331.566) rotate(-90)">
			<title>Sheet.10</title>
			<path d="M0 841.89 L13.03 841.89" class="st1"/>
		</g>
		<g id="shape11-37" v:mID="11" v:groupContext="shape" transform="translate(539.287,-335.137)">
			<title>Rectangle.688</title>
			<desc>METS.xml representations rep-001 file1.odt file2.odt file3.od...</desc>
			<v:userDefs>
				<v:ud v:nameU="visVersion" v:val="VT0(11):26"/>
			</v:userDefs>
			<v:textBlock v:margins="rect(4,4,4,4)" v:tabSpace="42.5197"/>
			<v:textRect cx="63.7795" cy="754.52" width="127.56" height="174.739"/>
			<g id="shadow11-38" v:groupContext="shadow" v:shadowOffsetX="2.12132" v:shadowOffsetY="-2.12132" v:shadowType="1"
					transform="matrix(1,0,0,1,2.12132,2.12132)" class="st2">
				<rect x="0" y="667.151" width="127.559" height="174.739" class="st3"/>
			</g>
			<rect x="0" y="667.151" width="127.559" height="174.739" class="st4"/>
			<text x="30.67" y="684.92" class="st5" v:langID="2057"><v:paragraph/><v:tabList/><v:newlineChar/>METS.xml<tspan x="4"
						dy="2.4em" class="st6"> </tspan>representations<tspan x="4" dy="1.2em" class="st6"> </tspan>rep-001<tspan
						x="4" dy="1.2em" class="st6">   </tspan>file1.odt<tspan x="4" dy="1.2em" class="st6">   </tspan>file2.odt<v:newlineChar/><tspan
						x="4" dy="1.2em" class="st6">   </tspan>file3.odt <tspan x="4" dy="1.4em" class="st6"> </tspan>rep-002<tspan
						x="4" dy="1.2em" class="st6">   </tspan>file1.pdf<tspan x="4" dy="1.2em" class="st6">   </tspan>file2.pdf<tspan
						x="4" dy="1.2em" class="st6">   </tspan>file3.pdf<v:newlineChar/></text>		</g>
		<g id="shape12-52" v:mID="12" v:groupContext="shape" transform="translate(688.106,-481.529)">
			<title>Rectangle.689</title>
			<desc>metadata</desc>
			<v:userDefs>
				<v:ud v:nameU="visVersion" v:val="VT0(11):26"/>
			</v:userDefs>
			<v:textBlock v:margins="rect(4,4,4,4)" v:tabSpace="42.5197"/>
			<v:textRect cx="63.7795" cy="827.717" width="127.56" height="28.3465"/>
			<g id="shadow12-53" v:groupContext="shadow" v:shadowOffsetX="2.12132" v:shadowOffsetY="-2.12132" v:shadowType="1"
					transform="matrix(1,0,0,1,2.12132,2.12132)" class="st2">
				<rect x="0" y="813.543" width="127.559" height="28.3465" class="st3"/>
			</g>
			<rect x="0" y="813.543" width="127.559" height="28.3465" class="st4"/>
			<text x="37.44" y="831.32" class="st5" v:langID="2057"><v:paragraph v:horizAlign="1"/><v:tabList/>metadata</text>		</g>
		<g id="shape13-58" v:mID="13" v:groupContext="shape" transform="translate(-90.0039,332.014) rotate(-90)">
			<title>Sheet.13</title>
			<path d="M0 841.89 L14.17 841.89" class="st1"/>
		</g>
		<g id="shape14-61" v:mID="14" v:groupContext="shape" transform="translate(852.766,-425.437)">
			<title>Rectangle.700</title>
			<desc>rep-001</desc>
			<v:userDefs>
				<v:ud v:nameU="visVersion" v:val="VT0(11):26"/>
			</v:userDefs>
			<v:textBlock v:margins="rect(4,4,4,4)" v:tabSpace="42.5197"/>
			<v:textRect cx="63.7795" cy="827.721" width="127.56" height="28.3378"/>
			<g id="shadow14-62" v:groupContext="shadow" v:shadowOffsetX="2.12132" v:shadowOffsetY="-2.12132" v:shadowType="1"
					transform="matrix(1,0,0,1,2.12132,2.12132)" class="st2">
				<rect x="0" y="813.552" width="127.559" height="28.3378" class="st3"/>
			</g>
			<rect x="0" y="813.552" width="127.559" height="28.3378" class="st4"/>
			<text x="42.43" y="831.32" class="st5" v:langID="2057"><v:paragraph v:horizAlign="1"/><v:tabList/>rep-001</text>		</g>
		<g id="shape15-67" v:mID="15" v:groupContext="shape" transform="translate(1031.18,-423.769)">
			<title>Rectangle.701</title>
			<desc>rep-002</desc>
			<v:userDefs>
				<v:ud v:nameU="visVersion" v:val="VT0(11):26"/>
			</v:userDefs>
			<v:textBlock v:margins="rect(4,4,4,4)" v:tabSpace="42.5197"/>
			<v:textRect cx="63.7795" cy="827.717" width="127.56" height="28.3465"/>
			<g id="shadow15-68" v:groupContext="shadow" v:shadowOffsetX="2.12132" v:shadowOffsetY="-2.12132" v:shadowType="1"
					transform="matrix(1,0,0,1,2.12132,2.12132)" class="st2">
				<rect x="0" y="813.543" width="127.559" height="28.3465" class="st3"/>
			</g>
			<rect x="0" y="813.543" width="127.559" height="28.3465" class="st4"/>
			<text x="42.43" y="831.32" class="st5" v:langID="2057"><v:paragraph v:horizAlign="1"/><v:tabList/>rep-002</text>		</g>
		<g id="shape16-73" v:mID="16" v:groupContext="shape" transform="translate(911.286,1389.87) rotate(180)">
			<title>Sheet.16</title>
			<path d="M0 841.89 L17.74 841.89" class="st1"/>
		</g>
		<g id="shape17-76" v:mID="17" v:groupContext="shape" transform="translate(166.891,392.893) rotate(-91.2797)">
			<title>Sheet.17</title>
			<path d="M0 841.89 L14.18 841.89" class="st1"/>
		</g>
		<g id="shape18-79" v:mID="18" v:groupContext="shape" transform="translate(874.026,-380.811)">
			<title>Rectangle.705</title>
			<desc>data</desc>
			<v:userDefs>
				<v:ud v:nameU="visVersion" v:val="VT0(11):26"/>
			</v:userDefs>
			<v:textBlock v:margins="rect(4,4,4,4)" v:tabSpace="42.5197"/>
			<v:textRect cx="45.3543" cy="827.717" width="90.71" height="28.3465"/>
			<g id="shadow18-80" v:groupContext="shadow" v:shadowOffsetX="2.12132" v:shadowOffsetY="-2.12132" v:shadowType="1"
					transform="matrix(1,0,0,1,2.12132,2.12132)" class="st2">
				<rect x="0" y="813.543" width="90.7087" height="28.3465" class="st3"/>
			</g>
			<rect x="0" y="813.543" width="90.7087" height="28.3465" class="st4"/>
			<text x="33.02" y="831.32" class="st5" v:langID="2057"><v:paragraph v:horizAlign="1"/><v:tabList/>data</text>		</g>
		<g id="shape19-85" v:mID="19" v:groupContext="shape" transform="translate(908.041,-348.921)">
			<title>Rectangle.709</title>
			<desc>file1.odt</desc>
			<v:userDefs>
				<v:ud v:nameU="visVersion" v:val="VT0(11):26"/>
			</v:userDefs>
			<v:textBlock v:margins="rect(4,4,4,4)" v:tabSpace="42.5197"/>
			<v:textRect cx="42.5197" cy="831.26" width="85.04" height="21.2598"/>
			<g id="shadow19-86" v:groupContext="shadow" v:shadowOffsetX="2.12132" v:shadowOffsetY="-2.12132" v:shadowType="1"
					transform="matrix(1,0,0,1,2.12132,2.12132)" class="st2">
				<rect x="0" y="820.63" width="85.0394" height="21.2598" class="st3"/>
			</g>
			<rect x="0" y="820.63" width="85.0394" height="21.2598" class="st4"/>
			<text x="19.52" y="834.86" class="st7" v:langID="2057"><v:paragraph v:horizAlign="1"/><v:tabList/>file1.odt</text>		</g>
		<g id="shape20-91" v:mID="20" v:groupContext="shape" transform="translate(908.041,-317.031)">
			<title>Rectangle.710</title>
			<desc>file2.odt</desc>
			<v:userDefs>
				<v:ud v:nameU="visVersion" v:val="VT0(11):26"/>
			</v:userDefs>
			<v:textBlock v:margins="rect(4,4,4,4)" v:tabSpace="42.5197"/>
			<v:textRect cx="42.5197" cy="831.26" width="85.04" height="21.2598"/>
			<g id="shadow20-92" v:groupContext="shadow" v:shadowOffsetX="2.12132" v:shadowOffsetY="-2.12132" v:shadowType="1"
					transform="matrix(1,0,0,1,2.12132,2.12132)" class="st2">
				<rect x="0" y="820.63" width="85.0394" height="21.2598" class="st3"/>
			</g>
			<rect x="0" y="820.63" width="85.0394" height="21.2598" class="st4"/>
			<text x="19.52" y="834.86" class="st7" v:langID="2057"><v:paragraph v:horizAlign="1"/><v:tabList/>file2.odt</text>		</g>
		<g id="shape21-97" v:mID="21" v:groupContext="shape" transform="translate(36.3621,316.226) rotate(-90)">
			<title>Sheet.21</title>
			<path d="M0 841.89 L14.17 841.89" class="st1"/>
		</g>
		<g id="shape22-100" v:mID="22" v:groupContext="shape" transform="translate(909.048,-283.463)">
			<title>Rectangle.774</title>
			<desc>file3.odt</desc>
			<v:userDefs>
				<v:ud v:nameU="visVersion" v:val="VT0(11):26"/>
			</v:userDefs>
			<v:textBlock v:margins="rect(4,4,4,4)" v:tabSpace="42.5197"/>
			<v:textRect cx="42.5197" cy="831.26" width="85.04" height="21.2598"/>
			<g id="shadow22-101" v:groupContext="shadow" v:shadowOffsetX="2.12132" v:shadowOffsetY="-2.12132" v:shadowType="1"
					transform="matrix(1,0,0,1,2.12132,2.12132)" class="st2">
				<rect x="0" y="820.63" width="85.0394" height="21.2598" class="st3"/>
			</g>
			<rect x="0" y="820.63" width="85.0394" height="21.2598" class="st4"/>
			<text x="19.52" y="834.86" class="st7" v:langID="2057"><v:paragraph v:horizAlign="1"/><v:tabList/>file3.odt</text>		</g>
		<g id="shape23-106" v:mID="23" v:groupContext="shape" transform="translate(1097.51,1327.27) rotate(179.9)">
			<title>Sheet.23</title>
			<path d="M0 841.89 L25.7 841.89" class="st1"/>
		</g>
		<g id="shape24-109" v:mID="24" v:groupContext="shape" transform="translate(1099.11,1358.98) rotate(179.502)">
			<title>Sheet.24</title>
			<path d="M0 841.89 L21.45 841.89" class="st1"/>
		</g>
		<g id="shape25-112" v:mID="25" v:groupContext="shape" transform="translate(228.639,551.831) rotate(-90.124)">
			<title>Sheet.25</title>
			<path d="M0 841.89 L85.85 841.89" class="st1"/>
		</g>
		<g id="shape26-115" v:mID="26" v:groupContext="shape" transform="translate(1087.76,1392.96) rotate(180)">
			<title>Sheet.26</title>
			<path d="M0 841.89 L17.74 841.89" class="st1"/>
		</g>
		<g id="shape27-118" v:mID="27" v:groupContext="shape" transform="translate(1050.5,-377.726)">
			<title>Rectangle.781</title>
			<desc>data</desc>
			<v:userDefs>
				<v:ud v:nameU="visVersion" v:val="VT0(11):26"/>
			</v:userDefs>
			<v:textBlock v:margins="rect(4,4,4,4)" v:tabSpace="42.5197"/>
			<v:textRect cx="45.3543" cy="827.717" width="90.71" height="28.3465"/>
			<g id="shadow27-119" v:groupContext="shadow" v:shadowOffsetX="2.12132" v:shadowOffsetY="-2.12132" v:shadowType="1"
					transform="matrix(1,0,0,1,2.12132,2.12132)" class="st2">
				<rect x="0" y="813.543" width="90.7087" height="28.3465" class="st3"/>
			</g>
			<rect x="0" y="813.543" width="90.7087" height="28.3465" class="st4"/>
			<text x="33.02" y="831.32" class="st5" v:langID="2057"><v:paragraph v:horizAlign="1"/><v:tabList/>data</text>		</g>
		<g id="shape28-124" v:mID="28" v:groupContext="shape" transform="translate(1084.51,-345.836)">
			<title>Rectangle.782</title>
			<desc>file1.pdf</desc>
			<v:userDefs>
				<v:ud v:nameU="visVersion" v:val="VT0(11):26"/>
			</v:userDefs>
			<v:textBlock v:margins="rect(4,4,4,4)" v:tabSpace="42.5197"/>
			<v:textRect cx="42.5197" cy="831.26" width="85.04" height="21.2598"/>
			<g id="shadow28-125" v:groupContext="shadow" v:shadowOffsetX="2.12132" v:shadowOffsetY="-2.12132" v:shadowType="1"
					transform="matrix(1,0,0,1,2.12132,2.12132)" class="st2">
				<rect x="0" y="820.63" width="85.0394" height="21.2598" class="st3"/>
			</g>
			<rect x="0" y="820.63" width="85.0394" height="21.2598" class="st4"/>
			<text x="19.52" y="834.86" class="st7" v:langID="2057"><v:paragraph v:horizAlign="1"/><v:tabList/>file1.pdf</text>		</g>
		<g id="shape29-130" v:mID="29" v:groupContext="shape" transform="translate(1084.51,-313.946)">
			<title>Rectangle.783</title>
			<desc>file2.pdf</desc>
			<v:userDefs>
				<v:ud v:nameU="visVersion" v:val="VT0(11):26"/>
			</v:userDefs>
			<v:textBlock v:margins="rect(4,4,4,4)" v:tabSpace="42.5197"/>
			<v:textRect cx="42.5197" cy="831.26" width="85.04" height="21.2598"/>
			<g id="shadow29-131" v:groupContext="shadow" v:shadowOffsetX="2.12132" v:shadowOffsetY="-2.12132" v:shadowType="1"
					transform="matrix(1,0,0,1,2.12132,2.12132)" class="st2">
				<rect x="0" y="820.63" width="85.0394" height="21.2598" class="st3"/>
			</g>
			<rect x="0" y="820.63" width="85.0394" height="21.2598" class="st4"/>
			<text x="19.52" y="834.86" class="st7" v:langID="2057"><v:paragraph v:horizAlign="1"/><v:tabList/>file2.pdf</text>		</g>
		<g id="shape30-136" v:mID="30" v:groupContext="shape" transform="translate(1085.52,-280.378)">
			<title>Rectangle.784</title>
			<desc>file3.pdf</desc>
			<v:userDefs>
				<v:ud v:nameU="visVersion" v:val="VT0(11):26"/>
			</v:userDefs>
			<v:textBlock v:margins="rect(4,4,4,4)" v:tabSpace="42.5197"/>
			<v:textRect cx="42.5197" cy="831.26" width="85.04" height="21.2598"/>
			<g id="shadow30-137" v:groupContext="shadow" v:shadowOffsetX="2.12132" v:shadowOffsetY="-2.12132" v:shadowType="1"
					transform="matrix(1,0,0,1,2.12132,2.12132)" class="st2">
				<rect x="0" y="820.63" width="85.0394" height="21.2598" class="st3"/>
			</g>
			<rect x="0" y="820.63" width="85.0394" height="21.2598" class="st4"/>
			<text x="19.52" y="834.86" class="st7" v:langID="2057"><v:paragraph v:horizAlign="1"/><v:tabList/>file3.pdf</text>		</g>
		<g id="shape31-142" v:mID="31" v:groupContext="shape" transform="translate(741.46,1223.1) rotate(179.9)">
			<title>Sheet.31</title>
			<path d="M0 841.89 L25.7 841.89" class="st1"/>
		</g>
		<g id="shape32-145" v:mID="32" v:groupContext="shape" transform="translate(743.063,1254.81) rotate(179.502)">
			<title>Sheet.32</title>
			<path d="M0 841.89 L21.45 841.89" class="st1"/>
		</g>
		<g id="shape33-148" v:mID="33" v:groupContext="shape" transform="translate(-127.406,447.66) rotate(-90.124)">
			<title>Sheet.33</title>
			<path d="M0 841.89 L85.85 841.89" class="st1"/>
		</g>
		<g id="shape34-151" v:mID="34" v:groupContext="shape" transform="translate(731.714,1288.79) rotate(180)">
			<title>Sheet.34</title>
			<path d="M0 841.89 L17.74 841.89" class="st1"/>
		</g>
		<g id="shape35-154" v:mID="35" v:groupContext="shape" transform="translate(728.469,-450.007)">
			<title>Rectangle.790</title>
			<desc>descriptive</desc>
			<v:userDefs>
				<v:ud v:nameU="visVersion" v:val="VT0(11):26"/>
			</v:userDefs>
			<v:textBlock v:margins="rect(4,4,4,4)" v:tabSpace="42.5197"/>
			<v:textRect cx="42.5197" cy="831.26" width="85.04" height="21.2598"/>
			<g id="shadow35-155" v:groupContext="shadow" v:shadowOffsetX="2.12132" v:shadowOffsetY="-2.12132" v:shadowType="1"
					transform="matrix(1,0,0,1,2.12132,2.12132)" class="st2">
				<rect x="0" y="820.63" width="85.0394" height="21.2598" class="st3"/>
			</g>
			<rect x="0" y="820.63" width="85.0394" height="21.2598" class="st4"/>
			<text x="10.84" y="834.86" class="st5" v:langID="2057"><v:paragraph v:horizAlign="1"/><v:tabList/>descriptive</text>		</g>
		<g id="shape36-160" v:mID="36" v:groupContext="shape" transform="translate(728.469,-418.117)">
			<title>Rectangle.791</title>
			<desc>preservation</desc>
			<v:userDefs>
				<v:ud v:nameU="visVersion" v:val="VT0(11):26"/>
			</v:userDefs>
			<v:textBlock v:margins="rect(4,4,4,4)" v:tabSpace="42.5197"/>
			<v:textRect cx="42.5197" cy="831.26" width="85.04" height="21.2598"/>
			<g id="shadow36-161" v:groupContext="shadow" v:shadowOffsetX="2.12132" v:shadowOffsetY="-2.12132" v:shadowType="1"
					transform="matrix(1,0,0,1,2.12132,2.12132)" class="st2">
				<rect x="0" y="820.63" width="85.0394" height="21.2598" class="st3"/>
			</g>
			<rect x="0" y="820.63" width="85.0394" height="21.2598" class="st4"/>
			<text x="6.5" y="834.86" class="st5" v:langID="2057"><v:paragraph v:horizAlign="1"/><v:tabList/>preservation</text>		</g>
		<g id="shape37-166" v:mID="37" v:groupContext="shape" transform="translate(729.476,-384.549)">
			<title>Rectangle.792</title>
			<desc>other</desc>
			<v:userDefs>
				<v:ud v:nameU="visVersion" v:val="VT0(11):26"/>
			</v:userDefs>
			<v:textBlock v:margins="rect(4,4,4,4)" v:tabSpace="42.5197"/>
			<v:textRect cx="42.5197" cy="831.26" width="85.04" height="21.2598"/>
			<g id="shadow37-167" v:groupContext="shadow" v:shadowOffsetX="2.12132" v:shadowOffsetY="-2.12132" v:shadowType="1"
					transform="matrix(1,0,0,1,2.12132,2.12132)" class="st2">
				<rect x="0" y="820.63" width="85.0394" height="21.2598" class="st3"/>
			</g>
			<rect x="0" y="820.63" width="85.0394" height="21.2598" class="st4"/>
			<text x="27.52" y="834.86" class="st5" v:langID="2057"><v:paragraph v:horizAlign="1"/><v:tabList/>other</text>		</g>
		<g id="shape38-172" v:mID="38" v:groupContext="shape" transform="translate(1098.28,1215.12) rotate(179.699)">
			<title>Sheet.38</title>
			<path d="M0 841.89 L178.83 841.89" class="st1"/>
		</g>
		<g id="shape39-175" v:mID="39" v:groupContext="shape" transform="translate(539.121,-483.389)">
			<title>Rectangle.2390</title>
			<desc>METS.xml</desc>
			<v:userDefs>
				<v:ud v:nameU="visVersion" v:val="VT0(11):26"/>
			</v:userDefs>
			<v:textBlock v:margins="rect(4,4,4,4)" v:tabSpace="42.5197"/>
			<v:textRect cx="63.8441" cy="826.948" width="127.69" height="29.8834"/>
			<g id="shadow39-176" v:groupContext="shadow" v:shadowOffsetX="1.83697E-16" v:shadowOffsetY="-3" v:shadowType="1"
					transform="matrix(1,0,0,1,0,3)" class="st2">
				<rect x="0" y="812.006" width="127.688" height="29.8834" class="st3"/>
			</g>
			<rect x="0" y="812.006" width="127.688" height="29.8834" class="st8"/>
			<text x="35.17" y="830.55" class="st5" v:langID="2057"><v:paragraph v:horizAlign="1"/><v:tabList/>METS.xml</text>		</g>
	</g>
</svg>
