<?xml version="1.0" encoding="UTF-8" standalone="no"?>
<!DOCTYPE svg PUBLIC "-//W3C//DTD SVG 1.1//EN" "http://www.w3.org/Graphics/SVG/1.1/DTD/svg11.dtd">
<!-- Generated by Microsoft Visio, SVG Export Fig12 AIPb.svg Page-1 -->
<svg xmlns="http://www.w3.org/2000/svg" xmlns:xlink="http://www.w3.org/1999/xlink" xmlns:ev="http://www.w3.org/2001/xml-events"
		xmlns:v="http://schemas.microsoft.com/visio/2003/SVGExtensions/" width="23.8031in" height="11.6929in"
		viewBox="0 0 1713.83 841.89" xml:space="preserve" color-interpolation-filters="sRGB" class="st9">
	<v:documentProperties v:langID="2057" v:metric="true" v:viewMarkup="false">
		<v:userDefs>
			<v:ud v:nameU="msvNoAutoConnect" v:val="VT0(1):26"/>
		</v:userDefs>
	</v:documentProperties>

	<style type="text/css">
	<![CDATA[
		.st1 {stroke:#000000;stroke-linecap:round;stroke-linejoin:round;stroke-width:2.25}
		.st2 {visibility:visible}
		.st3 {fill:#000000;fill-opacity:0.4;filter:url(#filter_2.6666667461395);stroke:#000000;stroke-linecap:round;stroke-linejoin:round;stroke-opacity:0.4}
		.st4 {fill:#c6d8f0;stroke:#000000;stroke-linecap:round;stroke-linejoin:round;stroke-width:0.24}
		.st5 {fill:#000000;font-family:Arial;font-size:1.00001em;font-weight:bold}
		.st6 {font-size:1em}
		.st7 {fill:#c6d8f0;stroke:#000000;stroke-linecap:round;stroke-linejoin:round;stroke-opacity:0;stroke-width:0.24}
		.st8 {fill:#000000;font-family:Arial;font-size:1.00001em;font-style:italic;font-weight:bold}
		.st9 {fill:none;fill-rule:evenodd;font-size:12px;overflow:visible;stroke-linecap:square;stroke-miterlimit:3}
	]]>
	</style>

	<defs id="Filters">
		<filter id="filter_2.6666667461395">
			<feGaussianBlur stdDeviation="2.6666667461395"/>
		</filter>
	</defs>
	<g v:mID="0" v:index="1" v:groupContext="foregroundPage">
		<title>Page-1</title>
		<v:pageProperties v:drawingScale="0.0393701" v:pageScale="0.0393701" v:drawingUnits="24" v:shadowOffsetX="8.50394"
				v:shadowOffsetY="-8.50394"/>
		<g id="shape1-1" v:mID="1" v:groupContext="shape" transform="translate(-142.875,496.744) rotate(-90.284)">
			<title>Sheet.1</title>
			<path d="M0 841.89 L65.42 841.89" class="st1"/>
		</g>
		<g id="shape2-4" v:mID="2" v:groupContext="shape" transform="translate(167.226,317.51) rotate(-90.3136)">
			<title>Sheet.2</title>
			<path d="M0 841.89 L57.4 841.89" class="st1"/>
		</g>
		<g id="shape3-7" v:mID="3" v:groupContext="shape" transform="translate(579.459,-600.351)">
			<title>Rectangle.1289</title>
			<desc>AIP</desc>
			<v:userDefs>
				<v:ud v:nameU="visVersion" v:val="VT0(11):26"/>
			</v:userDefs>
			<v:textBlock v:margins="rect(4,4,4,4)" v:tabSpace="42.5197"/>
			<v:textRect cx="63.7795" cy="827.717" width="127.56" height="28.3465"/>
			<g id="shadow3-8" v:groupContext="shadow" v:shadowOffsetX="2.12132" v:shadowOffsetY="-2.12132" v:shadowType="1"
					transform="matrix(1,0,0,1,2.12132,2.12132)" class="st2">
				<rect x="0" y="813.543" width="127.559" height="28.3465" class="st3"/>
			</g>
			<rect x="0" y="813.543" width="127.559" height="28.3465" class="st4"/>
			<text x="53.78" y="831.32" class="st5" v:langID="2057"><v:paragraph v:horizAlign="1"/><v:tabList/>AIP</text>		</g>
		<g id="shape4-13" v:mID="4" v:groupContext="shape" transform="translate(265.261,-586.951)">
			<title>Sheet.4</title>
			<path d="M0 841.89 L743.53 841.89" class="st1"/>
		</g>
		<g id="shape5-16" v:mID="5" v:groupContext="shape" transform="translate(-576.048,270.309) rotate(-90)">
			<title>Sheet.5</title>
			<path d="M0 841.89 L14.17 841.89" class="st1"/>
		</g>
		<g id="shape6-19" v:mID="6" v:groupContext="shape" transform="translate(137.135,-497.943)">
			<title>Rectangle.1292</title>
			<desc>METS.xml submission/METS.xml (obsolete) metadata/submission/M...</desc>
			<v:userDefs>
				<v:ud v:nameU="visVersion" v:val="VT0(11):26"/>
			</v:userDefs>
			<v:textBlock v:margins="rect(4,4,4,4)" v:tabSpace="42.5197"/>
			<v:textRect cx="125.18" cy="805.037" width="250.36" height="73.7053"/>
			<g id="shadow6-20" v:groupContext="shadow" v:shadowOffsetX="2.12132" v:shadowOffsetY="-2.12132" v:shadowType="1"
					transform="matrix(1,0,0,1,2.12132,2.12132)" class="st2">
				<rect x="0" y="768.184" width="250.36" height="73.7053" class="st3"/>
			</g>
			<rect x="0" y="768.184" width="250.36" height="73.7053" class="st4"/>
			<text x="80.68" y="790.64" class="st5" v:langID="2057"><v:paragraph/><v:tabList/><v:newlineChar/>METS.xml<tspan x="4"
						dy="1.8em" class="st6"> </tspan>submission/METS.xml (obsolete)<tspan x="4" dy="1.2em" class="st6"> </tspan>metadata/submission/METS.xml (current)<v:newlineChar/></text>		</g>
		<g id="shape7-27" v:mID="7" v:groupContext="shape" transform="translate(-198.699,249.443) rotate(-89.7213)">
			<title>Sheet.7</title>
			<path d="M0 841.89 L12 841.89" class="st1"/>
		</g>
		<g id="shape8-30" v:mID="8" v:groupContext="shape" transform="translate(137.702,-543.39)">
			<title>Rectangle.1303</title>
			<desc>METS.xml</desc>
			<v:userDefs>
				<v:ud v:nameU="visVersion" v:val="VT0(11):26"/>
			</v:userDefs>
			<v:textBlock v:margins="rect(4,4,4,4)" v:tabSpace="42.5197"/>
			<v:textRect cx="125.188" cy="826.817" width="250.38" height="30.1446"/>
			<g id="shadow8-31" v:groupContext="shadow" v:shadowOffsetX="1.83697E-16" v:shadowOffsetY="-3" v:shadowType="1"
					transform="matrix(1,0,0,1,0,3)" class="st2">
				<rect x="0" y="811.745" width="250.377" height="30.1446" class="st3"/>
			</g>
			<rect x="0" y="811.745" width="250.377" height="30.1446" class="st7"/>
			<text x="96.52" y="830.42" class="st5" v:langID="2057"><v:paragraph v:horizAlign="1"/><v:tabList/>METS.xml</text>		</g>
		<g id="shape9-36" v:mID="9" v:groupContext="shape" transform="translate(1.89973,508.01) rotate(-90.0706)">
			<title>Sheet.9</title>
			<path d="M0 841.89 L23.8 841.89" class="st1"/>
		</g>
		<g id="shape10-39" v:mID="10" v:groupContext="shape" transform="translate(400.411,508.558) rotate(-90.0706)">
			<title>Sheet.10</title>
			<path d="M0 841.89 L23.8 841.89" class="st1"/>
		</g>
		<g id="shape11-42" v:mID="11" v:groupContext="shape" transform="translate(654.991,506.848) rotate(-90.0706)">
			<title>Sheet.11</title>
			<path d="M0 841.89 L23.8 841.89" class="st1"/>
		</g>
		<g id="shape12-45" v:mID="12" v:groupContext="shape" transform="translate(2213.12,435.519) rotate(90.5786)">
			<title>Sheet.12</title>
			<path d="M0 841.89 L70.65 841.89" class="st1"/>
		</g>
		<g id="shape13-48" v:mID="13" v:groupContext="shape" transform="translate(1306.27,-375.178)">
			<title>Rectangle.1308</title>
			<desc>rep-002</desc>
			<v:userDefs>
				<v:ud v:nameU="visVersion" v:val="VT0(11):26"/>
			</v:userDefs>
			<v:textBlock v:margins="rect(4,4,4,4)" v:tabSpace="42.5197"/>
			<v:textRect cx="63.7795" cy="827.717" width="127.56" height="28.3465"/>
			<g id="shadow13-49" v:groupContext="shadow" v:shadowOffsetX="2.12132" v:shadowOffsetY="-2.12132" v:shadowType="1"
					transform="matrix(1,0,0,1,2.12132,2.12132)" class="st2">
				<rect x="0" y="813.543" width="127.559" height="28.3465" class="st3"/>
			</g>
			<rect x="0" y="813.543" width="127.559" height="28.3465" class="st4"/>
			<text x="42.43" y="831.32" class="st5" v:langID="2057"><v:paragraph v:horizAlign="1"/><v:tabList/>rep-002</text>		</g>
		<g id="shape14-54" v:mID="14" v:groupContext="shape" transform="translate(1498.92,1385.93) rotate(179.9)">
			<title>Sheet.14</title>
			<path d="M0 841.89 L25.7 841.89" class="st1"/>
		</g>
		<g id="shape15-57" v:mID="15" v:groupContext="shape" transform="translate(1500.53,1417.65) rotate(179.502)">
			<title>Sheet.15</title>
			<path d="M0 841.89 L21.45 841.89" class="st1"/>
		</g>
		<g id="shape16-60" v:mID="16" v:groupContext="shape" transform="translate(630.057,610.493) rotate(-90.124)">
			<title>Sheet.16</title>
			<path d="M0 841.89 L85.85 841.89" class="st1"/>
		</g>
		<g id="shape17-63" v:mID="17" v:groupContext="shape" transform="translate(1489.18,1451.62) rotate(180)">
			<title>Sheet.17</title>
			<path d="M0 841.89 L17.74 841.89" class="st1"/>
		</g>
		<g id="shape18-66" v:mID="18" v:groupContext="shape" transform="translate(1451.92,-319.064)">
			<title>Rectangle.1313</title>
			<desc>data</desc>
			<v:userDefs>
				<v:ud v:nameU="visVersion" v:val="VT0(11):26"/>
			</v:userDefs>
			<v:textBlock v:margins="rect(4,4,4,4)" v:tabSpace="42.5197"/>
			<v:textRect cx="45.3543" cy="827.717" width="90.71" height="28.3465"/>
			<g id="shadow18-67" v:groupContext="shadow" v:shadowOffsetX="2.12132" v:shadowOffsetY="-2.12132" v:shadowType="1"
					transform="matrix(1,0,0,1,2.12132,2.12132)" class="st2">
				<rect x="0" y="813.543" width="90.7087" height="28.3465" class="st3"/>
			</g>
			<rect x="0" y="813.543" width="90.7087" height="28.3465" class="st4"/>
			<text x="33.02" y="831.32" class="st5" v:langID="2057"><v:paragraph v:horizAlign="1"/><v:tabList/>data</text>		</g>
		<g id="shape19-72" v:mID="19" v:groupContext="shape" transform="translate(1485.93,-287.174)">
			<title>Rectangle.1314</title>
			<desc>file1.pdf</desc>
			<v:userDefs>
				<v:ud v:nameU="visVersion" v:val="VT0(11):26"/>
			</v:userDefs>
			<v:textBlock v:margins="rect(4,4,4,4)" v:tabSpace="42.5197"/>
			<v:textRect cx="42.5197" cy="831.26" width="85.04" height="21.2598"/>
			<g id="shadow19-73" v:groupContext="shadow" v:shadowOffsetX="2.12132" v:shadowOffsetY="-2.12132" v:shadowType="1"
					transform="matrix(1,0,0,1,2.12132,2.12132)" class="st2">
				<rect x="0" y="820.63" width="85.0394" height="21.2598" class="st3"/>
			</g>
			<rect x="0" y="820.63" width="85.0394" height="21.2598" class="st4"/>
			<text x="19.52" y="834.86" class="st8" v:langID="2057"><v:paragraph v:horizAlign="1"/><v:tabList/>file1.pdf</text>		</g>
		<g id="shape20-78" v:mID="20" v:groupContext="shape" transform="translate(1485.93,-255.284)">
			<title>Rectangle.1315</title>
			<desc>file2.pdf</desc>
			<v:userDefs>
				<v:ud v:nameU="visVersion" v:val="VT0(11):26"/>
			</v:userDefs>
			<v:textBlock v:margins="rect(4,4,4,4)" v:tabSpace="42.5197"/>
			<v:textRect cx="42.5197" cy="831.26" width="85.04" height="21.2598"/>
			<g id="shadow20-79" v:groupContext="shadow" v:shadowOffsetX="2.12132" v:shadowOffsetY="-2.12132" v:shadowType="1"
					transform="matrix(1,0,0,1,2.12132,2.12132)" class="st2">
				<rect x="0" y="820.63" width="85.0394" height="21.2598" class="st3"/>
			</g>
			<rect x="0" y="820.63" width="85.0394" height="21.2598" class="st4"/>
			<text x="19.52" y="834.86" class="st8" v:langID="2057"><v:paragraph v:horizAlign="1"/><v:tabList/>file2.pdf</text>		</g>
		<g id="shape21-84" v:mID="21" v:groupContext="shape" transform="translate(1486.94,-221.716)">
			<title>Rectangle.1316</title>
			<desc>file3.pdf</desc>
			<v:userDefs>
				<v:ud v:nameU="visVersion" v:val="VT0(11):26"/>
			</v:userDefs>
			<v:textBlock v:margins="rect(4,4,4,4)" v:tabSpace="42.5197"/>
			<v:textRect cx="42.5197" cy="831.26" width="85.04" height="21.2598"/>
			<g id="shadow21-85" v:groupContext="shadow" v:shadowOffsetX="2.12132" v:shadowOffsetY="-2.12132" v:shadowType="1"
					transform="matrix(1,0,0,1,2.12132,2.12132)" class="st2">
				<rect x="0" y="820.63" width="85.0394" height="21.2598" class="st3"/>
			</g>
			<rect x="0" y="820.63" width="85.0394" height="21.2598" class="st4"/>
			<text x="19.52" y="834.86" class="st8" v:langID="2057"><v:paragraph v:horizAlign="1"/><v:tabList/>file3.pdf</text>		</g>
		<g id="shape22-90" v:mID="22" v:groupContext="shape" transform="translate(1496.85,1323.9) rotate(180)">
			<title>Sheet.22</title>
			<path d="M0 841.89 L254.55 841.89" class="st1"/>
		</g>
		<g id="shape23-93" v:mID="23" v:groupContext="shape" transform="translate(1371.85,1385.93) rotate(179.9)">
			<title>Sheet.23</title>
			<path d="M0 841.89 L25.7 841.89" class="st1"/>
		</g>
		<g id="shape24-96" v:mID="24" v:groupContext="shape" transform="translate(1373.46,1417.65) rotate(179.502)">
			<title>Sheet.24</title>
			<path d="M0 841.89 L21.45 841.89" class="st1"/>
		</g>
		<g id="shape25-99" v:mID="25" v:groupContext="shape" transform="translate(502.987,610.493) rotate(-90.124)">
			<title>Sheet.25</title>
			<path d="M0 841.89 L85.85 841.89" class="st1"/>
		</g>
		<g id="shape26-102" v:mID="26" v:groupContext="shape" transform="translate(1362.11,1451.62) rotate(180)">
			<title>Sheet.26</title>
			<path d="M0 841.89 L17.74 841.89" class="st1"/>
		</g>
		<g id="shape27-105" v:mID="27" v:groupContext="shape" transform="translate(1324.85,-319.064)">
			<title>Rectangle.1322</title>
			<desc>metadata</desc>
			<v:userDefs>
				<v:ud v:nameU="visVersion" v:val="VT0(11):26"/>
			</v:userDefs>
			<v:textBlock v:margins="rect(4,4,4,4)" v:tabSpace="42.5197"/>
			<v:textRect cx="45.3543" cy="827.717" width="90.71" height="28.3465"/>
			<g id="shadow27-106" v:groupContext="shadow" v:shadowOffsetX="2.12132" v:shadowOffsetY="-2.12132" v:shadowType="1"
					transform="matrix(1,0,0,1,2.12132,2.12132)" class="st2">
				<rect x="0" y="813.543" width="90.7087" height="28.3465" class="st3"/>
			</g>
			<rect x="0" y="813.543" width="90.7087" height="28.3465" class="st4"/>
			<text x="19.01" y="831.32" class="st5" v:langID="2057"><v:paragraph v:horizAlign="1"/><v:tabList/>metadata</text>		</g>
		<g id="shape28-111" v:mID="28" v:groupContext="shape" transform="translate(1358.86,-287.174)">
			<title>Rectangle.1323</title>
			<desc>descriptive</desc>
			<v:userDefs>
				<v:ud v:nameU="visVersion" v:val="VT0(11):26"/>
			</v:userDefs>
			<v:textBlock v:margins="rect(4,4,4,4)" v:tabSpace="42.5197"/>
			<v:textRect cx="42.5197" cy="831.26" width="85.04" height="21.2598"/>
			<g id="shadow28-112" v:groupContext="shadow" v:shadowOffsetX="2.12132" v:shadowOffsetY="-2.12132" v:shadowType="1"
					transform="matrix(1,0,0,1,2.12132,2.12132)" class="st2">
				<rect x="0" y="820.63" width="85.0394" height="21.2598" class="st3"/>
			</g>
			<rect x="0" y="820.63" width="85.0394" height="21.2598" class="st4"/>
			<text x="10.84" y="834.86" class="st8" v:langID="2057"><v:paragraph v:horizAlign="1"/><v:tabList/>descriptive</text>		</g>
		<g id="shape29-117" v:mID="29" v:groupContext="shape" transform="translate(1358.86,-255.284)">
			<title>Rectangle.1324</title>
			<desc>preservation</desc>
			<v:userDefs>
				<v:ud v:nameU="visVersion" v:val="VT0(11):26"/>
			</v:userDefs>
			<v:textBlock v:margins="rect(4,4,4,4)" v:tabSpace="42.5197"/>
			<v:textRect cx="42.5197" cy="831.26" width="85.04" height="21.2598"/>
			<g id="shadow29-118" v:groupContext="shadow" v:shadowOffsetX="2.12132" v:shadowOffsetY="-2.12132" v:shadowType="1"
					transform="matrix(1,0,0,1,2.12132,2.12132)" class="st2">
				<rect x="0" y="820.63" width="85.0394" height="21.2598" class="st3"/>
			</g>
			<rect x="0" y="820.63" width="85.0394" height="21.2598" class="st4"/>
			<text x="6.5" y="834.86" class="st8" v:langID="2057"><v:paragraph v:horizAlign="1"/><v:tabList/>preservation</text>		</g>
		<g id="shape30-123" v:mID="30" v:groupContext="shape" transform="translate(1359.87,-221.716)">
			<title>Rectangle.1325</title>
			<desc>other</desc>
			<v:userDefs>
				<v:ud v:nameU="visVersion" v:val="VT0(11):26"/>
			</v:userDefs>
			<v:textBlock v:margins="rect(4,4,4,4)" v:tabSpace="42.5197"/>
			<v:textRect cx="42.5197" cy="831.26" width="85.04" height="21.2598"/>
			<g id="shadow30-124" v:groupContext="shadow" v:shadowOffsetX="2.12132" v:shadowOffsetY="-2.12132" v:shadowType="1"
					transform="matrix(1,0,0,1,2.12132,2.12132)" class="st2">
				<rect x="0" y="820.63" width="85.0394" height="21.2598" class="st3"/>
			</g>
			<rect x="0" y="820.63" width="85.0394" height="21.2598" class="st4"/>
			<text x="27.52" y="834.86" class="st8" v:langID="2057"><v:paragraph v:horizAlign="1"/><v:tabList/>other</text>		</g>
		<g id="shape31-129" v:mID="31" v:groupContext="shape" transform="translate(1196.95,-246.652)">
			<title>Rectangle.1326</title>
			<desc>METS2.xml data file1.pdf file2.pdf file3.pdf</desc>
			<v:userDefs>
				<v:ud v:nameU="visVersion" v:val="VT0(11):26"/>
			</v:userDefs>
			<v:textBlock v:margins="rect(4,4,4,4)" v:tabSpace="42.5197"/>
			<v:textRect cx="45.5743" cy="791.37" width="91.15" height="101.04"/>
			<g id="shadow31-130" v:groupContext="shadow" v:shadowOffsetX="2.12132" v:shadowOffsetY="-2.12132" v:shadowType="1"
					transform="matrix(1,0,0,1,2.12132,2.12132)" class="st2">
				<rect x="0" y="740.85" width="91.1485" height="101.04" class="st3"/>
			</g>
			<rect x="0" y="740.85" width="91.1485" height="101.04" class="st4"/>
			<text x="17.34" y="761.37" class="st5" v:langID="2057"><v:paragraph/><v:tabList/><v:newlineChar/>METS2.xml<tspan x="4"
						dy="2em" class="st6">  </tspan>data<tspan x="4" dy="1.2em" class="st6">    </tspan>file1.pdf<tspan x="4"
						dy="1.2em" class="st6">    </tspan>file2.pdf<tspan x="4" dy="1.2em" class="st6">    </tspan>file3.pdf<v:newlineChar/></text>		</g>
		<g id="shape32-139" v:mID="32" v:groupContext="shape" transform="translate(253.665,508.7) rotate(-90.0706)">
			<title>Sheet.32</title>
			<path d="M0 841.89 L23.8 841.89" class="st1"/>
		</g>
		<g id="shape33-142" v:mID="33" v:groupContext="shape" transform="translate(1811.07,425.931) rotate(89.956)">
			<title>Sheet.33</title>
			<path d="M0 841.89 L71.39 841.89" class="st1"/>
		</g>
		<g id="shape34-145" v:mID="34" v:groupContext="shape" transform="translate(905.052,-373.532)">
			<title>Rectangle.1329</title>
			<desc>rep-001</desc>
			<v:userDefs>
				<v:ud v:nameU="visVersion" v:val="VT0(11):26"/>
			</v:userDefs>
			<v:textBlock v:margins="rect(4,4,4,4)" v:tabSpace="42.5197"/>
			<v:textRect cx="63.7795" cy="827.717" width="127.56" height="28.3465"/>
			<g id="shadow34-146" v:groupContext="shadow" v:shadowOffsetX="2.12132" v:shadowOffsetY="-2.12132" v:shadowType="1"
					transform="matrix(1,0,0,1,2.12132,2.12132)" class="st2">
				<rect x="0" y="813.543" width="127.559" height="28.3465" class="st3"/>
			</g>
			<rect x="0" y="813.543" width="127.559" height="28.3465" class="st4"/>
			<text x="42.43" y="831.32" class="st5" v:langID="2057"><v:paragraph v:horizAlign="1"/><v:tabList/>rep-001</text>		</g>
		<g id="shape35-151" v:mID="35" v:groupContext="shape" transform="translate(1097.6,1387.78) rotate(179.9)">
			<title>Sheet.35</title>
			<path d="M0 841.89 L25.7 841.89" class="st1"/>
		</g>
		<g id="shape36-154" v:mID="36" v:groupContext="shape" transform="translate(1099.2,1419.5) rotate(179.502)">
			<title>Sheet.36</title>
			<path d="M0 841.89 L21.45 841.89" class="st1"/>
		</g>
		<g id="shape37-157" v:mID="37" v:groupContext="shape" transform="translate(228.731,612.345) rotate(-90.124)">
			<title>Sheet.37</title>
			<path d="M0 841.89 L85.85 841.89" class="st1"/>
		</g>
		<g id="shape38-160" v:mID="38" v:groupContext="shape" transform="translate(1087.85,1453.47) rotate(180)">
			<title>Sheet.38</title>
			<path d="M0 841.89 L17.74 841.89" class="st1"/>
		</g>
		<g id="shape39-163" v:mID="39" v:groupContext="shape" transform="translate(1050.59,-317.212)">
			<title>Rectangle.1334</title>
			<desc>data</desc>
			<v:userDefs>
				<v:ud v:nameU="visVersion" v:val="VT0(11):26"/>
			</v:userDefs>
			<v:textBlock v:margins="rect(4,4,4,4)" v:tabSpace="42.5197"/>
			<v:textRect cx="45.3543" cy="827.717" width="90.71" height="28.3465"/>
			<g id="shadow39-164" v:groupContext="shadow" v:shadowOffsetX="2.12132" v:shadowOffsetY="-2.12132" v:shadowType="1"
					transform="matrix(1,0,0,1,2.12132,2.12132)" class="st2">
				<rect x="0" y="813.543" width="90.7087" height="28.3465" class="st3"/>
			</g>
			<rect x="0" y="813.543" width="90.7087" height="28.3465" class="st4"/>
			<text x="33.02" y="831.32" class="st5" v:langID="2057"><v:paragraph v:horizAlign="1"/><v:tabList/>data</text>		</g>
		<g id="shape40-169" v:mID="40" v:groupContext="shape" transform="translate(1084.61,-285.322)">
			<title>Rectangle.1335</title>
			<desc>file1.odt</desc>
			<v:userDefs>
				<v:ud v:nameU="visVersion" v:val="VT0(11):26"/>
			</v:userDefs>
			<v:textBlock v:margins="rect(4,4,4,4)" v:tabSpace="42.5197"/>
			<v:textRect cx="42.5197" cy="831.26" width="85.04" height="21.2598"/>
			<g id="shadow40-170" v:groupContext="shadow" v:shadowOffsetX="2.12132" v:shadowOffsetY="-2.12132" v:shadowType="1"
					transform="matrix(1,0,0,1,2.12132,2.12132)" class="st2">
				<rect x="0" y="820.63" width="85.0394" height="21.2598" class="st3"/>
			</g>
			<rect x="0" y="820.63" width="85.0394" height="21.2598" class="st4"/>
			<text x="19.52" y="834.86" class="st8" v:langID="2057"><v:paragraph v:horizAlign="1"/><v:tabList/>file1.odt</text>		</g>
		<g id="shape41-175" v:mID="41" v:groupContext="shape" transform="translate(1084.61,-253.432)">
			<title>Rectangle.1336</title>
			<desc>file2.odt</desc>
			<v:userDefs>
				<v:ud v:nameU="visVersion" v:val="VT0(11):26"/>
			</v:userDefs>
			<v:textBlock v:margins="rect(4,4,4,4)" v:tabSpace="42.5197"/>
			<v:textRect cx="42.5197" cy="831.26" width="85.04" height="21.2598"/>
			<g id="shadow41-176" v:groupContext="shadow" v:shadowOffsetX="2.12132" v:shadowOffsetY="-2.12132" v:shadowType="1"
					transform="matrix(1,0,0,1,2.12132,2.12132)" class="st2">
				<rect x="0" y="820.63" width="85.0394" height="21.2598" class="st3"/>
			</g>
			<rect x="0" y="820.63" width="85.0394" height="21.2598" class="st4"/>
			<text x="19.52" y="834.86" class="st8" v:langID="2057"><v:paragraph v:horizAlign="1"/><v:tabList/>file2.odt</text>		</g>
		<g id="shape42-181" v:mID="42" v:groupContext="shape" transform="translate(1085.61,-219.864)">
			<title>Rectangle.1337</title>
			<desc>file3.odt</desc>
			<v:userDefs>
				<v:ud v:nameU="visVersion" v:val="VT0(11):26"/>
			</v:userDefs>
			<v:textBlock v:margins="rect(4,4,4,4)" v:tabSpace="42.5197"/>
			<v:textRect cx="42.5197" cy="831.26" width="85.04" height="21.2598"/>
			<g id="shadow42-182" v:groupContext="shadow" v:shadowOffsetX="2.12132" v:shadowOffsetY="-2.12132" v:shadowType="1"
					transform="matrix(1,0,0,1,2.12132,2.12132)" class="st2">
				<rect x="0" y="820.63" width="85.0394" height="21.2598" class="st3"/>
			</g>
			<rect x="0" y="820.63" width="85.0394" height="21.2598" class="st4"/>
			<text x="19.52" y="834.86" class="st8" v:langID="2057"><v:paragraph v:horizAlign="1"/><v:tabList/>file3.odt</text>		</g>
		<g id="shape43-187" v:mID="43" v:groupContext="shape" transform="translate(1094.12,1325.75) rotate(-179.905)">
			<title>Sheet.43</title>
			<path d="M0 841.89 L249.92 841.89" class="st1"/>
		</g>
		<g id="shape44-190" v:mID="44" v:groupContext="shape" transform="translate(970.527,1387.78) rotate(179.9)">
			<title>Sheet.44</title>
			<path d="M0 841.89 L25.7 841.89" class="st1"/>
		</g>
		<g id="shape45-193" v:mID="45" v:groupContext="shape" transform="translate(972.129,1419.5) rotate(179.502)">
			<title>Sheet.45</title>
			<path d="M0 841.89 L21.45 841.89" class="st1"/>
		</g>
		<g id="shape46-196" v:mID="46" v:groupContext="shape" transform="translate(101.661,612.345) rotate(-90.124)">
			<title>Sheet.46</title>
			<path d="M0 841.89 L85.85 841.89" class="st1"/>
		</g>
		<g id="shape47-199" v:mID="47" v:groupContext="shape" transform="translate(960.78,1453.47) rotate(180)">
			<title>Sheet.47</title>
			<path d="M0 841.89 L17.74 841.89" class="st1"/>
		</g>
		<g id="shape48-202" v:mID="48" v:groupContext="shape" transform="translate(923.52,-317.212)">
			<title>Rectangle.1343</title>
			<desc>metadata</desc>
			<v:userDefs>
				<v:ud v:nameU="visVersion" v:val="VT0(11):26"/>
			</v:userDefs>
			<v:textBlock v:margins="rect(4,4,4,4)" v:tabSpace="42.5197"/>
			<v:textRect cx="45.3543" cy="827.717" width="90.71" height="28.3465"/>
			<g id="shadow48-203" v:groupContext="shadow" v:shadowOffsetX="2.12132" v:shadowOffsetY="-2.12132" v:shadowType="1"
					transform="matrix(1,0,0,1,2.12132,2.12132)" class="st2">
				<rect x="0" y="813.543" width="90.7087" height="28.3465" class="st3"/>
			</g>
			<rect x="0" y="813.543" width="90.7087" height="28.3465" class="st4"/>
			<text x="19.01" y="831.32" class="st5" v:langID="2057"><v:paragraph v:horizAlign="1"/><v:tabList/>metadata</text>		</g>
		<g id="shape49-208" v:mID="49" v:groupContext="shape" transform="translate(957.536,-285.322)">
			<title>Rectangle.1344</title>
			<desc>descriptive</desc>
			<v:userDefs>
				<v:ud v:nameU="visVersion" v:val="VT0(11):26"/>
			</v:userDefs>
			<v:textBlock v:margins="rect(4,4,4,4)" v:tabSpace="42.5197"/>
			<v:textRect cx="42.5197" cy="831.26" width="85.04" height="21.2598"/>
			<g id="shadow49-209" v:groupContext="shadow" v:shadowOffsetX="2.12132" v:shadowOffsetY="-2.12132" v:shadowType="1"
					transform="matrix(1,0,0,1,2.12132,2.12132)" class="st2">
				<rect x="0" y="820.63" width="85.0394" height="21.2598" class="st3"/>
			</g>
			<rect x="0" y="820.63" width="85.0394" height="21.2598" class="st4"/>
			<text x="10.84" y="834.86" class="st8" v:langID="2057"><v:paragraph v:horizAlign="1"/><v:tabList/>descriptive</text>		</g>
		<g id="shape50-214" v:mID="50" v:groupContext="shape" transform="translate(957.536,-253.432)">
			<title>Rectangle.1345</title>
			<desc>preservation</desc>
			<v:userDefs>
				<v:ud v:nameU="visVersion" v:val="VT0(11):26"/>
			</v:userDefs>
			<v:textBlock v:margins="rect(4,4,4,4)" v:tabSpace="42.5197"/>
			<v:textRect cx="42.5197" cy="831.26" width="85.04" height="21.2598"/>
			<g id="shadow50-215" v:groupContext="shadow" v:shadowOffsetX="2.12132" v:shadowOffsetY="-2.12132" v:shadowType="1"
					transform="matrix(1,0,0,1,2.12132,2.12132)" class="st2">
				<rect x="0" y="820.63" width="85.0394" height="21.2598" class="st3"/>
			</g>
			<rect x="0" y="820.63" width="85.0394" height="21.2598" class="st4"/>
			<text x="6.5" y="834.86" class="st8" v:langID="2057"><v:paragraph v:horizAlign="1"/><v:tabList/>preservation</text>		</g>
		<g id="shape51-220" v:mID="51" v:groupContext="shape" transform="translate(958.543,-219.864)">
			<title>Rectangle.1346</title>
			<desc>other</desc>
			<v:userDefs>
				<v:ud v:nameU="visVersion" v:val="VT0(11):26"/>
			</v:userDefs>
			<v:textBlock v:margins="rect(4,4,4,4)" v:tabSpace="42.5197"/>
			<v:textRect cx="42.5197" cy="831.26" width="85.04" height="21.2598"/>
			<g id="shadow51-221" v:groupContext="shadow" v:shadowOffsetX="2.12132" v:shadowOffsetY="-2.12132" v:shadowType="1"
					transform="matrix(1,0,0,1,2.12132,2.12132)" class="st2">
				<rect x="0" y="820.63" width="85.0394" height="21.2598" class="st3"/>
			</g>
			<rect x="0" y="820.63" width="85.0394" height="21.2598" class="st4"/>
			<text x="27.52" y="834.86" class="st8" v:langID="2057"><v:paragraph v:horizAlign="1"/><v:tabList/>other</text>		</g>
		<g id="shape52-226" v:mID="52" v:groupContext="shape" transform="translate(801.86,-249.288)">
			<title>Rectangle.1347</title>
			<desc>METS1.xml data file1.odt file2.odt file3.odt</desc>
			<v:userDefs>
				<v:ud v:nameU="visVersion" v:val="VT0(11):26"/>
			</v:userDefs>
			<v:textBlock v:margins="rect(4,4,4,4)" v:tabSpace="42.5197"/>
			<v:textRect cx="43.3989" cy="793.2" width="86.8" height="97.379"/>
			<g id="shadow52-227" v:groupContext="shadow" v:shadowOffsetX="2.12132" v:shadowOffsetY="-2.12132" v:shadowType="1"
					transform="matrix(1,0,0,1,2.12132,2.12132)" class="st2">
				<rect x="0" y="744.511" width="86.7978" height="97.379" class="st3"/>
			</g>
			<rect x="0" y="744.511" width="86.7978" height="97.379" class="st4"/>
			<text x="4" y="764.4" class="st5" v:langID="2057"><v:paragraph/><v:tabList/><v:newlineChar/>METS1.xml<tspan x="4"
						dy="1.8em" class="st6">  </tspan>data<tspan x="4" dy="1.2em" class="st6">    </tspan>file1.odt<tspan x="4"
						dy="1.2em" class="st6">    </tspan>file2.odt<tspan x="4" dy="1.2em" class="st6">    </tspan>file3.odt<v:newlineChar/><v:newlineChar/></text>		</g>
		<g id="shape53-236" v:mID="53" v:groupContext="shape" transform="translate(1371.68,1267.51) rotate(179.964)">
			<title>Sheet.53</title>
			<path d="M0 841.89 L401.09 841.89" class="st1"/>
		</g>
		<g id="shape54-239" v:mID="54" v:groupContext="shape" transform="translate(803.159,-318.193)">
			<title>Rectangle.1349</title>
			<desc>METS.xml</desc>
			<v:userDefs>
				<v:ud v:nameU="visVersion" v:val="VT0(11):26"/>
			</v:userDefs>
			<v:textBlock v:margins="rect(4,4,4,4)" v:tabSpace="42.5197"/>
			<v:textRect cx="42.248" cy="828.971" width="84.5" height="25.8374"/>
			<g id="shadow54-240" v:groupContext="shadow" v:shadowOffsetX="1.83697E-16" v:shadowOffsetY="-3" v:shadowType="1"
					transform="matrix(1,0,0,1,0,3)" class="st2">
				<rect x="0" y="816.052" width="84.4961" height="25.8374" class="st3"/>
			</g>
			<rect x="0" y="816.052" width="84.4961" height="25.8374" class="st7"/>
			<text x="13.57" y="832.57" class="st5" v:langID="2057"><v:paragraph v:horizAlign="1"/><v:tabList/>METS.xml</text>		</g>
		<g id="shape55-245" v:mID="55" v:groupContext="shape" transform="translate(1198.24,-318.193)">
			<title>Rectangle.1350</title>
			<desc>METS2.xml</desc>
			<v:userDefs>
				<v:ud v:nameU="visVersion" v:val="VT0(11):26"/>
			</v:userDefs>
			<v:textBlock v:margins="rect(4,4,4,4)" v:tabSpace="42.5197"/>
			<v:textRect cx="44.7874" cy="827.613" width="89.58" height="28.554"/>
			<g id="shadow55-246" v:groupContext="shadow" v:shadowOffsetX="1.83697E-16" v:shadowOffsetY="-3" v:shadowType="1"
					transform="matrix(1,0,0,1,0,3)" class="st2">
				<rect x="0" y="813.336" width="89.5748" height="28.554" class="st3"/>
			</g>
			<rect x="0" y="813.336" width="89.5748" height="28.554" class="st7"/>
			<text x="12.78" y="831.21" class="st5" v:langID="2057"><v:paragraph v:horizAlign="1"/><v:tabList/>METS2.xml</text>		</g>
		<g id="shape56-251" v:mID="56" v:groupContext="shape" transform="translate(-490.493,392.099) rotate(-90.0706)">
			<title>Sheet.56</title>
			<path d="M0 841.89 L23.8 841.89" class="st1"/>
		</g>
		<g id="shape57-254" v:mID="57" v:groupContext="shape" transform="translate(-238.421,432.272) rotate(-90.3109)">
			<title>Sheet.57</title>
			<path d="M0 841.89 L59.75 841.89" class="st1"/>
		</g>
		<g id="shape58-257" v:mID="58" v:groupContext="shape" transform="translate(1319.18,254.673) rotate(89.9819)">
			<title>Sheet.58</title>
			<path d="M0 841.89 L110.52 841.89" class="st1"/>
		</g>
		<g id="shape59-260" v:mID="59" v:groupContext="shape" transform="translate(414.002,-498.793)">
			<title>Rectangle.1354</title>
			<desc>submission</desc>
			<v:userDefs>
				<v:ud v:nameU="visVersion" v:val="VT0(11):26"/>
			</v:userDefs>
			<v:textBlock v:margins="rect(4,4,4,4)" v:tabSpace="42.5197"/>
			<v:textRect cx="63.7795" cy="827.717" width="127.56" height="28.3465"/>
			<g id="shadow59-261" v:groupContext="shadow" v:shadowOffsetX="2.12132" v:shadowOffsetY="-2.12132" v:shadowType="1"
					transform="matrix(1,0,0,1,2.12132,2.12132)" class="st2">
				<rect x="0" y="813.543" width="127.559" height="28.3465" class="st3"/>
			</g>
			<rect x="0" y="813.543" width="127.559" height="28.3465" class="st4"/>
			<text x="30.44" y="831.32" class="st5" v:langID="2057"><v:paragraph v:horizAlign="1"/><v:tabList/>submission</text>		</g>
		<g id="shape60-266" v:mID="60" v:groupContext="shape" transform="translate(601.73,1209.84) rotate(-179.905)">
			<title>Sheet.60</title>
			<path d="M0 841.89 L249.92 841.89" class="st1"/>
		</g>
		<g id="shape61-269" v:mID="61" v:groupContext="shape" transform="translate(413.709,-542.43)">
			<title>Rectangle.1374</title>
			<desc>metadata</desc>
			<v:userDefs>
				<v:ud v:nameU="visVersion" v:val="VT0(11):26"/>
			</v:userDefs>
			<v:textBlock v:margins="rect(4,4,4,4)" v:tabSpace="42.5197"/>
			<v:textRect cx="63.7795" cy="827.717" width="127.56" height="28.3465"/>
			<g id="shadow61-270" v:groupContext="shadow" v:shadowOffsetX="2.12132" v:shadowOffsetY="-2.12132" v:shadowType="1"
					transform="matrix(1,0,0,1,2.12132,2.12132)" class="st2">
				<rect x="0" y="813.543" width="127.559" height="28.3465" class="st3"/>
			</g>
			<rect x="0" y="813.543" width="127.559" height="28.3465" class="st4"/>
			<text x="37.44" y="831.32" class="st5" v:langID="2057"><v:paragraph v:horizAlign="1"/><v:tabList/>metadata</text>		</g>
		<g id="shape62-275" v:mID="62" v:groupContext="shape" transform="translate(-3.76956,338.399) rotate(-90.0706)">
			<title>Sheet.62</title>
			<path d="M0 841.89 L23.8 841.89" class="st1"/>
		</g>
		<g id="shape63-278" v:mID="63" v:groupContext="shape" transform="translate(307.781,426.152) rotate(-90)">
			<title>Sheet.63</title>
			<path d="M0 841.89 L112.31 841.89" class="st1"/>
		</g>
		<g id="shape64-281" v:mID="64" v:groupContext="shape" transform="translate(944.773,-540.233)">
			<title>Rectangle.1377</title>
			<desc>submission</desc>
			<v:userDefs>
				<v:ud v:nameU="visVersion" v:val="VT0(11):26"/>
			</v:userDefs>
			<v:textBlock v:margins="rect(4,4,4,4)" v:tabSpace="42.5197"/>
			<v:textRect cx="63.7795" cy="827.717" width="127.56" height="28.3465"/>
			<g id="shadow64-282" v:groupContext="shadow" v:shadowOffsetX="2.12132" v:shadowOffsetY="-2.12132" v:shadowType="1"
					transform="matrix(1,0,0,1,2.12132,2.12132)" class="st2">
				<rect x="0" y="813.543" width="127.559" height="28.3465" class="st3"/>
			</g>
			<rect x="0" y="813.543" width="127.559" height="28.3465" class="st4"/>
			<text x="30.44" y="831.32" class="st5" v:langID="2057"><v:paragraph v:horizAlign="1"/><v:tabList/>submission</text>		</g>
		<g id="shape65-287" v:mID="65" v:groupContext="shape" transform="translate(1148.51,1155.74) rotate(-179.998)">
			<title>Sheet.65</title>
			<path d="M0 841.89 L308.6 841.89" class="st1"/>
		</g>
		<g id="shape66-290" v:mID="66" v:groupContext="shape" transform="translate(796.19,-431.666)">
			<title>Rectangle.1379</title>
			<desc>representations rep-001/METS.xml rep-002/METS.xml</desc>
			<v:userDefs>
				<v:ud v:nameU="visVersion" v:val="VT0(11):26"/>
			</v:userDefs>
			<v:textBlock v:margins="rect(4,4,4,4)" v:tabSpace="42.5197"/>
			<v:textRect cx="65.1969" cy="799.584" width="130.4" height="84.6109"/>
			<g id="shadow66-291" v:groupContext="shadow" v:shadowOffsetX="2.12132" v:shadowOffsetY="-2.12132" v:shadowType="1"
					transform="matrix(1,0,0,1,2.12132,2.12132)" class="st2">
				<rect x="0" y="757.279" width="130.394" height="84.6109" class="st3"/>
			</g>
			<rect x="0" y="757.279" width="130.394" height="84.6109" class="st4"/>
			<text x="10.67" y="803.18" class="st5" v:langID="2057"><v:paragraph/><v:tabList/><v:newlineChar/><v:newlineChar/><v:newlineChar/>representations<tspan
						x="4" dy="1.2em" class="st6">    </tspan>rep-001/METS.xml<tspan x="4" dy="1.2em" class="st6">    </tspan>rep-002/METS.xml</text>		</g>
		<g id="shape67-298" v:mID="67" v:groupContext="shape" transform="translate(797.49,-487.804)">
			<title>Rectangle.1380</title>
			<desc>METS.xml</desc>
			<v:userDefs>
				<v:ud v:nameU="visVersion" v:val="VT0(11):26"/>
			</v:userDefs>
			<v:textBlock v:margins="rect(4,4,4,4)" v:tabSpace="42.5197"/>
			<v:textRect cx="64.4055" cy="828.971" width="128.82" height="25.8374"/>
			<g id="shadow67-299" v:groupContext="shadow" v:shadowOffsetX="1.83697E-16" v:shadowOffsetY="-3" v:shadowType="1"
					transform="matrix(1,0,0,1,0,3)" class="st2">
				<rect x="0" y="816.052" width="128.811" height="25.8374" class="st3"/>
			</g>
			<rect x="0" y="816.052" width="128.811" height="25.8374" class="st7"/>
			<text x="35.73" y="832.57" class="st5" v:langID="2057"><v:paragraph v:horizAlign="1"/><v:tabList/>METS.xml</text>		</g>
		<g id="shape68-304" v:mID="68" v:groupContext="shape" transform="translate(1091.29,-486.151)">
			<title>Rectangle.1381</title>
			<desc>representations</desc>
			<v:userDefs>
				<v:ud v:nameU="visVersion" v:val="VT0(11):26"/>
			</v:userDefs>
			<v:textBlock v:margins="rect(4,4,4,4)" v:tabSpace="42.5197"/>
			<v:textRect cx="63.7795" cy="827.717" width="127.56" height="28.3465"/>
			<g id="shadow68-305" v:groupContext="shadow" v:shadowOffsetX="2.12132" v:shadowOffsetY="-2.12132" v:shadowType="1"
					transform="matrix(1,0,0,1,2.12132,2.12132)" class="st2">
				<rect x="0" y="813.543" width="127.559" height="28.3465" class="st3"/>
			</g>
			<rect x="0" y="813.543" width="127.559" height="28.3465" class="st4"/>
			<text x="18.76" y="831.32" class="st5" v:langID="2057"><v:paragraph v:horizAlign="1"/><v:tabList/>representations</text>		</g>
		<g id="shape69-310" v:mID="69" v:groupContext="shape" transform="translate(284.977,-374.681)">
			<title>Rectangle.1385</title>
			<desc>representations rep-001/METS.xml rep-002/METS.xml</desc>
			<v:userDefs>
				<v:ud v:nameU="visVersion" v:val="VT0(11):26"/>
			</v:userDefs>
			<v:textBlock v:margins="rect(4,4,4,4)" v:tabSpace="42.5197"/>
			<v:textRect cx="65.1969" cy="799.584" width="130.4" height="84.6109"/>
			<g id="shadow69-311" v:groupContext="shadow" v:shadowOffsetX="2.12132" v:shadowOffsetY="-2.12132" v:shadowType="1"
					transform="matrix(1,0,0,1,2.12132,2.12132)" class="st2">
				<rect x="0" y="757.279" width="130.394" height="84.6109" class="st3"/>
			</g>
			<rect x="0" y="757.279" width="130.394" height="84.6109" class="st4"/>
			<text x="10.67" y="803.18" class="st5" v:langID="2057"><v:paragraph/><v:tabList/><v:newlineChar/><v:newlineChar/><v:newlineChar/>representations<tspan
						x="4" dy="1.2em" class="st6">    </tspan>rep-001/METS.xml<tspan x="4" dy="1.2em" class="st6">    </tspan>rep-002/METS.xml</text>		</g>
		<g id="shape70-318" v:mID="70" v:groupContext="shape" transform="translate(286.276,-430.818)">
			<title>Rectangle.1386</title>
			<desc>METS.xml</desc>
			<v:userDefs>
				<v:ud v:nameU="visVersion" v:val="VT0(11):26"/>
			</v:userDefs>
			<v:textBlock v:margins="rect(4,4,4,4)" v:tabSpace="42.5197"/>
			<v:textRect cx="64.4055" cy="828.971" width="128.82" height="25.8374"/>
			<g id="shadow70-319" v:groupContext="shadow" v:shadowOffsetX="1.83697E-16" v:shadowOffsetY="-3" v:shadowType="1"
					transform="matrix(1,0,0,1,0,3)" class="st2">
				<rect x="0" y="816.052" width="128.811" height="25.8374" class="st3"/>
			</g>
			<rect x="0" y="816.052" width="128.811" height="25.8374" class="st7"/>
			<text x="35.73" y="832.57" class="st5" v:langID="2057"><v:paragraph v:horizAlign="1"/><v:tabList/>METS.xml</text>		</g>
		<g id="shape71-324" v:mID="71" v:groupContext="shape" transform="translate(539.349,-430.628)">
			<title>Rectangle.1387</title>
			<desc>representations</desc>
			<v:userDefs>
				<v:ud v:nameU="visVersion" v:val="VT0(11):26"/>
			</v:userDefs>
			<v:textBlock v:margins="rect(4,4,4,4)" v:tabSpace="42.5197"/>
			<v:textRect cx="63.7795" cy="827.717" width="127.56" height="28.3465"/>
			<g id="shadow71-325" v:groupContext="shadow" v:shadowOffsetX="2.12132" v:shadowOffsetY="-2.12132" v:shadowType="1"
					transform="matrix(1,0,0,1,2.12132,2.12132)" class="st2">
				<rect x="0" y="813.543" width="127.559" height="28.3465" class="st3"/>
			</g>
			<rect x="0" y="813.543" width="127.559" height="28.3465" class="st4"/>
			<text x="18.76" y="831.32" class="st5" v:langID="2057"><v:paragraph v:horizAlign="1"/><v:tabList/>representations</text>		</g>
		<g id="shape72-330" v:mID="72" v:groupContext="shape" transform="translate(634.852,-246.376)">
			<title>Rectangle.1390</title>
			<desc>submission/representations file1.pdf file2.pdf file3.pdf</desc>
			<v:userDefs>
				<v:ud v:nameU="visVersion" v:val="VT0(11):26"/>
			</v:userDefs>
			<v:textBlock v:margins="rect(4,4,4,4)" v:tabSpace="42.5197"/>
			<v:textRect cx="64.2495" cy="785.862" width="128.5" height="112.055"/>
			<g id="shadow72-331" v:groupContext="shadow" v:shadowOffsetX="2.12132" v:shadowOffsetY="-2.12132" v:shadowType="1"
					transform="matrix(1,0,0,1,2.12132,2.12132)" class="st2">
				<rect x="0" y="729.834" width="128.499" height="112.055" class="st3"/>
			</g>
			<rect x="0" y="729.834" width="128.499" height="112.055" class="st4"/>
			<text x="28.18" y="775.06" class="st5" v:langID="2057"><v:paragraph v:indentLeft="14.17"/><v:tabList/><v:newlineChar/><v:newlineChar/><v:newlineChar/><v:paragraph
						v:indentLeft="14.17"/>submission/<tspan x="18.17" dy="1.2em" class="st6">representations</tspan><tspan
						x="18.17" dy="1.2em" class="st6">       </tspan>file1.pdf<tspan x="18.17" dy="1.2em" class="st6">       </tspan>file2.pdf<tspan
						x="18.17" dy="1.2em" class="st6">       </tspan>file3.pdf</text>		</g>
		<g id="shape73-340" v:mID="73" v:groupContext="shape" transform="translate(635.598,-329.924)">
			<title>Rectangle.1391</title>
			<desc>METS.xml</desc>
			<v:userDefs>
				<v:ud v:nameU="visVersion" v:val="VT0(11):26"/>
			</v:userDefs>
			<v:textBlock v:margins="rect(4,4,4,4)" v:tabSpace="42.5197"/>
			<v:textRect cx="64.4055" cy="828.971" width="128.82" height="25.8374"/>
			<g id="shadow73-341" v:groupContext="shadow" v:shadowOffsetX="1.83697E-16" v:shadowOffsetY="-3" v:shadowType="1"
					transform="matrix(1,0,0,1,0,3)" class="st2">
				<rect x="0" y="816.052" width="128.811" height="25.8374" class="st3"/>
			</g>
			<rect x="0" y="816.052" width="128.811" height="25.8374" class="st7"/>
			<text x="35.73" y="832.57" class="st5" v:langID="2057"><v:paragraph v:horizAlign="1"/><v:tabList/>METS.xml</text>		</g>
		<g id="shape74-346" v:mID="74" v:groupContext="shape" transform="translate(698.685,1269.22) rotate(-179.978)">
			<title>Sheet.74</title>
			<path d="M0 841.89 L192.48 841.89" class="st1"/>
		</g>
		<g id="shape75-349" v:mID="75" v:groupContext="shape" transform="translate(634.852,-373.189)">
			<title>Rectangle.1395</title>
			<desc>rep-002</desc>
			<v:userDefs>
				<v:ud v:nameU="visVersion" v:val="VT0(11):26"/>
			</v:userDefs>
			<v:textBlock v:margins="rect(4,4,4,4)" v:tabSpace="42.5197"/>
			<v:textRect cx="63.7795" cy="827.717" width="127.56" height="28.3465"/>
			<g id="shadow75-350" v:groupContext="shadow" v:shadowOffsetX="2.12132" v:shadowOffsetY="-2.12132" v:shadowType="1"
					transform="matrix(1,0,0,1,2.12132,2.12132)" class="st2">
				<rect x="0" y="813.543" width="127.559" height="28.3465" class="st3"/>
			</g>
			<rect x="0" y="813.543" width="127.559" height="28.3465" class="st4"/>
			<text x="42.43" y="831.32" class="st5" v:langID="2057"><v:paragraph v:horizAlign="1"/><v:tabList/>rep-002</text>		</g>
		<g id="shape76-355" v:mID="76" v:groupContext="shape" transform="translate(-335.353,497.49) rotate(-90.284)">
			<title>Sheet.76</title>
			<path d="M0 841.89 L65.42 841.89" class="st1"/>
		</g>
		<g id="shape77-358" v:mID="77" v:groupContext="shape" transform="translate(442.374,-245.63)">
			<title>Rectangle.1402</title>
			<desc>submission/representations file1.odt file2.odt file3.odt</desc>
			<v:userDefs>
				<v:ud v:nameU="visVersion" v:val="VT0(11):26"/>
			</v:userDefs>
			<v:textBlock v:margins="rect(4,4,4,4)" v:tabSpace="42.5197"/>
			<v:textRect cx="64.2495" cy="785.862" width="128.5" height="112.055"/>
			<g id="shadow77-359" v:groupContext="shadow" v:shadowOffsetX="2.12132" v:shadowOffsetY="-2.12132" v:shadowType="1"
					transform="matrix(1,0,0,1,2.12132,2.12132)" class="st2">
				<rect x="0" y="729.834" width="128.499" height="112.055" class="st3"/>
			</g>
			<rect x="0" y="729.834" width="128.499" height="112.055" class="st4"/>
			<text x="28.18" y="775.06" class="st5" v:langID="2057"><v:paragraph/><v:tabList/><v:newlineChar/><v:newlineChar/><v:newlineChar/><v:paragraph
						v:indentLeft="14.17"/>submission/<tspan x="18.17" dy="1.2em" class="st6">representations</tspan><tspan
						x="18.17" dy="1.2em" class="st6">       </tspan>file1.odt<tspan x="18.17" dy="1.2em" class="st6">       </tspan>file2.odt<tspan
						x="18.17" dy="1.2em" class="st6">       </tspan>file3.odt</text>		</g>
		<g id="shape78-368" v:mID="78" v:groupContext="shape" transform="translate(443.12,-329.178)">
			<title>Rectangle.1403</title>
			<desc>METS.xml</desc>
			<v:userDefs>
				<v:ud v:nameU="visVersion" v:val="VT0(11):26"/>
			</v:userDefs>
			<v:textBlock v:margins="rect(4,4,4,4)" v:tabSpace="42.5197"/>
			<v:textRect cx="64.4055" cy="828.971" width="128.82" height="25.8374"/>
			<g id="shadow78-369" v:groupContext="shadow" v:shadowOffsetX="1.83697E-16" v:shadowOffsetY="-3" v:shadowType="1"
					transform="matrix(1,0,0,1,0,3)" class="st2">
				<rect x="0" y="816.052" width="128.811" height="25.8374" class="st3"/>
			</g>
			<rect x="0" y="816.052" width="128.811" height="25.8374" class="st7"/>
			<text x="35.73" y="832.57" class="st5" v:langID="2057"><v:paragraph v:horizAlign="1"/><v:tabList/>METS.xml</text>		</g>
		<g id="shape79-374" v:mID="79" v:groupContext="shape" transform="translate(442.374,-372.443)">
			<title>Rectangle.1404</title>
			<desc>rep-001</desc>
			<v:userDefs>
				<v:ud v:nameU="visVersion" v:val="VT0(11):26"/>
			</v:userDefs>
			<v:textBlock v:margins="rect(4,4,4,4)" v:tabSpace="42.5197"/>
			<v:textRect cx="63.7795" cy="827.717" width="127.56" height="28.3465"/>
			<g id="shadow79-375" v:groupContext="shadow" v:shadowOffsetX="2.12132" v:shadowOffsetY="-2.12132" v:shadowType="1"
					transform="matrix(1,0,0,1,2.12132,2.12132)" class="st2">
				<rect x="0" y="813.543" width="127.559" height="28.3465" class="st3"/>
			</g>
			<rect x="0" y="813.543" width="127.559" height="28.3465" class="st4"/>
			<text x="42.43" y="831.32" class="st5" v:langID="2057"><v:paragraph v:horizAlign="1"/><v:tabList/>rep-001</text>		</g>
	</g>
</svg>
