<?xml version="1.0" encoding="UTF-8" standalone="no"?>
<!DOCTYPE svg PUBLIC "-//W3C//DTD SVG 1.1//EN" "http://www.w3.org/Graphics/SVG/1.1/DTD/svg11.dtd">
<!-- Generated by Microsoft Visio, SVG Export Fig4 AIPd.svg Page-1 -->
<svg xmlns="http://www.w3.org/2000/svg" xmlns:xlink="http://www.w3.org/1999/xlink" xmlns:ev="http://www.w3.org/2001/xml-events"
		xmlns:v="http://schemas.microsoft.com/visio/2003/SVGExtensions/" width="23.8031in" height="11.6929in"
		viewBox="0 0 1713.83 841.89" xml:space="preserve" color-interpolation-filters="sRGB" class="st9">
	<v:documentProperties v:langID="2057" v:metric="true" v:viewMarkup="false">
		<v:userDefs>
			<v:ud v:nameU="msvNoAutoConnect" v:val="VT0(1):26"/>
		</v:userDefs>
	</v:documentProperties>

	<style type="text/css">
	<![CDATA[
		.st1 {stroke:#000000;stroke-linecap:round;stroke-linejoin:round;stroke-width:2.25}
		.st2 {visibility:visible}
		.st3 {fill:#000000;fill-opacity:0.4;filter:url(#filter_2.6666667461395);stroke:#000000;stroke-linecap:round;stroke-linejoin:round;stroke-opacity:0.4}
		.st4 {fill:#c6d8f0;stroke:#000000;stroke-linecap:round;stroke-linejoin:round;stroke-width:0.24}
		.st5 {fill:#000000;font-family:Arial;font-size:1.00001em;font-weight:bold}
		.st6 {fill:#000000;font-family:Arial;font-size:1.00001em;font-style:italic;font-weight:bold}
		.st7 {font-size:1em}
		.st8 {fill:#c6d8f0;stroke:#000000;stroke-linecap:round;stroke-linejoin:round;stroke-opacity:0;stroke-width:0.24}
		.st9 {fill:none;fill-rule:evenodd;font-size:12px;overflow:visible;stroke-linecap:square;stroke-miterlimit:3}
	]]>
	</style>

	<defs id="Filters">
		<filter id="filter_2.6666667461395">
			<feGaussianBlur stdDeviation="2.6666667461395"/>
		</filter>
	</defs>
	<g v:mID="0" v:index="1" v:groupContext="foregroundPage">
		<title>Page-1</title>
		<v:pageProperties v:drawingScale="0.0393701" v:pageScale="0.0393701" v:drawingUnits="24" v:shadowOffsetX="8.50394"
				v:shadowOffsetY="-8.50394"/>
		<g id="shape56-1" v:mID="56" v:groupContext="shape" transform="translate(-317.201,443.635) rotate(-90.124)">
			<title>Sheet.56</title>
			<path d="M0 841.89 L85.85 841.89" class="st1"/>
		</g>
		<g id="shape1-4" v:mID="1" v:groupContext="shape" transform="translate(189.129,375.417) rotate(-90.486)">
			<title>Sheet.1</title>
			<path d="M0 841.89 L55.7 841.89" class="st1"/>
		</g>
		<g id="shape2-7" v:mID="2" v:groupContext="shape" transform="translate(275.083,450.81) rotate(-90.0706)">
			<title>Sheet.2</title>
			<path d="M0 841.89 L23.8 841.89" class="st1"/>
		</g>
		<g id="shape3-10" v:mID="3" v:groupContext="shape" transform="translate(529.664,449.099) rotate(-90.0706)">
			<title>Sheet.3</title>
			<path d="M0 841.89 L23.8 841.89" class="st1"/>
		</g>
		<g id="shape4-13" v:mID="4" v:groupContext="shape" transform="translate(2087.8,377.771) rotate(90.5786)">
			<title>Sheet.4</title>
			<path d="M0 841.89 L70.65 841.89" class="st1"/>
		</g>
		<g id="shape5-16" v:mID="5" v:groupContext="shape" transform="translate(1180.95,-432.926)">
			<title>Rectangle.798</title>
			<desc>rep-002</desc>
			<v:userDefs>
				<v:ud v:nameU="visVersion" v:val="VT0(11):26"/>
			</v:userDefs>
			<v:textBlock v:margins="rect(4,4,4,4)" v:tabSpace="42.5197"/>
			<v:textRect cx="63.7795" cy="827.717" width="127.56" height="28.3465"/>
			<g id="shadow5-17" v:groupContext="shadow" v:shadowOffsetX="2.12132" v:shadowOffsetY="-2.12132" v:shadowType="1"
					transform="matrix(1,0,0,1,2.12132,2.12132)" class="st2">
				<rect x="0" y="813.543" width="127.559" height="28.3465" class="st3"/>
			</g>
			<rect x="0" y="813.543" width="127.559" height="28.3465" class="st4"/>
			<text x="42.43" y="831.32" class="st5" v:langID="2057"><v:paragraph v:horizAlign="1"/><v:tabList/>rep-002</text>		</g>
		<g id="shape6-22" v:mID="6" v:groupContext="shape" transform="translate(1373.6,1328.18) rotate(179.9)">
			<title>Sheet.6</title>
			<path d="M0 841.89 L25.7 841.89" class="st1"/>
		</g>
		<g id="shape7-25" v:mID="7" v:groupContext="shape" transform="translate(1375.2,1359.9) rotate(179.502)">
			<title>Sheet.7</title>
			<path d="M0 841.89 L21.45 841.89" class="st1"/>
		</g>
		<g id="shape8-28" v:mID="8" v:groupContext="shape" transform="translate(504.73,552.745) rotate(-90.124)">
			<title>Sheet.8</title>
			<path d="M0 841.89 L85.85 841.89" class="st1"/>
		</g>
		<g id="shape9-31" v:mID="9" v:groupContext="shape" transform="translate(1363.85,1393.87) rotate(180)">
			<title>Sheet.9</title>
			<path d="M0 841.89 L17.74 841.89" class="st1"/>
		</g>
		<g id="shape10-34" v:mID="10" v:groupContext="shape" transform="translate(1326.59,-376.812)">
			<title>Rectangle.803</title>
			<desc>data</desc>
			<v:userDefs>
				<v:ud v:nameU="visVersion" v:val="VT0(11):26"/>
			</v:userDefs>
			<v:textBlock v:margins="rect(4,4,4,4)" v:tabSpace="42.5197"/>
			<v:textRect cx="45.3543" cy="827.717" width="90.71" height="28.3465"/>
			<g id="shadow10-35" v:groupContext="shadow" v:shadowOffsetX="2.12132" v:shadowOffsetY="-2.12132" v:shadowType="1"
					transform="matrix(1,0,0,1,2.12132,2.12132)" class="st2">
				<rect x="0" y="813.543" width="90.7087" height="28.3465" class="st3"/>
			</g>
			<rect x="0" y="813.543" width="90.7087" height="28.3465" class="st4"/>
			<text x="33.02" y="831.32" class="st5" v:langID="2057"><v:paragraph v:horizAlign="1"/><v:tabList/>data</text>		</g>
		<g id="shape11-40" v:mID="11" v:groupContext="shape" transform="translate(1360.61,-344.922)">
			<title>Rectangle.804</title>
			<desc>file1.pdf</desc>
			<v:userDefs>
				<v:ud v:nameU="visVersion" v:val="VT0(11):26"/>
			</v:userDefs>
			<v:textBlock v:margins="rect(4,4,4,4)" v:tabSpace="42.5197"/>
			<v:textRect cx="42.5197" cy="831.26" width="85.04" height="21.2598"/>
			<g id="shadow11-41" v:groupContext="shadow" v:shadowOffsetX="2.12132" v:shadowOffsetY="-2.12132" v:shadowType="1"
					transform="matrix(1,0,0,1,2.12132,2.12132)" class="st2">
				<rect x="0" y="820.63" width="85.0394" height="21.2598" class="st3"/>
			</g>
			<rect x="0" y="820.63" width="85.0394" height="21.2598" class="st4"/>
			<text x="19.52" y="834.86" class="st6" v:langID="2057"><v:paragraph v:horizAlign="1"/><v:tabList/>file1.pdf</text>		</g>
		<g id="shape12-46" v:mID="12" v:groupContext="shape" transform="translate(1360.61,-313.033)">
			<title>Rectangle.805</title>
			<desc>file2.pdf</desc>
			<v:userDefs>
				<v:ud v:nameU="visVersion" v:val="VT0(11):26"/>
			</v:userDefs>
			<v:textBlock v:margins="rect(4,4,4,4)" v:tabSpace="42.5197"/>
			<v:textRect cx="42.5197" cy="831.26" width="85.04" height="21.2598"/>
			<g id="shadow12-47" v:groupContext="shadow" v:shadowOffsetX="2.12132" v:shadowOffsetY="-2.12132" v:shadowType="1"
					transform="matrix(1,0,0,1,2.12132,2.12132)" class="st2">
				<rect x="0" y="820.63" width="85.0394" height="21.2598" class="st3"/>
			</g>
			<rect x="0" y="820.63" width="85.0394" height="21.2598" class="st4"/>
			<text x="19.52" y="834.86" class="st6" v:langID="2057"><v:paragraph v:horizAlign="1"/><v:tabList/>file2.pdf</text>		</g>
		<g id="shape13-52" v:mID="13" v:groupContext="shape" transform="translate(1361.61,-279.464)">
			<title>Rectangle.806</title>
			<desc>file3.pdf</desc>
			<v:userDefs>
				<v:ud v:nameU="visVersion" v:val="VT0(11):26"/>
			</v:userDefs>
			<v:textBlock v:margins="rect(4,4,4,4)" v:tabSpace="42.5197"/>
			<v:textRect cx="42.5197" cy="831.26" width="85.04" height="21.2598"/>
			<g id="shadow13-53" v:groupContext="shadow" v:shadowOffsetX="2.12132" v:shadowOffsetY="-2.12132" v:shadowType="1"
					transform="matrix(1,0,0,1,2.12132,2.12132)" class="st2">
				<rect x="0" y="820.63" width="85.0394" height="21.2598" class="st3"/>
			</g>
			<rect x="0" y="820.63" width="85.0394" height="21.2598" class="st4"/>
			<text x="19.52" y="834.86" class="st6" v:langID="2057"><v:paragraph v:horizAlign="1"/><v:tabList/>file3.pdf</text>		</g>
		<g id="shape14-58" v:mID="14" v:groupContext="shape" transform="translate(1371.52,1266.15) rotate(180)">
			<title>Sheet.14</title>
			<path d="M0 841.89 L254.55 841.89" class="st1"/>
		</g>
		<g id="shape15-61" v:mID="15" v:groupContext="shape" transform="translate(1246.53,1328.18) rotate(179.9)">
			<title>Sheet.15</title>
			<path d="M0 841.89 L25.7 841.89" class="st1"/>
		</g>
		<g id="shape16-64" v:mID="16" v:groupContext="shape" transform="translate(1248.13,1359.9) rotate(179.502)">
			<title>Sheet.16</title>
			<path d="M0 841.89 L21.45 841.89" class="st1"/>
		</g>
		<g id="shape17-67" v:mID="17" v:groupContext="shape" transform="translate(377.66,552.745) rotate(-90.124)">
			<title>Sheet.17</title>
			<path d="M0 841.89 L85.85 841.89" class="st1"/>
		</g>
		<g id="shape18-70" v:mID="18" v:groupContext="shape" transform="translate(1236.78,1393.87) rotate(180)">
			<title>Sheet.18</title>
			<path d="M0 841.89 L17.74 841.89" class="st1"/>
		</g>
		<g id="shape19-73" v:mID="19" v:groupContext="shape" transform="translate(1199.52,-376.812)">
			<title>Rectangle.812</title>
			<desc>metadata</desc>
			<v:userDefs>
				<v:ud v:nameU="visVersion" v:val="VT0(11):26"/>
			</v:userDefs>
			<v:textBlock v:margins="rect(4,4,4,4)" v:tabSpace="42.5197"/>
			<v:textRect cx="45.3543" cy="827.717" width="90.71" height="28.3465"/>
			<g id="shadow19-74" v:groupContext="shadow" v:shadowOffsetX="2.12132" v:shadowOffsetY="-2.12132" v:shadowType="1"
					transform="matrix(1,0,0,1,2.12132,2.12132)" class="st2">
				<rect x="0" y="813.543" width="90.7087" height="28.3465" class="st3"/>
			</g>
			<rect x="0" y="813.543" width="90.7087" height="28.3465" class="st4"/>
			<text x="19.01" y="831.32" class="st5" v:langID="2057"><v:paragraph v:horizAlign="1"/><v:tabList/>metadata</text>		</g>
		<g id="shape20-79" v:mID="20" v:groupContext="shape" transform="translate(1233.54,-344.922)">
			<title>Rectangle.813</title>
			<desc>descriptive</desc>
			<v:userDefs>
				<v:ud v:nameU="visVersion" v:val="VT0(11):26"/>
			</v:userDefs>
			<v:textBlock v:margins="rect(4,4,4,4)" v:tabSpace="42.5197"/>
			<v:textRect cx="42.5197" cy="831.26" width="85.04" height="21.2598"/>
			<g id="shadow20-80" v:groupContext="shadow" v:shadowOffsetX="2.12132" v:shadowOffsetY="-2.12132" v:shadowType="1"
					transform="matrix(1,0,0,1,2.12132,2.12132)" class="st2">
				<rect x="0" y="820.63" width="85.0394" height="21.2598" class="st3"/>
			</g>
			<rect x="0" y="820.63" width="85.0394" height="21.2598" class="st4"/>
			<text x="10.84" y="834.86" class="st6" v:langID="2057"><v:paragraph v:horizAlign="1"/><v:tabList/>descriptive</text>		</g>
		<g id="shape21-85" v:mID="21" v:groupContext="shape" transform="translate(1233.54,-313.033)">
			<title>Rectangle.814</title>
			<desc>preservation</desc>
			<v:userDefs>
				<v:ud v:nameU="visVersion" v:val="VT0(11):26"/>
			</v:userDefs>
			<v:textBlock v:margins="rect(4,4,4,4)" v:tabSpace="42.5197"/>
			<v:textRect cx="42.5197" cy="831.26" width="85.04" height="21.2598"/>
			<g id="shadow21-86" v:groupContext="shadow" v:shadowOffsetX="2.12132" v:shadowOffsetY="-2.12132" v:shadowType="1"
					transform="matrix(1,0,0,1,2.12132,2.12132)" class="st2">
				<rect x="0" y="820.63" width="85.0394" height="21.2598" class="st3"/>
			</g>
			<rect x="0" y="820.63" width="85.0394" height="21.2598" class="st4"/>
			<text x="6.5" y="834.86" class="st6" v:langID="2057"><v:paragraph v:horizAlign="1"/><v:tabList/>preservation</text>		</g>
		<g id="shape22-91" v:mID="22" v:groupContext="shape" transform="translate(1234.54,-279.464)">
			<title>Rectangle.815</title>
			<desc>other</desc>
			<v:userDefs>
				<v:ud v:nameU="visVersion" v:val="VT0(11):26"/>
			</v:userDefs>
			<v:textBlock v:margins="rect(4,4,4,4)" v:tabSpace="42.5197"/>
			<v:textRect cx="42.5197" cy="831.26" width="85.04" height="21.2598"/>
			<g id="shadow22-92" v:groupContext="shadow" v:shadowOffsetX="2.12132" v:shadowOffsetY="-2.12132" v:shadowType="1"
					transform="matrix(1,0,0,1,2.12132,2.12132)" class="st2">
				<rect x="0" y="820.63" width="85.0394" height="21.2598" class="st3"/>
			</g>
			<rect x="0" y="820.63" width="85.0394" height="21.2598" class="st4"/>
			<text x="27.52" y="834.86" class="st6" v:langID="2057"><v:paragraph v:horizAlign="1"/><v:tabList/>other</text>		</g>
		<g id="shape23-97" v:mID="23" v:groupContext="shape" transform="translate(1071.62,-318.983)">
			<title>Rectangle.816</title>
			<desc>METS.xml file1.pdf file2.pdf file3.pdf</desc>
			<v:userDefs>
				<v:ud v:nameU="visVersion" v:val="VT0(11):26"/>
			</v:userDefs>
			<v:textBlock v:margins="rect(4,4,4,4)" v:tabSpace="42.5197"/>
			<v:textRect cx="45.5743" cy="798.661" width="91.15" height="86.4567"/>
			<g id="shadow23-98" v:groupContext="shadow" v:shadowOffsetX="2.12132" v:shadowOffsetY="-2.12132" v:shadowType="1"
					transform="matrix(1,0,0,1,2.12132,2.12132)" class="st2">
				<rect x="0" y="755.433" width="91.1485" height="86.4567" class="st3"/>
			</g>
			<rect x="0" y="755.433" width="91.1485" height="86.4567" class="st4"/>
			<text x="20.67" y="773.46" class="st5" v:langID="2057"><v:paragraph/><v:tabList/><v:newlineChar/>METS.xml<tspan x="4"
						dy="2.4em" class="st7">    </tspan>file1.pdf<tspan x="4" dy="1.2em" class="st7">    </tspan>file2.pdf<tspan
						x="4" dy="1.2em" class="st7">    </tspan>file3.pdf<v:newlineChar/></text>		</g>
		<g id="shape24-106" v:mID="24" v:groupContext="shape" transform="translate(-121.722,502.772) rotate(-89.9509)">
			<title>Sheet.24</title>
			<path d="M0 841.89 L77.38 841.89" class="st1"/>
		</g>
		<g id="shape25-109" v:mID="25" v:groupContext="shape" transform="translate(128.338,450.951) rotate(-90.0706)">
			<title>Sheet.25</title>
			<path d="M0 841.89 L23.8 841.89" class="st1"/>
		</g>
		<g id="shape26-112" v:mID="26" v:groupContext="shape" transform="translate(1685.3,362.006) rotate(89.6215)">
			<title>Sheet.26</title>
			<path d="M0 841.89 L72.65 841.89" class="st1"/>
		</g>
		<g id="shape27-115" v:mID="27" v:groupContext="shape" transform="translate(779.724,-431.28)">
			<title>Rectangle.822</title>
			<desc>rep-001</desc>
			<v:userDefs>
				<v:ud v:nameU="visVersion" v:val="VT0(11):26"/>
			</v:userDefs>
			<v:textBlock v:margins="rect(4,4,4,4)" v:tabSpace="42.5197"/>
			<v:textRect cx="63.7795" cy="827.717" width="127.56" height="28.3465"/>
			<g id="shadow27-116" v:groupContext="shadow" v:shadowOffsetX="2.12132" v:shadowOffsetY="-2.12132" v:shadowType="1"
					transform="matrix(1,0,0,1,2.12132,2.12132)" class="st2">
				<rect x="0" y="813.543" width="127.559" height="28.3465" class="st3"/>
			</g>
			<rect x="0" y="813.543" width="127.559" height="28.3465" class="st4"/>
			<text x="42.43" y="831.32" class="st5" v:langID="2057"><v:paragraph v:horizAlign="1"/><v:tabList/>rep-001</text>		</g>
		<g id="shape28-121" v:mID="28" v:groupContext="shape" transform="translate(972.27,1330.03) rotate(179.9)">
			<title>Sheet.28</title>
			<path d="M0 841.89 L25.7 841.89" class="st1"/>
		</g>
		<g id="shape29-124" v:mID="29" v:groupContext="shape" transform="translate(973.872,1361.75) rotate(179.502)">
			<title>Sheet.29</title>
			<path d="M0 841.89 L21.45 841.89" class="st1"/>
		</g>
		<g id="shape30-127" v:mID="30" v:groupContext="shape" transform="translate(103.404,554.597) rotate(-90.124)">
			<title>Sheet.30</title>
			<path d="M0 841.89 L85.85 841.89" class="st1"/>
		</g>
		<g id="shape31-130" v:mID="31" v:groupContext="shape" transform="translate(962.523,1395.72) rotate(180)">
			<title>Sheet.31</title>
			<path d="M0 841.89 L17.74 841.89" class="st1"/>
		</g>
		<g id="shape32-133" v:mID="32" v:groupContext="shape" transform="translate(925.264,-374.96)">
			<title>Rectangle.827</title>
			<desc>data</desc>
			<v:userDefs>
				<v:ud v:nameU="visVersion" v:val="VT0(11):26"/>
			</v:userDefs>
			<v:textBlock v:margins="rect(4,4,4,4)" v:tabSpace="42.5197"/>
			<v:textRect cx="45.3543" cy="827.717" width="90.71" height="28.3465"/>
			<g id="shadow32-134" v:groupContext="shadow" v:shadowOffsetX="2.12132" v:shadowOffsetY="-2.12132" v:shadowType="1"
					transform="matrix(1,0,0,1,2.12132,2.12132)" class="st2">
				<rect x="0" y="813.543" width="90.7087" height="28.3465" class="st3"/>
			</g>
			<rect x="0" y="813.543" width="90.7087" height="28.3465" class="st4"/>
			<text x="33.02" y="831.32" class="st5" v:langID="2057"><v:paragraph v:horizAlign="1"/><v:tabList/>data</text>		</g>
		<g id="shape33-139" v:mID="33" v:groupContext="shape" transform="translate(959.279,-343.07)">
			<title>Rectangle.828</title>
			<desc>file1.odt</desc>
			<v:userDefs>
				<v:ud v:nameU="visVersion" v:val="VT0(11):26"/>
			</v:userDefs>
			<v:textBlock v:margins="rect(4,4,4,4)" v:tabSpace="42.5197"/>
			<v:textRect cx="42.5197" cy="831.26" width="85.04" height="21.2598"/>
			<g id="shadow33-140" v:groupContext="shadow" v:shadowOffsetX="2.12132" v:shadowOffsetY="-2.12132" v:shadowType="1"
					transform="matrix(1,0,0,1,2.12132,2.12132)" class="st2">
				<rect x="0" y="820.63" width="85.0394" height="21.2598" class="st3"/>
			</g>
			<rect x="0" y="820.63" width="85.0394" height="21.2598" class="st4"/>
			<text x="19.52" y="834.86" class="st6" v:langID="2057"><v:paragraph v:horizAlign="1"/><v:tabList/>file1.odt</text>		</g>
		<g id="shape34-145" v:mID="34" v:groupContext="shape" transform="translate(959.279,-311.181)">
			<title>Rectangle.829</title>
			<desc>file2.odt</desc>
			<v:userDefs>
				<v:ud v:nameU="visVersion" v:val="VT0(11):26"/>
			</v:userDefs>
			<v:textBlock v:margins="rect(4,4,4,4)" v:tabSpace="42.5197"/>
			<v:textRect cx="42.5197" cy="831.26" width="85.04" height="21.2598"/>
			<g id="shadow34-146" v:groupContext="shadow" v:shadowOffsetX="2.12132" v:shadowOffsetY="-2.12132" v:shadowType="1"
					transform="matrix(1,0,0,1,2.12132,2.12132)" class="st2">
				<rect x="0" y="820.63" width="85.0394" height="21.2598" class="st3"/>
			</g>
			<rect x="0" y="820.63" width="85.0394" height="21.2598" class="st4"/>
			<text x="19.52" y="834.86" class="st6" v:langID="2057"><v:paragraph v:horizAlign="1"/><v:tabList/>file2.odt</text>		</g>
		<g id="shape35-151" v:mID="35" v:groupContext="shape" transform="translate(960.286,-277.612)">
			<title>Rectangle.830</title>
			<desc>file3.odt</desc>
			<v:userDefs>
				<v:ud v:nameU="visVersion" v:val="VT0(11):26"/>
			</v:userDefs>
			<v:textBlock v:margins="rect(4,4,4,4)" v:tabSpace="42.5197"/>
			<v:textRect cx="42.5197" cy="831.26" width="85.04" height="21.2598"/>
			<g id="shadow35-152" v:groupContext="shadow" v:shadowOffsetX="2.12132" v:shadowOffsetY="-2.12132" v:shadowType="1"
					transform="matrix(1,0,0,1,2.12132,2.12132)" class="st2">
				<rect x="0" y="820.63" width="85.0394" height="21.2598" class="st3"/>
			</g>
			<rect x="0" y="820.63" width="85.0394" height="21.2598" class="st4"/>
			<text x="19.52" y="834.86" class="st6" v:langID="2057"><v:paragraph v:horizAlign="1"/><v:tabList/>file3.odt</text>		</g>
		<g id="shape36-157" v:mID="36" v:groupContext="shape" transform="translate(969.688,1268) rotate(-179.965)">
			<title>Sheet.36</title>
			<path d="M0 841.89 L250.08 841.89" class="st1"/>
		</g>
		<g id="shape37-160" v:mID="37" v:groupContext="shape" transform="translate(845.2,1330.03) rotate(179.9)">
			<title>Sheet.37</title>
			<path d="M0 841.89 L25.7 841.89" class="st1"/>
		</g>
		<g id="shape38-163" v:mID="38" v:groupContext="shape" transform="translate(846.802,1361.75) rotate(179.502)">
			<title>Sheet.38</title>
			<path d="M0 841.89 L21.45 841.89" class="st1"/>
		</g>
		<g id="shape39-166" v:mID="39" v:groupContext="shape" transform="translate(-23.6663,554.597) rotate(-90.124)">
			<title>Sheet.39</title>
			<path d="M0 841.89 L85.85 841.89" class="st1"/>
		</g>
		<g id="shape40-169" v:mID="40" v:groupContext="shape" transform="translate(835.453,1395.72) rotate(180)">
			<title>Sheet.40</title>
			<path d="M0 841.89 L17.74 841.89" class="st1"/>
		</g>
		<g id="shape41-172" v:mID="41" v:groupContext="shape" transform="translate(798.193,-374.96)">
			<title>Rectangle.836</title>
			<desc>metadata</desc>
			<v:userDefs>
				<v:ud v:nameU="visVersion" v:val="VT0(11):26"/>
			</v:userDefs>
			<v:textBlock v:margins="rect(4,4,4,4)" v:tabSpace="42.5197"/>
			<v:textRect cx="45.3543" cy="827.717" width="90.71" height="28.3465"/>
			<g id="shadow41-173" v:groupContext="shadow" v:shadowOffsetX="2.12132" v:shadowOffsetY="-2.12132" v:shadowType="1"
					transform="matrix(1,0,0,1,2.12132,2.12132)" class="st2">
				<rect x="0" y="813.543" width="90.7087" height="28.3465" class="st3"/>
			</g>
			<rect x="0" y="813.543" width="90.7087" height="28.3465" class="st4"/>
			<text x="19.01" y="831.32" class="st5" v:langID="2057"><v:paragraph v:horizAlign="1"/><v:tabList/>metadata</text>		</g>
		<g id="shape42-178" v:mID="42" v:groupContext="shape" transform="translate(832.209,-343.07)">
			<title>Rectangle.837</title>
			<desc>descriptive</desc>
			<v:userDefs>
				<v:ud v:nameU="visVersion" v:val="VT0(11):26"/>
			</v:userDefs>
			<v:textBlock v:margins="rect(4,4,4,4)" v:tabSpace="42.5197"/>
			<v:textRect cx="42.5197" cy="831.26" width="85.04" height="21.2598"/>
			<g id="shadow42-179" v:groupContext="shadow" v:shadowOffsetX="2.12132" v:shadowOffsetY="-2.12132" v:shadowType="1"
					transform="matrix(1,0,0,1,2.12132,2.12132)" class="st2">
				<rect x="0" y="820.63" width="85.0394" height="21.2598" class="st3"/>
			</g>
			<rect x="0" y="820.63" width="85.0394" height="21.2598" class="st4"/>
			<text x="10.84" y="834.86" class="st6" v:langID="2057"><v:paragraph v:horizAlign="1"/><v:tabList/>descriptive</text>		</g>
		<g id="shape43-184" v:mID="43" v:groupContext="shape" transform="translate(832.209,-311.181)">
			<title>Rectangle.838</title>
			<desc>preservation</desc>
			<v:userDefs>
				<v:ud v:nameU="visVersion" v:val="VT0(11):26"/>
			</v:userDefs>
			<v:textBlock v:margins="rect(4,4,4,4)" v:tabSpace="42.5197"/>
			<v:textRect cx="42.5197" cy="831.26" width="85.04" height="21.2598"/>
			<g id="shadow43-185" v:groupContext="shadow" v:shadowOffsetX="2.12132" v:shadowOffsetY="-2.12132" v:shadowType="1"
					transform="matrix(1,0,0,1,2.12132,2.12132)" class="st2">
				<rect x="0" y="820.63" width="85.0394" height="21.2598" class="st3"/>
			</g>
			<rect x="0" y="820.63" width="85.0394" height="21.2598" class="st4"/>
			<text x="6.5" y="834.86" class="st6" v:langID="2057"><v:paragraph v:horizAlign="1"/><v:tabList/>preservation</text>		</g>
		<g id="shape44-190" v:mID="44" v:groupContext="shape" transform="translate(833.215,-277.612)">
			<title>Rectangle.839</title>
			<desc>other</desc>
			<v:userDefs>
				<v:ud v:nameU="visVersion" v:val="VT0(11):26"/>
			</v:userDefs>
			<v:textBlock v:margins="rect(4,4,4,4)" v:tabSpace="42.5197"/>
			<v:textRect cx="42.5197" cy="831.26" width="85.04" height="21.2598"/>
			<g id="shadow44-191" v:groupContext="shadow" v:shadowOffsetX="2.12132" v:shadowOffsetY="-2.12132" v:shadowType="1"
					transform="matrix(1,0,0,1,2.12132,2.12132)" class="st2">
				<rect x="0" y="820.63" width="85.0394" height="21.2598" class="st3"/>
			</g>
			<rect x="0" y="820.63" width="85.0394" height="21.2598" class="st4"/>
			<text x="27.52" y="834.86" class="st6" v:langID="2057"><v:paragraph v:horizAlign="1"/><v:tabList/>other</text>		</g>
		<g id="shape45-196" v:mID="45" v:groupContext="shape" transform="translate(678.59,-317.365)">
			<title>Rectangle.840</title>
			<desc>METS.xml file1.odt file2.odt file3.odt</desc>
			<v:userDefs>
				<v:ud v:nameU="visVersion" v:val="VT0(11):26"/>
			</v:userDefs>
			<v:textBlock v:margins="rect(4,4,4,4)" v:tabSpace="42.5197"/>
			<v:textRect cx="41.1024" cy="798.661" width="82.21" height="86.4567"/>
			<g id="shadow45-197" v:groupContext="shadow" v:shadowOffsetX="2.12132" v:shadowOffsetY="-2.12132" v:shadowType="1"
					transform="matrix(1,0,0,1,2.12132,2.12132)" class="st2">
				<rect x="0" y="755.433" width="82.2047" height="86.4567" class="st3"/>
			</g>
			<rect x="0" y="755.433" width="82.2047" height="86.4567" class="st4"/>
			<text x="20.67" y="773.46" class="st5" v:langID="2057"><v:paragraph/><v:tabList/><v:newlineChar/>METS.xml<tspan x="4"
						dy="2.4em" class="st7">    </tspan>file1.odt<tspan x="4" dy="1.2em" class="st7">    </tspan>file2.odt<tspan
						x="4" dy="1.2em" class="st7">    </tspan>file3.odt<v:newlineChar/></text>		</g>
		<g id="shape46-205" v:mID="46" v:groupContext="shape" transform="translate(669.015,-542.603)">
			<title>Rectangle.845</title>
			<desc>IP</desc>
			<v:userDefs>
				<v:ud v:nameU="visVersion" v:val="VT0(11):26"/>
			</v:userDefs>
			<v:textBlock v:margins="rect(4,4,4,4)" v:tabSpace="42.5197"/>
			<v:textRect cx="63.7795" cy="827.717" width="127.56" height="28.3465"/>
			<g id="shadow46-206" v:groupContext="shadow" v:shadowOffsetX="2.12132" v:shadowOffsetY="-2.12132" v:shadowType="1"
					transform="matrix(1,0,0,1,2.12132,2.12132)" class="st2">
				<rect x="0" y="813.543" width="127.559" height="28.3465" class="st3"/>
			</g>
			<rect x="0" y="813.543" width="127.559" height="28.3465" class="st4"/>
			<text x="58.11" y="831.32" class="st5" v:langID="2057"><v:paragraph v:horizAlign="1"/><v:tabList/>IP</text>		</g>
		<g id="shape47-211" v:mID="47" v:groupContext="shape" transform="translate(369.321,-528.747) rotate(-0.0491809)">
			<title>Sheet.47</title>
			<path d="M0 841.89 L660.47 841.89" class="st1"/>
		</g>
		<g id="shape48-214" v:mID="48" v:groupContext="shape" transform="translate(-472.443,328.36) rotate(-90)">
			<title>Sheet.48</title>
			<path d="M0 841.89 L14.17 841.89" class="st1"/>
		</g>
		<g id="shape49-217" v:mID="49" v:groupContext="shape" transform="translate(967.546,-486.268)">
			<title>Rectangle.849</title>
			<desc>representations</desc>
			<v:userDefs>
				<v:ud v:nameU="visVersion" v:val="VT0(11):26"/>
			</v:userDefs>
			<v:textBlock v:margins="rect(4,4,4,4)" v:tabSpace="42.5197"/>
			<v:textRect cx="63.7795" cy="827.717" width="127.56" height="28.3465"/>
			<g id="shadow49-218" v:groupContext="shadow" v:shadowOffsetX="2.12132" v:shadowOffsetY="-2.12132" v:shadowType="1"
					transform="matrix(1,0,0,1,2.12132,2.12132)" class="st2">
				<rect x="0" y="813.543" width="127.559" height="28.3465" class="st3"/>
			</g>
			<rect x="0" y="813.543" width="127.559" height="28.3465" class="st4"/>
			<text x="18.76" y="831.32" class="st5" v:langID="2057"><v:paragraph v:horizAlign="1"/><v:tabList/>representations</text>		</g>
		<g id="shape50-223" v:mID="50" v:groupContext="shape" transform="translate(260.91,-444.275)">
			<title>Rectangle.851</title>
			<desc>METS.xml representations/rep-001/METS.xml representations/rep...</desc>
			<v:userDefs>
				<v:ud v:nameU="visVersion" v:val="VT0(11):26"/>
			</v:userDefs>
			<v:textBlock v:margins="rect(4,4,4,4)" v:tabSpace="42.5197"/>
			<v:textRect cx="108.071" cy="807.077" width="216.15" height="69.6257"/>
			<g id="shadow50-224" v:groupContext="shadow" v:shadowOffsetX="2.12132" v:shadowOffsetY="-2.12132" v:shadowType="1"
					transform="matrix(1,0,0,1,2.12132,2.12132)" class="st2">
				<rect x="0" y="772.264" width="216.142" height="69.6257" class="st3"/>
			</g>
			<rect x="0" y="772.264" width="216.142" height="69.6257" class="st4"/>
			<text x="80.68" y="792.68" class="st5" v:langID="2057"><v:paragraph/><v:tabList/><v:newlineChar/>METS.xml<tspan x="4"
						dy="1.8em" class="st7">  </tspan>representations/rep-001/METS.xml<tspan x="4" dy="1.2em" class="st7">  </tspan>representations/rep-002/METS.xml<v:newlineChar/></text>		</g>
		<g id="shape51-231" v:mID="51" v:groupContext="shape" transform="translate(498.311,-485.554)">
			<title>Rectangle.852</title>
			<desc>metadata</desc>
			<v:userDefs>
				<v:ud v:nameU="visVersion" v:val="VT0(11):26"/>
			</v:userDefs>
			<v:textBlock v:margins="rect(4,4,4,4)" v:tabSpace="42.5197"/>
			<v:textRect cx="63.7795" cy="827.717" width="127.56" height="28.3465"/>
			<g id="shadow51-232" v:groupContext="shadow" v:shadowOffsetX="2.12132" v:shadowOffsetY="-2.12132" v:shadowType="1"
					transform="matrix(1,0,0,1,2.12132,2.12132)" class="st2">
				<rect x="0" y="813.543" width="127.559" height="28.3465" class="st3"/>
			</g>
			<rect x="0" y="813.543" width="127.559" height="28.3465" class="st4"/>
			<text x="37.44" y="831.32" class="st5" v:langID="2057"><v:paragraph v:horizAlign="1"/><v:tabList/>metadata</text>		</g>
		<g id="shape52-237" v:mID="52" v:groupContext="shape" transform="translate(-279.799,327.99) rotate(-90)">
			<title>Sheet.52</title>
			<path d="M0 841.89 L14.17 841.89" class="st1"/>
		</g>
		<g id="shape53-240" v:mID="53" v:groupContext="shape" transform="translate(-109.095,313.46) rotate(-90)">
			<title>Sheet.53</title>
			<path d="M0 841.89 L14.17 841.89" class="st1"/>
		</g>
		<g id="shape54-243" v:mID="54" v:groupContext="shape" transform="translate(551.665,1219.07) rotate(179.9)">
			<title>Sheet.54</title>
			<path d="M0 841.89 L25.7 841.89" class="st1"/>
		</g>
		<g id="shape55-246" v:mID="55" v:groupContext="shape" transform="translate(553.267,1250.79) rotate(179.502)">
			<title>Sheet.55</title>
			<path d="M0 841.89 L21.45 841.89" class="st1"/>
		</g>
		<g id="shape57-249" v:mID="57" v:groupContext="shape" transform="translate(541.918,1284.76) rotate(180)">
			<title>Sheet.57</title>
			<path d="M0 841.89 L17.74 841.89" class="st1"/>
		</g>
		<g id="shape58-252" v:mID="58" v:groupContext="shape" transform="translate(538.674,-454.032)">
			<title>Rectangle.875</title>
			<desc>descriptive</desc>
			<v:userDefs>
				<v:ud v:nameU="visVersion" v:val="VT0(11):26"/>
			</v:userDefs>
			<v:textBlock v:margins="rect(4,4,4,4)" v:tabSpace="42.5197"/>
			<v:textRect cx="42.5197" cy="831.26" width="85.04" height="21.2598"/>
			<g id="shadow58-253" v:groupContext="shadow" v:shadowOffsetX="2.12132" v:shadowOffsetY="-2.12132" v:shadowType="1"
					transform="matrix(1,0,0,1,2.12132,2.12132)" class="st2">
				<rect x="0" y="820.63" width="85.0394" height="21.2598" class="st3"/>
			</g>
			<rect x="0" y="820.63" width="85.0394" height="21.2598" class="st4"/>
			<text x="10.84" y="834.86" class="st5" v:langID="2057"><v:paragraph v:horizAlign="1"/><v:tabList/>descriptive</text>		</g>
		<g id="shape59-258" v:mID="59" v:groupContext="shape" transform="translate(538.674,-422.142)">
			<title>Rectangle.876</title>
			<desc>preservation</desc>
			<v:userDefs>
				<v:ud v:nameU="visVersion" v:val="VT0(11):26"/>
			</v:userDefs>
			<v:textBlock v:margins="rect(4,4,4,4)" v:tabSpace="42.5197"/>
			<v:textRect cx="42.5197" cy="831.26" width="85.04" height="21.2598"/>
			<g id="shadow59-259" v:groupContext="shadow" v:shadowOffsetX="2.12132" v:shadowOffsetY="-2.12132" v:shadowType="1"
					transform="matrix(1,0,0,1,2.12132,2.12132)" class="st2">
				<rect x="0" y="820.63" width="85.0394" height="21.2598" class="st3"/>
			</g>
			<rect x="0" y="820.63" width="85.0394" height="21.2598" class="st4"/>
			<text x="6.5" y="834.86" class="st5" v:langID="2057"><v:paragraph v:horizAlign="1"/><v:tabList/>preservation</text>		</g>
		<g id="shape60-264" v:mID="60" v:groupContext="shape" transform="translate(539.681,-388.574)">
			<title>Rectangle.877</title>
			<desc>other</desc>
			<v:userDefs>
				<v:ud v:nameU="visVersion" v:val="VT0(11):26"/>
			</v:userDefs>
			<v:textBlock v:margins="rect(4,4,4,4)" v:tabSpace="42.5197"/>
			<v:textRect cx="42.5197" cy="831.26" width="85.04" height="21.2598"/>
			<g id="shadow60-265" v:groupContext="shadow" v:shadowOffsetX="2.12132" v:shadowOffsetY="-2.12132" v:shadowType="1"
					transform="matrix(1,0,0,1,2.12132,2.12132)" class="st2">
				<rect x="0" y="820.63" width="85.0394" height="21.2598" class="st3"/>
			</g>
			<rect x="0" y="820.63" width="85.0394" height="21.2598" class="st4"/>
			<text x="27.52" y="834.86" class="st5" v:langID="2057"><v:paragraph v:horizAlign="1"/><v:tabList/>other</text>		</g>
		<g id="shape61-270" v:mID="61" v:groupContext="shape" transform="translate(1245.95,1210.31) rotate(180)">
			<title>Sheet.61</title>
			<path d="M0 841.89 L402.52 841.89" class="st1"/>
		</g>
		<g id="shape62-273" v:mID="62" v:groupContext="shape" transform="translate(260.91,-486.227)">
			<title>Rectangle.1053</title>
			<desc>METS.xml</desc>
			<v:userDefs>
				<v:ud v:nameU="visVersion" v:val="VT0(11):26"/>
			</v:userDefs>
			<v:textBlock v:margins="rect(4,4,4,4)" v:tabSpace="42.5197"/>
			<v:textRect cx="107.587" cy="829.521" width="215.18" height="24.7375"/>
			<g id="shadow62-274" v:groupContext="shadow" v:shadowOffsetX="1.83697E-16" v:shadowOffsetY="-3" v:shadowType="1"
					transform="matrix(1,0,0,1,0,3)" class="st2">
				<rect x="0" y="817.152" width="215.174" height="24.7375" class="st3"/>
			</g>
			<rect x="0" y="817.152" width="215.174" height="24.7375" class="st8"/>
			<text x="78.91" y="833.12" class="st5" v:langID="2057"><v:paragraph v:horizAlign="1"/><v:tabList/>METS.xml</text>		</g>
		<g id="shape63-279" v:mID="63" v:groupContext="shape" transform="translate(1071.62,-378.63)">
			<title>Rectangle.1055</title>
			<desc>METS.xml</desc>
			<v:userDefs>
				<v:ud v:nameU="visVersion" v:val="VT0(11):26"/>
			</v:userDefs>
			<v:textBlock v:margins="rect(4,4,4,4)" v:tabSpace="42.5197"/>
			<v:textRect cx="44.6457" cy="830.069" width="89.3" height="23.6406"/>
			<g id="shadow63-280" v:groupContext="shadow" v:shadowOffsetX="1.83697E-16" v:shadowOffsetY="-3" v:shadowType="1"
					transform="matrix(1,0,0,1,0,3)" class="st2">
				<rect x="0" y="818.249" width="89.2913" height="23.6406" class="st3"/>
			</g>
			<rect x="0" y="818.249" width="89.2913" height="23.6406" class="st8"/>
			<text x="15.97" y="833.67" class="st5" v:langID="2057"><v:paragraph v:horizAlign="1"/><v:tabList/>METS.xml</text>		</g>
		<g id="shape64-285" v:mID="64" v:groupContext="shape" transform="translate(678.59,-377.949)">
			<title>Rectangle.1056</title>
			<desc>METS.xml</desc>
			<v:userDefs>
				<v:ud v:nameU="visVersion" v:val="VT0(11):26"/>
			</v:userDefs>
			<v:textBlock v:margins="rect(4,4,4,4)" v:tabSpace="42.5197"/>
			<v:textRect cx="40.86" cy="830.069" width="81.73" height="23.6406"/>
			<g id="shadow64-286" v:groupContext="shadow" v:shadowOffsetX="1.83697E-16" v:shadowOffsetY="-3" v:shadowType="1"
					transform="matrix(1,0,0,1,0,3)" class="st2">
				<rect x="0" y="818.249" width="81.7201" height="23.6406" class="st3"/>
			</g>
			<rect x="0" y="818.249" width="81.7201" height="23.6406" class="st8"/>
			<text x="12.19" y="833.67" class="st5" v:langID="2057"><v:paragraph v:horizAlign="1"/><v:tabList/>METS.xml</text>		</g>
	</g>
</svg>
