<?xml version="1.0" encoding="UTF-8" standalone="no"?>
<!DOCTYPE svg PUBLIC "-//W3C//DTD SVG 1.1//EN" "http://www.w3.org/Graphics/SVG/1.1/DTD/svg11.dtd">
<!-- Generated by Microsoft Visio, SVG Export Fig5 AIPa.svg Page-1 -->
<svg xmlns="http://www.w3.org/2000/svg" xmlns:xlink="http://www.w3.org/1999/xlink" xmlns:ev="http://www.w3.org/2001/xml-events"
		xmlns:v="http://schemas.microsoft.com/visio/2003/SVGExtensions/" width="16.9767in" height="4.18858in"
		viewBox="0 0 1222.32 301.578" xml:space="preserve" color-interpolation-filters="sRGB" class="st9">
	<v:documentProperties v:langID="2057" v:metric="true" v:viewMarkup="false"/>

	<style type="text/css">
	<![CDATA[
		.st1 {stroke:#000000;stroke-linecap:round;stroke-linejoin:round;stroke-width:2.25}
		.st2 {visibility:visible}
		.st3 {fill:#000000;fill-opacity:0.4;filter:url(#filter_2.6666667461395);stroke:#000000;stroke-linecap:round;stroke-linejoin:round;stroke-opacity:0.4}
		.st4 {fill:#c6d8f0;stroke:#000000;stroke-linecap:round;stroke-linejoin:round;stroke-width:0.24}
		.st5 {fill:#000000;font-family:Arial;font-size:1.00001em;font-weight:bold}
		.st6 {fill:#000000;font-family:Arial;font-size:1.00001em;font-style:italic;font-weight:bold}
		.st7 {font-size:1em}
		.st8 {fill:#c6d8f0;stroke:#000000;stroke-linecap:round;stroke-linejoin:round;stroke-opacity:0;stroke-width:0.24}
		.st9 {fill:none;fill-rule:evenodd;font-size:12px;overflow:visible;stroke-linecap:square;stroke-miterlimit:3}
	]]>
	</style>

	<defs id="Filters">
		<filter id="filter_2.6666667461395">
			<feGaussianBlur stdDeviation="2.6666667461395"/>
		</filter>
	</defs>
	<g v:mID="0" v:index="1" v:groupContext="foregroundPage">
		<title>Page-1</title>
		<v:pageProperties v:drawingScale="0.0393701" v:pageScale="0.0393701" v:drawingUnits="24" v:shadowOffsetX="8.50394"
				v:shadowOffsetY="-8.50394"/>
		<g id="shape1-1" v:mID="1" v:groupContext="shape" transform="translate(498.853,101.893) rotate(-90.486)">
			<title>Sheet.1</title>
			<path d="M0 301.58 L55.7 301.58" class="st1"/>
		</g>
		<g id="shape2-4" v:mID="2" v:groupContext="shape" transform="translate(584.826,181.203) rotate(-90.0706)">
			<title>Sheet.2</title>
			<path d="M0 301.58 L23.8 301.58" class="st1"/>
		</g>
		<g id="shape3-7" v:mID="3" v:groupContext="shape" transform="translate(839.407,179.492) rotate(-90.0706)">
			<title>Sheet.3</title>
			<path d="M0 301.58 L23.8 301.58" class="st1"/>
		</g>
		<g id="shape4-10" v:mID="4" v:groupContext="shape" transform="translate(1316.94,103.373) rotate(90.5786)">
			<title>Sheet.4</title>
			<path d="M0 301.58 L70.65 301.58" class="st1"/>
		</g>
		<g id="shape5-13" v:mID="5" v:groupContext="shape" transform="translate(950.378,-161.555)">
			<title>Rectangle.931</title>
			<desc>binary</desc>
			<v:userDefs>
				<v:ud v:nameU="visVersion" v:val="VT0(11):26"/>
			</v:userDefs>
			<v:textBlock v:margins="rect(4,4,4,4)" v:tabSpace="42.5197"/>
			<v:textRect cx="63.7795" cy="287.404" width="127.56" height="28.3465"/>
			<g id="shadow5-14" v:groupContext="shadow" v:shadowOffsetX="2.12132" v:shadowOffsetY="-2.12132" v:shadowType="1"
					transform="matrix(1,0,0,1,2.12132,2.12132)" class="st2">
				<rect x="0" y="273.231" width="127.559" height="28.3465" class="st3"/>
			</g>
			<rect x="0" y="273.231" width="127.559" height="28.3465" class="st4"/>
			<text x="45.77" y="291" class="st5" v:langID="2057"><v:paragraph v:horizAlign="1"/><v:tabList/>binary</text>		</g>
		<g id="shape6-19" v:mID="6" v:groupContext="shape" transform="translate(1142.09,518.929) rotate(179.9)">
			<title>Sheet.6</title>
			<path d="M0 301.58 L25.7 301.58" class="st1"/>
		</g>
		<g id="shape7-22" v:mID="7" v:groupContext="shape" transform="translate(1139.93,550.666) rotate(179.502)">
			<title>Sheet.7</title>
			<path d="M0 301.58 L21.45 301.58" class="st1"/>
		</g>
		<g id="shape8-25" v:mID="8" v:groupContext="shape" transform="translate(814.472,282.634) rotate(-90.124)">
			<title>Sheet.8</title>
			<path d="M0 301.58 L85.85 301.58" class="st1"/>
		</g>
		<g id="shape9-28" v:mID="9" v:groupContext="shape" transform="translate(1133.28,584.618) rotate(180)">
			<title>Sheet.9</title>
			<path d="M0 301.58 L17.74 301.58" class="st1"/>
		</g>
		<g id="shape10-31" v:mID="10" v:groupContext="shape" transform="translate(1096.02,-105.441)">
			<title>Rectangle.936</title>
			<desc>data</desc>
			<v:userDefs>
				<v:ud v:nameU="visVersion" v:val="VT0(11):26"/>
			</v:userDefs>
			<v:textBlock v:margins="rect(4,4,4,4)" v:tabSpace="42.5197"/>
			<v:textRect cx="45.3543" cy="287.404" width="90.71" height="28.3465"/>
			<g id="shadow10-32" v:groupContext="shadow" v:shadowOffsetX="2.12132" v:shadowOffsetY="-2.12132" v:shadowType="1"
					transform="matrix(1,0,0,1,2.12132,2.12132)" class="st2">
				<rect x="0" y="273.231" width="90.7087" height="28.3465" class="st3"/>
			</g>
			<rect x="0" y="273.231" width="90.7087" height="28.3465" class="st4"/>
			<text x="33.02" y="291" class="st5" v:langID="2057"><v:paragraph v:horizAlign="1"/><v:tabList/>data</text>		</g>
		<g id="shape11-37" v:mID="11" v:groupContext="shape" transform="translate(1130.04,-73.5513)">
			<title>Rectangle.937</title>
			<desc>file4.bin</desc>
			<v:userDefs>
				<v:ud v:nameU="visVersion" v:val="VT0(11):26"/>
			</v:userDefs>
			<v:textBlock v:margins="rect(4,4,4,4)" v:tabSpace="42.5197"/>
			<v:textRect cx="42.5197" cy="290.948" width="85.04" height="21.2598"/>
			<g id="shadow11-38" v:groupContext="shadow" v:shadowOffsetX="2.12132" v:shadowOffsetY="-2.12132" v:shadowType="1"
					transform="matrix(1,0,0,1,2.12132,2.12132)" class="st2">
				<rect x="0" y="280.318" width="85.0394" height="21.2598" class="st3"/>
			</g>
			<rect x="0" y="280.318" width="85.0394" height="21.2598" class="st4"/>
			<text x="19.85" y="294.55" class="st6" v:langID="2057"><v:paragraph v:horizAlign="1"/><v:tabList/>file4.bin</text>		</g>
		<g id="shape12-43" v:mID="12" v:groupContext="shape" transform="translate(1130.04,-41.6615)">
			<title>Rectangle.938</title>
			<desc>file5.bin</desc>
			<v:userDefs>
				<v:ud v:nameU="visVersion" v:val="VT0(11):26"/>
			</v:userDefs>
			<v:textBlock v:margins="rect(4,4,4,4)" v:tabSpace="42.5197"/>
			<v:textRect cx="42.5197" cy="290.948" width="85.04" height="21.2598"/>
			<g id="shadow12-44" v:groupContext="shadow" v:shadowOffsetX="2.12132" v:shadowOffsetY="-2.12132" v:shadowType="1"
					transform="matrix(1,0,0,1,2.12132,2.12132)" class="st2">
				<rect x="0" y="280.318" width="85.0394" height="21.2598" class="st3"/>
			</g>
			<rect x="0" y="280.318" width="85.0394" height="21.2598" class="st4"/>
			<text x="19.85" y="294.55" class="st6" v:langID="2057"><v:paragraph v:horizAlign="1"/><v:tabList/>file5.bin</text>		</g>
		<g id="shape13-49" v:mID="13" v:groupContext="shape" transform="translate(1131.04,-8.09336)">
			<title>Rectangle.939</title>
			<desc>file6.bin</desc>
			<v:userDefs>
				<v:ud v:nameU="visVersion" v:val="VT0(11):26"/>
			</v:userDefs>
			<v:textBlock v:margins="rect(4,4,4,4)" v:tabSpace="42.5197"/>
			<v:textRect cx="42.5197" cy="290.948" width="85.04" height="21.2598"/>
			<g id="shadow13-50" v:groupContext="shadow" v:shadowOffsetX="2.12132" v:shadowOffsetY="-2.12132" v:shadowType="1"
					transform="matrix(1,0,0,1,2.12132,2.12132)" class="st2">
				<rect x="0" y="280.318" width="85.0394" height="21.2598" class="st3"/>
			</g>
			<rect x="0" y="280.318" width="85.0394" height="21.2598" class="st4"/>
			<text x="19.85" y="294.55" class="st6" v:langID="2057"><v:paragraph v:horizAlign="1"/><v:tabList/>file6.bin</text>		</g>
		<g id="shape14-55" v:mID="14" v:groupContext="shape" transform="translate(1140.95,456.897) rotate(180)">
			<title>Sheet.14</title>
			<path d="M0 301.58 L254.55 301.58" class="st1"/>
		</g>
		<g id="shape15-58" v:mID="15" v:groupContext="shape" transform="translate(1015.02,518.929) rotate(179.9)">
			<title>Sheet.15</title>
			<path d="M0 301.58 L25.7 301.58" class="st1"/>
		</g>
		<g id="shape16-61" v:mID="16" v:groupContext="shape" transform="translate(1012.86,550.666) rotate(179.502)">
			<title>Sheet.16</title>
			<path d="M0 301.58 L21.45 301.58" class="st1"/>
		</g>
		<g id="shape17-64" v:mID="17" v:groupContext="shape" transform="translate(687.402,282.634) rotate(-90.124)">
			<title>Sheet.17</title>
			<path d="M0 301.58 L85.85 301.58" class="st1"/>
		</g>
		<g id="shape18-67" v:mID="18" v:groupContext="shape" transform="translate(1006.21,584.618) rotate(180)">
			<title>Sheet.18</title>
			<path d="M0 301.58 L17.74 301.58" class="st1"/>
		</g>
		<g id="shape19-70" v:mID="19" v:groupContext="shape" transform="translate(968.95,-105.441)">
			<title>Rectangle.945</title>
			<desc>metadata</desc>
			<v:userDefs>
				<v:ud v:nameU="visVersion" v:val="VT0(11):26"/>
			</v:userDefs>
			<v:textBlock v:margins="rect(4,4,4,4)" v:tabSpace="42.5197"/>
			<v:textRect cx="45.3543" cy="287.404" width="90.71" height="28.3465"/>
			<g id="shadow19-71" v:groupContext="shadow" v:shadowOffsetX="2.12132" v:shadowOffsetY="-2.12132" v:shadowType="1"
					transform="matrix(1,0,0,1,2.12132,2.12132)" class="st2">
				<rect x="0" y="273.231" width="90.7087" height="28.3465" class="st3"/>
			</g>
			<rect x="0" y="273.231" width="90.7087" height="28.3465" class="st4"/>
			<text x="19.01" y="291" class="st5" v:langID="2057"><v:paragraph v:horizAlign="1"/><v:tabList/>metadata</text>		</g>
		<g id="shape20-76" v:mID="20" v:groupContext="shape" transform="translate(1002.97,-73.5513)">
			<title>Rectangle.946</title>
			<desc>descriptive</desc>
			<v:userDefs>
				<v:ud v:nameU="visVersion" v:val="VT0(11):26"/>
			</v:userDefs>
			<v:textBlock v:margins="rect(4,4,4,4)" v:tabSpace="42.5197"/>
			<v:textRect cx="42.5197" cy="290.948" width="85.04" height="21.2598"/>
			<g id="shadow20-77" v:groupContext="shadow" v:shadowOffsetX="2.12132" v:shadowOffsetY="-2.12132" v:shadowType="1"
					transform="matrix(1,0,0,1,2.12132,2.12132)" class="st2">
				<rect x="0" y="280.318" width="85.0394" height="21.2598" class="st3"/>
			</g>
			<rect x="0" y="280.318" width="85.0394" height="21.2598" class="st4"/>
			<text x="10.84" y="294.55" class="st6" v:langID="2057"><v:paragraph v:horizAlign="1"/><v:tabList/>descriptive</text>		</g>
		<g id="shape21-82" v:mID="21" v:groupContext="shape" transform="translate(1002.97,-41.6615)">
			<title>Rectangle.947</title>
			<desc>preservation</desc>
			<v:userDefs>
				<v:ud v:nameU="visVersion" v:val="VT0(11):26"/>
			</v:userDefs>
			<v:textBlock v:margins="rect(4,4,4,4)" v:tabSpace="42.5197"/>
			<v:textRect cx="42.5197" cy="290.948" width="85.04" height="21.2598"/>
			<g id="shadow21-83" v:groupContext="shadow" v:shadowOffsetX="2.12132" v:shadowOffsetY="-2.12132" v:shadowType="1"
					transform="matrix(1,0,0,1,2.12132,2.12132)" class="st2">
				<rect x="0" y="280.318" width="85.0394" height="21.2598" class="st3"/>
			</g>
			<rect x="0" y="280.318" width="85.0394" height="21.2598" class="st4"/>
			<text x="6.5" y="294.55" class="st6" v:langID="2057"><v:paragraph v:horizAlign="1"/><v:tabList/>preservation</text>		</g>
		<g id="shape22-88" v:mID="22" v:groupContext="shape" transform="translate(1003.97,-8.09336)">
			<title>Rectangle.948</title>
			<desc>other</desc>
			<v:userDefs>
				<v:ud v:nameU="visVersion" v:val="VT0(11):26"/>
			</v:userDefs>
			<v:textBlock v:margins="rect(4,4,4,4)" v:tabSpace="42.5197"/>
			<v:textRect cx="42.5197" cy="290.948" width="85.04" height="21.2598"/>
			<g id="shadow22-89" v:groupContext="shadow" v:shadowOffsetX="2.12132" v:shadowOffsetY="-2.12132" v:shadowType="1"
					transform="matrix(1,0,0,1,2.12132,2.12132)" class="st2">
				<rect x="0" y="280.318" width="85.0394" height="21.2598" class="st3"/>
			</g>
			<rect x="0" y="280.318" width="85.0394" height="21.2598" class="st4"/>
			<text x="27.52" y="294.55" class="st6" v:langID="2057"><v:paragraph v:horizAlign="1"/><v:tabList/>other</text>		</g>
		<g id="shape23-94" v:mID="23" v:groupContext="shape" transform="translate(841.049,-33.0287)">
			<title>Rectangle.949</title>
			<desc>METS2.xml data file4.bin file5.bin file6.bin</desc>
			<v:userDefs>
				<v:ud v:nameU="visVersion" v:val="VT0(11):26"/>
			</v:userDefs>
			<v:textBlock v:margins="rect(4,4,4,4)" v:tabSpace="42.5197"/>
			<v:textRect cx="45.5743" cy="251.057" width="91.15" height="101.04"/>
			<g id="shadow23-95" v:groupContext="shadow" v:shadowOffsetX="2.12132" v:shadowOffsetY="-2.12132" v:shadowType="1"
					transform="matrix(1,0,0,1,2.12132,2.12132)" class="st2">
				<rect x="0" y="200.537" width="91.1485" height="101.04" class="st3"/>
			</g>
			<rect x="0" y="200.537" width="91.1485" height="101.04" class="st4"/>
			<text x="17.34" y="221.06" class="st5" v:langID="2057"><v:paragraph/><v:tabList/><v:newlineChar/>METS2.xml<tspan x="4"
						dy="2em" class="st7">  </tspan>data<tspan x="4" dy="1.2em" class="st7">    </tspan>file4.bin<tspan x="4"
						dy="1.2em" class="st7">    </tspan>file5.bin<tspan x="4" dy="1.2em" class="st7">    </tspan>file6.bin<v:newlineChar/></text>		</g>
		<g id="shape24-104" v:mID="24" v:groupContext="shape" transform="translate(179.406,181.48) rotate(-90.0706)">
			<title>Sheet.24</title>
			<path d="M0 301.58 L23.8 301.58" class="st1"/>
		</g>
		<g id="shape25-107" v:mID="25" v:groupContext="shape" transform="translate(438.081,181.344) rotate(-90.0706)">
			<title>Sheet.25</title>
			<path d="M0 301.58 L23.8 301.58" class="st1"/>
		</g>
		<g id="shape26-110" v:mID="26" v:groupContext="shape" transform="translate(914.863,99.656) rotate(89.956)">
			<title>Sheet.26</title>
			<path d="M0 301.58 L71.39 301.58" class="st1"/>
		</g>
		<g id="shape27-113" v:mID="27" v:groupContext="shape" transform="translate(549.155,-159.909)">
			<title>Rectangle.953</title>
			<desc>binary</desc>
			<v:userDefs>
				<v:ud v:nameU="visVersion" v:val="VT0(11):26"/>
			</v:userDefs>
			<v:textBlock v:margins="rect(4,4,4,4)" v:tabSpace="42.5197"/>
			<v:textRect cx="63.7795" cy="287.404" width="127.56" height="28.3465"/>
			<g id="shadow27-114" v:groupContext="shadow" v:shadowOffsetX="2.12132" v:shadowOffsetY="-2.12132" v:shadowType="1"
					transform="matrix(1,0,0,1,2.12132,2.12132)" class="st2">
				<rect x="0" y="273.231" width="127.559" height="28.3465" class="st3"/>
			</g>
			<rect x="0" y="273.231" width="127.559" height="28.3465" class="st4"/>
			<text x="45.77" y="291" class="st5" v:langID="2057"><v:paragraph v:horizAlign="1"/><v:tabList/>binary</text>		</g>
		<g id="shape28-119" v:mID="28" v:groupContext="shape" transform="translate(740.76,520.781) rotate(179.9)">
			<title>Sheet.28</title>
			<path d="M0 301.58 L25.7 301.58" class="st1"/>
		</g>
		<g id="shape29-122" v:mID="29" v:groupContext="shape" transform="translate(738.605,552.518) rotate(179.502)">
			<title>Sheet.29</title>
			<path d="M0 301.58 L21.45 301.58" class="st1"/>
		</g>
		<g id="shape30-125" v:mID="30" v:groupContext="shape" transform="translate(413.146,284.486) rotate(-90.124)">
			<title>Sheet.30</title>
			<path d="M0 301.58 L85.85 301.58" class="st1"/>
		</g>
		<g id="shape31-128" v:mID="31" v:groupContext="shape" transform="translate(731.954,586.47) rotate(180)">
			<title>Sheet.31</title>
			<path d="M0 301.58 L17.74 301.58" class="st1"/>
		</g>
		<g id="shape32-131" v:mID="32" v:groupContext="shape" transform="translate(694.694,-103.589)">
			<title>Rectangle.958</title>
			<desc>data</desc>
			<v:userDefs>
				<v:ud v:nameU="visVersion" v:val="VT0(11):26"/>
			</v:userDefs>
			<v:textBlock v:margins="rect(4,4,4,4)" v:tabSpace="42.5197"/>
			<v:textRect cx="45.3543" cy="287.404" width="90.71" height="28.3465"/>
			<g id="shadow32-132" v:groupContext="shadow" v:shadowOffsetX="2.12132" v:shadowOffsetY="-2.12132" v:shadowType="1"
					transform="matrix(1,0,0,1,2.12132,2.12132)" class="st2">
				<rect x="0" y="273.231" width="90.7087" height="28.3465" class="st3"/>
			</g>
			<rect x="0" y="273.231" width="90.7087" height="28.3465" class="st4"/>
			<text x="33.02" y="291" class="st5" v:langID="2057"><v:paragraph v:horizAlign="1"/><v:tabList/>data</text>		</g>
		<g id="shape33-137" v:mID="33" v:groupContext="shape" transform="translate(728.71,-71.6993)">
			<title>Rectangle.959</title>
			<desc>file1.bin</desc>
			<v:userDefs>
				<v:ud v:nameU="visVersion" v:val="VT0(11):26"/>
			</v:userDefs>
			<v:textBlock v:margins="rect(4,4,4,4)" v:tabSpace="42.5197"/>
			<v:textRect cx="42.5197" cy="290.948" width="85.04" height="21.2598"/>
			<g id="shadow33-138" v:groupContext="shadow" v:shadowOffsetX="2.12132" v:shadowOffsetY="-2.12132" v:shadowType="1"
					transform="matrix(1,0,0,1,2.12132,2.12132)" class="st2">
				<rect x="0" y="280.318" width="85.0394" height="21.2598" class="st3"/>
			</g>
			<rect x="0" y="280.318" width="85.0394" height="21.2598" class="st4"/>
			<text x="19.85" y="294.55" class="st6" v:langID="2057"><v:paragraph v:horizAlign="1"/><v:tabList/>file1.bin</text>		</g>
		<g id="shape34-143" v:mID="34" v:groupContext="shape" transform="translate(728.71,-39.8095)">
			<title>Rectangle.960</title>
			<desc>file2.bin</desc>
			<v:userDefs>
				<v:ud v:nameU="visVersion" v:val="VT0(11):26"/>
			</v:userDefs>
			<v:textBlock v:margins="rect(4,4,4,4)" v:tabSpace="42.5197"/>
			<v:textRect cx="42.5197" cy="290.948" width="85.04" height="21.2598"/>
			<g id="shadow34-144" v:groupContext="shadow" v:shadowOffsetX="2.12132" v:shadowOffsetY="-2.12132" v:shadowType="1"
					transform="matrix(1,0,0,1,2.12132,2.12132)" class="st2">
				<rect x="0" y="280.318" width="85.0394" height="21.2598" class="st3"/>
			</g>
			<rect x="0" y="280.318" width="85.0394" height="21.2598" class="st4"/>
			<text x="19.85" y="294.55" class="st6" v:langID="2057"><v:paragraph v:horizAlign="1"/><v:tabList/>file2.bin</text>		</g>
		<g id="shape35-149" v:mID="35" v:groupContext="shape" transform="translate(729.717,-6.24132)">
			<title>Rectangle.961</title>
			<desc>file3.bin</desc>
			<v:userDefs>
				<v:ud v:nameU="visVersion" v:val="VT0(11):26"/>
			</v:userDefs>
			<v:textBlock v:margins="rect(4,4,4,4)" v:tabSpace="42.5197"/>
			<v:textRect cx="42.5197" cy="290.948" width="85.04" height="21.2598"/>
			<g id="shadow35-150" v:groupContext="shadow" v:shadowOffsetX="2.12132" v:shadowOffsetY="-2.12132" v:shadowType="1"
					transform="matrix(1,0,0,1,2.12132,2.12132)" class="st2">
				<rect x="0" y="280.318" width="85.0394" height="21.2598" class="st3"/>
			</g>
			<rect x="0" y="280.318" width="85.0394" height="21.2598" class="st4"/>
			<text x="19.85" y="294.55" class="st6" v:langID="2057"><v:paragraph v:horizAlign="1"/><v:tabList/>file3.bin</text>		</g>
		<g id="shape36-155" v:mID="36" v:groupContext="shape" transform="translate(739.268,458.749) rotate(-179.931)">
			<title>Sheet.36</title>
			<path d="M0 301.58 L257.3 301.58" class="st1"/>
		</g>
		<g id="shape37-158" v:mID="37" v:groupContext="shape" transform="translate(613.69,520.781) rotate(179.9)">
			<title>Sheet.37</title>
			<path d="M0 301.58 L25.7 301.58" class="st1"/>
		</g>
		<g id="shape38-161" v:mID="38" v:groupContext="shape" transform="translate(611.535,552.518) rotate(179.502)">
			<title>Sheet.38</title>
			<path d="M0 301.58 L21.45 301.58" class="st1"/>
		</g>
		<g id="shape39-164" v:mID="39" v:groupContext="shape" transform="translate(286.076,284.486) rotate(-90.124)">
			<title>Sheet.39</title>
			<path d="M0 301.58 L85.85 301.58" class="st1"/>
		</g>
		<g id="shape40-167" v:mID="40" v:groupContext="shape" transform="translate(604.884,586.47) rotate(180)">
			<title>Sheet.40</title>
			<path d="M0 301.58 L17.74 301.58" class="st1"/>
		</g>
		<g id="shape41-170" v:mID="41" v:groupContext="shape" transform="translate(567.624,-103.589)">
			<title>Rectangle.967</title>
			<desc>metadata</desc>
			<v:userDefs>
				<v:ud v:nameU="visVersion" v:val="VT0(11):26"/>
			</v:userDefs>
			<v:textBlock v:margins="rect(4,4,4,4)" v:tabSpace="42.5197"/>
			<v:textRect cx="45.3543" cy="287.404" width="90.71" height="28.3465"/>
			<g id="shadow41-171" v:groupContext="shadow" v:shadowOffsetX="2.12132" v:shadowOffsetY="-2.12132" v:shadowType="1"
					transform="matrix(1,0,0,1,2.12132,2.12132)" class="st2">
				<rect x="0" y="273.231" width="90.7087" height="28.3465" class="st3"/>
			</g>
			<rect x="0" y="273.231" width="90.7087" height="28.3465" class="st4"/>
			<text x="19.01" y="291" class="st5" v:langID="2057"><v:paragraph v:horizAlign="1"/><v:tabList/>metadata</text>		</g>
		<g id="shape42-176" v:mID="42" v:groupContext="shape" transform="translate(601.64,-71.6993)">
			<title>Rectangle.968</title>
			<desc>descriptive</desc>
			<v:userDefs>
				<v:ud v:nameU="visVersion" v:val="VT0(11):26"/>
			</v:userDefs>
			<v:textBlock v:margins="rect(4,4,4,4)" v:tabSpace="42.5197"/>
			<v:textRect cx="42.5197" cy="290.948" width="85.04" height="21.2598"/>
			<g id="shadow42-177" v:groupContext="shadow" v:shadowOffsetX="2.12132" v:shadowOffsetY="-2.12132" v:shadowType="1"
					transform="matrix(1,0,0,1,2.12132,2.12132)" class="st2">
				<rect x="0" y="280.318" width="85.0394" height="21.2598" class="st3"/>
			</g>
			<rect x="0" y="280.318" width="85.0394" height="21.2598" class="st4"/>
			<text x="10.84" y="294.55" class="st6" v:langID="2057"><v:paragraph v:horizAlign="1"/><v:tabList/>descriptive</text>		</g>
		<g id="shape43-182" v:mID="43" v:groupContext="shape" transform="translate(601.64,-39.8095)">
			<title>Rectangle.969</title>
			<desc>preservation</desc>
			<v:userDefs>
				<v:ud v:nameU="visVersion" v:val="VT0(11):26"/>
			</v:userDefs>
			<v:textBlock v:margins="rect(4,4,4,4)" v:tabSpace="42.5197"/>
			<v:textRect cx="42.5197" cy="290.948" width="85.04" height="21.2598"/>
			<g id="shadow43-183" v:groupContext="shadow" v:shadowOffsetX="2.12132" v:shadowOffsetY="-2.12132" v:shadowType="1"
					transform="matrix(1,0,0,1,2.12132,2.12132)" class="st2">
				<rect x="0" y="280.318" width="85.0394" height="21.2598" class="st3"/>
			</g>
			<rect x="0" y="280.318" width="85.0394" height="21.2598" class="st4"/>
			<text x="6.5" y="294.55" class="st6" v:langID="2057"><v:paragraph v:horizAlign="1"/><v:tabList/>preservation</text>		</g>
		<g id="shape44-188" v:mID="44" v:groupContext="shape" transform="translate(602.646,-6.24132)">
			<title>Rectangle.970</title>
			<desc>other</desc>
			<v:userDefs>
				<v:ud v:nameU="visVersion" v:val="VT0(11):26"/>
			</v:userDefs>
			<v:textBlock v:margins="rect(4,4,4,4)" v:tabSpace="42.5197"/>
			<v:textRect cx="42.5197" cy="290.948" width="85.04" height="21.2598"/>
			<g id="shadow44-189" v:groupContext="shadow" v:shadowOffsetX="2.12132" v:shadowOffsetY="-2.12132" v:shadowType="1"
					transform="matrix(1,0,0,1,2.12132,2.12132)" class="st2">
				<rect x="0" y="280.318" width="85.0394" height="21.2598" class="st3"/>
			</g>
			<rect x="0" y="280.318" width="85.0394" height="21.2598" class="st4"/>
			<text x="27.52" y="294.55" class="st6" v:langID="2057"><v:paragraph v:horizAlign="1"/><v:tabList/>other</text>		</g>
		<g id="shape45-194" v:mID="45" v:groupContext="shape" transform="translate(440.655,-34.446)">
			<title>Rectangle.971</title>
			<desc>METS1.xml data file1.bin file2.bin file3.bin</desc>
			<v:userDefs>
				<v:ud v:nameU="visVersion" v:val="VT0(11):26"/>
			</v:userDefs>
			<v:textBlock v:margins="rect(4,4,4,4)" v:tabSpace="42.5197"/>
			<v:textRect cx="42.5197" cy="252.692" width="85.04" height="97.7708"/>
			<g id="shadow45-195" v:groupContext="shadow" v:shadowOffsetX="2.12132" v:shadowOffsetY="-2.12132" v:shadowType="1"
					transform="matrix(1,0,0,1,2.12132,2.12132)" class="st2">
				<rect x="0" y="203.807" width="85.0394" height="97.7708" class="st3"/>
			</g>
			<rect x="0" y="203.807" width="85.0394" height="97.7708" class="st4"/>
			<text x="4" y="223.89" class="st5" v:langID="2057"><v:paragraph/><v:tabList/>METS1.xml<v:newlineChar/><v:newlineChar/><tspan
						x="4" dy="1.8em" class="st7">  </tspan>data<v:newlineChar/><tspan x="4" dy="1.2em" class="st7">    </tspan>file1.bin<v:newlineChar/><tspan
						x="4" dy="1.2em" class="st7">    </tspan>file2.bin<v:newlineChar/><tspan x="4" dy="1.2em" class="st7">    </tspan>file3.bin<v:newlineChar/></text>		</g>
		<g id="shape46-204" v:mID="46" v:groupContext="shape" transform="translate(438.446,-271.232)">
			<title>Rectangle.972</title>
			<desc>IP</desc>
			<v:userDefs>
				<v:ud v:nameU="visVersion" v:val="VT0(11):26"/>
			</v:userDefs>
			<v:textBlock v:margins="rect(4,4,4,4)" v:tabSpace="42.5197"/>
			<v:textRect cx="63.7795" cy="287.404" width="127.56" height="28.3465"/>
			<g id="shadow46-205" v:groupContext="shadow" v:shadowOffsetX="2.12132" v:shadowOffsetY="-2.12132" v:shadowType="1"
					transform="matrix(1,0,0,1,2.12132,2.12132)" class="st2">
				<rect x="0" y="273.231" width="127.559" height="28.3465" class="st3"/>
			</g>
			<rect x="0" y="273.231" width="127.559" height="28.3465" class="st4"/>
			<text x="58.11" y="291" class="st5" v:langID="2057"><v:paragraph v:horizAlign="1"/><v:tabList/>IP</text>		</g>
		<g id="shape47-210" v:mID="47" v:groupContext="shape" transform="translate(123.938,-258.383) rotate(0.0372916)">
			<title>Sheet.47</title>
			<path d="M0 301.58 L676.2 301.58" class="st1"/>
		</g>
		<g id="shape48-213" v:mID="48" v:groupContext="shape" transform="translate(-176.749,59.1158) rotate(-90)">
			<title>Sheet.48</title>
			<path d="M0 301.58 L14.17 301.58" class="st1"/>
		</g>
		<g id="shape49-216" v:mID="49" v:groupContext="shape" transform="translate(736.977,-214.897)">
			<title>Rectangle.975</title>
			<desc>representations</desc>
			<v:userDefs>
				<v:ud v:nameU="visVersion" v:val="VT0(11):26"/>
			</v:userDefs>
			<v:textBlock v:margins="rect(4,4,4,4)" v:tabSpace="42.5197"/>
			<v:textRect cx="63.7795" cy="287.404" width="127.56" height="28.3465"/>
			<g id="shadow49-217" v:groupContext="shadow" v:shadowOffsetX="2.12132" v:shadowOffsetY="-2.12132" v:shadowType="1"
					transform="matrix(1,0,0,1,2.12132,2.12132)" class="st2">
				<rect x="0" y="273.231" width="127.559" height="28.3465" class="st3"/>
			</g>
			<rect x="0" y="273.231" width="127.559" height="28.3465" class="st4"/>
			<text x="18.76" y="291" class="st5" v:langID="2057"><v:paragraph v:horizAlign="1"/><v:tabList/>representations</text>		</g>
		<g id="shape50-222" v:mID="50" v:groupContext="shape" transform="translate(2.70268,-163.706)">
			<title>Rectangle.976</title>
			<desc>METS.xml {C1}/representations/binary/METS1.xml {C2}/represent...</desc>
			<v:userDefs>
				<v:ud v:nameU="visVersion" v:val="VT0(11):26"/>
			</v:userDefs>
			<v:textBlock v:margins="rect(4,4,4,4)" v:tabSpace="42.5197"/>
			<v:textRect cx="121.89" cy="262.166" width="243.78" height="78.8233"/>
			<g id="shadow50-223" v:groupContext="shadow" v:shadowOffsetX="2.12132" v:shadowOffsetY="-2.12132" v:shadowType="1"
					transform="matrix(1,0,0,1,2.12132,2.12132)" class="st2">
				<rect x="0" y="222.754" width="243.78" height="78.8233" class="st3"/>
			</g>
			<rect x="0" y="222.754" width="243.78" height="78.8233" class="st4"/>
			<text x="80.68" y="247.77" class="st5" v:langID="2057"><v:paragraph/><v:tabList/><v:newlineChar/>METS.xml<tspan x="4"
						dy="1.8em" class="st7"> </tspan>{C1}/representations/binary/METS1.xml<tspan x="4" dy="1.2em" class="st7"> </tspan>{C2}/representations/binary/METS2.xml<v:newlineChar/></text>		</g>
		<g id="shape51-230" v:mID="51" v:groupContext="shape" transform="translate(267.742,-214.183)">
			<title>Rectangle.977</title>
			<desc>metadata</desc>
			<v:userDefs>
				<v:ud v:nameU="visVersion" v:val="VT0(11):26"/>
			</v:userDefs>
			<v:textBlock v:margins="rect(4,4,4,4)" v:tabSpace="42.5197"/>
			<v:textRect cx="63.7795" cy="287.404" width="127.56" height="28.3465"/>
			<g id="shadow51-231" v:groupContext="shadow" v:shadowOffsetX="2.12132" v:shadowOffsetY="-2.12132" v:shadowType="1"
					transform="matrix(1,0,0,1,2.12132,2.12132)" class="st2">
				<rect x="0" y="273.231" width="127.559" height="28.3465" class="st3"/>
			</g>
			<rect x="0" y="273.231" width="127.559" height="28.3465" class="st4"/>
			<text x="37.44" y="291" class="st5" v:langID="2057"><v:paragraph v:horizAlign="1"/><v:tabList/>metadata</text>		</g>
		<g id="shape52-236" v:mID="52" v:groupContext="shape" transform="translate(29.944,59.0483) rotate(-90)">
			<title>Sheet.52</title>
			<path d="M0 301.58 L14.17 301.58" class="st1"/>
		</g>
		<g id="shape53-239" v:mID="53" v:groupContext="shape" transform="translate(200.593,40.8773) rotate(-89.7213)">
			<title>Sheet.53</title>
			<path d="M0 301.58 L12 301.58" class="st1"/>
		</g>
		<g id="shape54-242" v:mID="54" v:groupContext="shape" transform="translate(320.155,409.819) rotate(179.9)">
			<title>Sheet.54</title>
			<path d="M0 301.58 L25.7 301.58" class="st1"/>
		</g>
		<g id="shape55-245" v:mID="55" v:groupContext="shape" transform="translate(318,441.556) rotate(179.502)">
			<title>Sheet.55</title>
			<path d="M0 301.58 L21.45 301.58" class="st1"/>
		</g>
		<g id="shape56-248" v:mID="56" v:groupContext="shape" transform="translate(-7.45906,173.525) rotate(-90.124)">
			<title>Sheet.56</title>
			<path d="M0 301.58 L85.85 301.58" class="st1"/>
		</g>
		<g id="shape57-251" v:mID="57" v:groupContext="shape" transform="translate(311.349,475.509) rotate(180)">
			<title>Sheet.57</title>
			<path d="M0 301.58 L17.74 301.58" class="st1"/>
		</g>
		<g id="shape58-254" v:mID="58" v:groupContext="shape" transform="translate(308.105,-182.661)">
			<title>Rectangle.984</title>
			<desc>descriptive</desc>
			<v:userDefs>
				<v:ud v:nameU="visVersion" v:val="VT0(11):26"/>
			</v:userDefs>
			<v:textBlock v:margins="rect(4,4,4,4)" v:tabSpace="42.5197"/>
			<v:textRect cx="42.5197" cy="290.948" width="85.04" height="21.2598"/>
			<g id="shadow58-255" v:groupContext="shadow" v:shadowOffsetX="2.12132" v:shadowOffsetY="-2.12132" v:shadowType="1"
					transform="matrix(1,0,0,1,2.12132,2.12132)" class="st2">
				<rect x="0" y="280.318" width="85.0394" height="21.2598" class="st3"/>
			</g>
			<rect x="0" y="280.318" width="85.0394" height="21.2598" class="st4"/>
			<text x="10.84" y="294.55" class="st5" v:langID="2057"><v:paragraph v:horizAlign="1"/><v:tabList/>descriptive</text>		</g>
		<g id="shape59-260" v:mID="59" v:groupContext="shape" transform="translate(308.105,-150.771)">
			<title>Rectangle.985</title>
			<desc>preservation</desc>
			<v:userDefs>
				<v:ud v:nameU="visVersion" v:val="VT0(11):26"/>
			</v:userDefs>
			<v:textBlock v:margins="rect(4,4,4,4)" v:tabSpace="42.5197"/>
			<v:textRect cx="42.5197" cy="290.948" width="85.04" height="21.2598"/>
			<g id="shadow59-261" v:groupContext="shadow" v:shadowOffsetX="2.12132" v:shadowOffsetY="-2.12132" v:shadowType="1"
					transform="matrix(1,0,0,1,2.12132,2.12132)" class="st2">
				<rect x="0" y="280.318" width="85.0394" height="21.2598" class="st3"/>
			</g>
			<rect x="0" y="280.318" width="85.0394" height="21.2598" class="st4"/>
			<text x="6.5" y="294.55" class="st5" v:langID="2057"><v:paragraph v:horizAlign="1"/><v:tabList/>preservation</text>		</g>
		<g id="shape60-266" v:mID="60" v:groupContext="shape" transform="translate(309.112,-117.203)">
			<title>Rectangle.986</title>
			<desc>other</desc>
			<v:userDefs>
				<v:ud v:nameU="visVersion" v:val="VT0(11):26"/>
			</v:userDefs>
			<v:textBlock v:margins="rect(4,4,4,4)" v:tabSpace="42.5197"/>
			<v:textRect cx="42.5197" cy="290.948" width="85.04" height="21.2598"/>
			<g id="shadow60-267" v:groupContext="shadow" v:shadowOffsetX="2.12132" v:shadowOffsetY="-2.12132" v:shadowType="1"
					transform="matrix(1,0,0,1,2.12132,2.12132)" class="st2">
				<rect x="0" y="280.318" width="85.0394" height="21.2598" class="st3"/>
			</g>
			<rect x="0" y="280.318" width="85.0394" height="21.2598" class="st4"/>
			<text x="27.52" y="294.55" class="st5" v:langID="2057"><v:paragraph v:horizAlign="1"/><v:tabList/>other</text>		</g>
		<g id="shape61-272" v:mID="61" v:groupContext="shape" transform="translate(1014.85,400.898) rotate(-179.98)">
			<title>Sheet.61</title>
			<path d="M0 301.58 L400.79 301.58" class="st1"/>
		</g>
		<g id="shape62-275" v:mID="62" v:groupContext="shape" transform="translate(4.12001,-216.221)">
			<title>Rectangle.1052</title>
			<desc>METS.xml</desc>
			<v:userDefs>
				<v:ud v:nameU="visVersion" v:val="VT0(11):26"/>
			</v:userDefs>
			<v:textBlock v:margins="rect(4,4,4,4)" v:tabSpace="42.5197"/>
			<v:textRect cx="121.699" cy="289.757" width="243.4" height="23.6406"/>
			<g id="shadow62-276" v:groupContext="shadow" v:shadowOffsetX="1.83697E-16" v:shadowOffsetY="-3" v:shadowType="1"
					transform="matrix(1,0,0,1,0,3)" class="st2">
				<rect x="0" y="277.937" width="243.397" height="23.6406" class="st3"/>
			</g>
			<rect x="0" y="277.937" width="243.397" height="23.6406" class="st8"/>
			<text x="93.03" y="293.36" class="st5" v:langID="2057"><v:paragraph v:horizAlign="1"/><v:tabList/>METS.xml</text>		</g>
		<g id="shape63-281" v:mID="63" v:groupContext="shape" transform="translate(841.301,-107.168)">
			<title>Rectangle.1054</title>
			<desc>METS2.xml</desc>
			<v:userDefs>
				<v:ud v:nameU="visVersion" v:val="VT0(11):26"/>
			</v:userDefs>
			<v:textBlock v:margins="rect(4,4,4,4)" v:tabSpace="42.5197"/>
			<v:textRect cx="44.5569" cy="289.757" width="89.12" height="23.6406"/>
			<g id="shadow63-282" v:groupContext="shadow" v:shadowOffsetX="1.83697E-16" v:shadowOffsetY="-3" v:shadowType="1"
					transform="matrix(1,0,0,1,0,3)" class="st2">
				<rect x="0" y="277.937" width="89.1138" height="23.6406" class="st3"/>
			</g>
			<rect x="0" y="277.937" width="89.1138" height="23.6406" class="st8"/>
			<text x="12.55" y="293.36" class="st5" v:langID="2057"><v:paragraph v:horizAlign="1"/><v:tabList/>METS2.xml</text>		</g>
		<g id="shape64-287" v:mID="64" v:groupContext="shape" transform="translate(440.793,-106.254)">
			<title>Rectangle.1057</title>
			<desc>METS1.xml</desc>
			<v:userDefs>
				<v:ud v:nameU="visVersion" v:val="VT0(11):26"/>
			</v:userDefs>
			<v:textBlock v:margins="rect(4,4,4,4)" v:tabSpace="42.5197"/>
			<v:textRect cx="42.248" cy="289.757" width="84.5" height="23.6406"/>
			<g id="shadow64-288" v:groupContext="shadow" v:shadowOffsetX="1.83697E-16" v:shadowOffsetY="-3" v:shadowType="1"
					transform="matrix(1,0,0,1,0,3)" class="st2">
				<rect x="0" y="277.937" width="84.4961" height="23.6406" class="st3"/>
			</g>
			<rect x="0" y="277.937" width="84.4961" height="23.6406" class="st8"/>
			<text x="10.24" y="293.36" class="st5" v:langID="2057"><v:paragraph v:horizAlign="1"/><v:tabList/>METS1.xml</text>		</g>
	</g>
</svg>
